<svg height="512pt" viewBox="0 0 512 512" width="512pt" xmlns="http://www.w3.org/2000/svg"><path d="m15.257812 34.796875 5.011719.847656c29.621094 5.003907 60.488281-.175781 86.902344-14.578125l21.523437-11.734375 143.035157 144.179688-31.699219 31.953125-127.695312-128.648438c-31.96875 15.363282-68.378907 20.972656-103.390626 15.933594zm0 0" fill="#b77062"/><path d="m477.203125 496.742188-.847656-5.011719c-5.003907-29.621094.175781-60.488281 14.578125-86.902344l11.734375-21.523437-144.195313-143.058594-31.957031 31.703125 128.667969 127.710937c-15.363282 31.972656-20.972656 68.382813-15.933594 103.390625zm0 0" fill="#b77062"/><path d="m237.648438 187.753906 36.371093-36.367187 86.589844 86.589843-36.367187 36.371094zm0 0" fill="#fff5cc"/><path d="m502.808594 9.191406-81.351563 13.957032 67.394531 67.394531zm0 0" fill="#c6c5ca"/><path d="m73.746094 454.445312-16.191406-16.191406 44.210937-44.210937-36.828125-2.730469-54.320312 54.320312 55.75 55.75 54.320312-54.320312-2.730469-36.828125zm0 0" fill="#fff5cc"/><path d="m309.222656 186.585938 137.835938-137.832032 16.1875 16.1875-137.832032 137.835938zm-36.371094 36.371093-215.296874 215.296875 16.191406 16.191406 215.296875-215.300781zm0 0" fill="#787680"/><path d="m38.972656 72.75 5.863282-35.269531c-8.203126.140625-16.433594-.464844-24.566407-1.839844l-5.011719-.84375-6.3125 37.953125c13.34375 1.917969 26.886719 2.292969 40.308594 1.171875-3.4375-.289063-6.867187-.679687-10.28125-1.171875zm0 0" fill="#895247"/><path d="m485.207031 399.664062-128.667969-127.714843 16.945313-16.808594-15.011719-14.894531-31.957031 31.703125 128.667969 127.710937c-15.363282 31.972656-20.972656 68.382813-15.933594 103.390625l29.390625-4.882812c-3.863281-33.496094 1.914063-68.019531 16.566406-98.503907zm0 0" fill="#895247"/><path d="m267.675781 187.753906 21.359375-21.359375-15.011718-15.011719-36.371094 36.371094 86.59375 86.59375 15.011718-15.011718zm0 0" fill="#ffc477"/><path d="m451.480469 23.148438 50.417969-8.648438.910156-5.308594-81.351563 13.957032 67.394531 67.394531 4.394532-25.625zm0 0" fill="#898890"/><path d="m40.640625 445.632812 52.246094-52.246093-27.949219-2.074219-54.320312 54.320312 55.75 55.75 15.011718-15.011718zm0 0" fill="#ffc477"/><path d="m120.027344 438.1875-2.070313-27.953125-29.199219 29.199219 15.011719 15.011718zm0 0" fill="#ffc477"/><path d="m324.246094 284.960938 46.984375-46.980469-97.207031-97.210938-46.984376 46.984375zm-43.296875-64.523438-11.035157-11.035156 25.757813-25.753906 11.03125 11.03125zm36.371093-15.140625 11.03125 11.03125-25.753906 25.757813-11.035156-11.035157zm6.925782 58.4375-11.035156-11.035156 25.757812-25.753907 11.03125 11.03125zm-39.191406-90.703125-25.753907 25.757812-11.03125-11.035156 25.753907-25.753906zm0 0"/><path d="m125.695312 413.109375 154.5-154.5-10.613281-10.617187-195.835937 195.835937-5.574219-5.574219 195.835937-195.835937-10.613281-10.613281-154.503906 154.5-36.828125-2.730469-62.0625 62.058593 66.367188 66.367188 62.058593-62.0625zm-104.464843 32.523437 46.582031-46.578124 17.0625 1.265624-18.96875 18.964844-18.964844 18.96875 26.804688 26.804688 37.933594-37.933594 1.265624 17.0625-46.578124 46.582031zm0 0"/><path d="m21.308594 94.484375h15.011718v304.648437h-15.011718zm0 0"/><path d="m112.867188 475.679688h304.648437v15.011718h-304.648437zm0 0"/><path d="m328.683594 177.742188 118.375-118.375 5.574218 5.574218-118.375 118.375 10.617188 10.613282 118.371094-118.375 30.550781 30.550781 18.203125-106.105469-106.105469 18.203125 30.550781 30.550781-118.375 118.371094zm164.929687-159.355469-9.710937 56.597656-18.136719-18.140625 13.019531-13.019531-10.617187-10.613281-13.019531 13.019531-18.132813-18.132813zm0 0"/><path d="m367.332031 259.609375 126.046875 125.054687-9.035156 16.570313c-14.8125 27.171875-20.382812 58.800781-15.773438 89.335937l-22.808593 3.792969c-3.015625-31.082031 2.644531-63.269531 16.183593-91.449219l2.3125-4.816406-118.183593-117.3125-10.578125 10.65625 110.664062 109.84375c-14.21875 31.992188-19.3125 68.289063-14.339844 102.835938l1.09375 7.59375 52.941407-8.800782-2.097657-12.433593c-4.726562-27.96875.164063-57.113281 13.765626-82.0625l14.433593-26.46875-134.054687-132.996094zm0 0"/><path d="m110.714844 65.835938 109.84375 110.664062 10.65625-10.574219-117.3125-118.1875-4.816406 2.316407c-28.179688 13.539062-60.371094 19.199218-91.445313 16.183593l3.789063-22.808593c30.535156 4.609374 62.164062-.960938 89.335937-15.773438l16.574219-9.035156 125.050781 126.046875 10.65625-10.570313-132.996094-134.0585935-26.46875 14.4335935c-24.949219 13.605469-54.09375 18.496094-82.0625 13.769532l-12.433593-2.101563-8.800782 52.945313 7.59375 1.09375c34.542969 4.96875 70.84375-.121094 102.835938-14.34375zm0 0"/><path d="m440.113281 364.386719-50.660156-50.664063 10.613281-10.613281 50.664063 50.660156zm-57.738281-57.738281-10.613281-10.613282 10.613281-10.617187 10.613281 10.613281zm-17.691406-17.691407-10.613282-10.617187 10.613282-10.613282 10.613281 10.613282zm0 0" fill="#fff"/></svg>