<svg height="512pt" viewBox="-23 0 512 512" width="512pt" xmlns="http://www.w3.org/2000/svg"><path d="m212.292969 462.941406-51.746094-35.851562h-153.046875v77.410156h140.953125v-16.832031l36 16.832031h274.800781v-41.558594zm0 0" fill="#787680"/><path d="m368.058594 331.4375-78.59375 78.59375c-13.324219 0-20.792969 0-34.117188 0l-37.941406-37.941406 73.085938-73.089844zm0 0" fill="#b77062"/><path d="m233.375 7.5v49.183594c-4.464844 4.46875-6.96875 6.972656-11.4375 11.4375h-83.410156v55.480468c8.710937 8.710938 13.59375 13.59375 22.304687 22.304688h72.542969v41.84375c-4.464844 4.46875-6.96875 6.972656-11.4375 11.4375h-83.410156v55.476562c8.710937 8.710938 13.59375 13.59375 22.304687 22.304688h103.519531v-269.46875zm0 0" fill="#b77062"/><path d="m421.101562 361.09375-59.675781-23.027344-71.960937 71.960938h-34.117188l-37.941406-37.941406 64.660156-64.65625c-12.9375-5.347657-22.054687-16.9375-24.394531-30.460938h-96.839844l-22.304687-22.304688v-55.476562h83.410156c4.46875-4.464844 6.972656-6.96875 11.4375-11.4375v-41.84375h-72.542969l-22.304687-22.304688v-55.476562h83.410156c4.464844-4.46875 6.96875-6.972656 11.4375-11.4375v-43.46875h-215.402344v304.34375c-6.945312 22.734375-10.472656 46.375-10.472656 70.144531v39.382813h153.046875l51.746094 35.851562h246.960937v-46.230468c0-24.640626-15.164062-46.742188-38.152344-55.617188zm0 0" fill="#b77062"/><path d="m7.5 427.089844h30v77.410156h-30zm0 0" fill="#57565c"/><g fill="#895247"><path d="m311.648438 307.847656-21.15625-8.84375-73.085938 73.085938 37.941406 37.941406h30l-37.941406-37.941406zm0 0"/><path d="m263.375 187.75v-41.84375h-30v41.84375l-11.4375 11.4375h30zm0 0"/><path d="m263.375 56.683594v-49.183594h-30v49.183594c-4.464844 4.46875-6.96875 6.972656-11.4375 11.4375h30c4.46875-4.464844 6.972656-6.96875 11.4375-11.4375zm0 0"/><path d="m168.527344 254.664062v-55.476562h-30v55.476562c8.710937 8.710938 13.59375 13.59375 22.304687 22.304688h30c-8.710937-8.707031-13.59375-13.59375-22.304687-22.304688zm0 0"/><path d="m160.832031 145.90625h30c-8.710937-8.710938-13.59375-13.59375-22.304687-22.304688v-55.476562h-30v55.476562c8.710937 8.710938 13.59375 13.59375 22.304687 22.304688zm0 0"/><path d="m37.5 387.707031c0-23.769531 3.53125-47.410156 10.476562-70.144531v-304.34375h-30v304.34375c-6.945312 22.734375-10.476562 46.375-10.476562 70.144531v39.382813h30zm0 0"/><path d="m319.464844 410.03125 63.609375-63.609375-21.648438-8.355469-71.960937 71.964844zm0 0"/></g><path d="m252.242188 417.53125h40.328124l88.699219-88.699219-92.523437-38.6875-81.945313 81.945313zm39.996093-109.671875 62.609375 26.179687-68.488281 68.492188h-27.90625l-30.441406-30.441406zm0 0"/><path d="m131.027344 126.707031 26.699218 26.699219h68.148438v31.238281l-7.042969 7.042969h-87.804687v66.082031l26.699218 26.699219h114.125v-284.46875h-45.976562v53.578125l-7.042969 7.046875h-87.804687zm15-51.082031h79.019531l15.828125-15.832031v-44.792969h15.976562v254.46875h-92.914062l-17.910156-17.910156v-44.871094h79.015625l15.832031-15.832031v-52.449219h-76.9375l-17.910156-17.910156zm0 0"/><path d="m423.800781 354.097656-39.265625-15.152344-5.398437 13.996094 39.265625 15.152344c19.949218 7.695312 33.351562 27.234375 33.351562 48.617188v38.730468h-237.117187l-51.746094-35.851562h-147.890625v-31.882813c0-21.203125 2.890625-42.25 8.59375-62.644531h74.46875v-15h-72.585938v-289.34375h187.898438v-15h-202.898438v310.730469c-6.953124 23.132812-10.476562 47.101562-10.476562 71.257812v124.292969h155.953125v-12.546875l26.835937 12.546875h283.964844v-95.289062c0-27.535157-17.261718-52.699219-42.953125-62.613282zm27.953125 142.902344h-265.632812l-45.167969-21.117188v21.117188h-125.953125v-62.410156h143.203125l51.746094 35.851562h241.804687zm0 0"/><path d="m441.753906 437.9375h-15v-21.226562c0-10.496094-6.164062-20.148438-15.703125-24.59375l6.335938-13.597657c14.800781 6.898438 24.367187 21.886719 24.367187 38.191407zm-39.535156-49.292969-13.992188-5.398437 5.398438-13.992188 13.992188 5.398438zm-23.324219-9-13.992187-5.398437 5.398437-13.996094 13.996094 5.402344zm0 0" fill="#fff"/><path d="m284.410156 390.335938-10.605468-10.609376 15.5-15.5 10.605468 10.609376zm22.570313-22.570313-10.605469-10.609375 10.609375-10.605469 10.605469 10.605469zm17.679687-17.679687-10.605468-10.605469 10.605468-10.609375 10.605469 10.609375zm0 0" fill="#fff"/><path d="m242.953125 128.40625h-21.765625v-15h21.765625zm-31.765625 0h-15v-15h15zm-25 0h-15v-15h15zm0 0" fill="#fff"/><path d="m242.953125 259.46875h-21.765625v-15h21.765625zm-31.765625 0h-15v-15h15zm-25 0h-15v-15h15zm0 0" fill="#fff"/></svg>