<svg height="512pt" viewBox="-57 0 512 512" width="512pt" xmlns="http://www.w3.org/2000/svg"><path d="m102.371094 267.589844c13.636718 13.632812 21.277344 21.277344 34.914062 34.914062h122.652344c13.636719-13.636718 21.28125-21.28125 34.914062-34.914062v-66.019532c-13.632812-13.632812-21.277343-21.277343-34.914062-34.914062h-122.652344c-13.636718 13.636719-21.28125 21.28125-34.914062 34.914062zm0 0" fill="#fff5cc"/><path d="m228.589844 222.367188-39.394532-39.394532c21.753907-21.753906 57.027344-21.753906 78.785157 0zm0 0" fill="#ffc477"/><path d="m294.851562 259.78125v7.808594c-13.632812 13.632812-21.277343 21.277344-34.914062 34.914062h-122.652344c-13.636718-13.636718-21.28125-21.28125-34.914062-34.914062v-7.808594l-24.882813-24.882812v124.890624c0 2.066407.0625 4.121094.179688 6.164063l73.320312 73.320313h95.25c28.941407-28.941407 46.160157-46.160157 73.269531-73.269532.121094-2.0625.179688-4.132812.179688-6.214844v-124.84375zm0 0" fill="#ffdaaa"/><path d="m158.253906 302.503906 21.976563 32.042969 21.980469-32.042969zm0 0" fill="#ff9478"/><path d="m278.921875 302.503906-21.976563 32.042969-21.980468-32.042969zm0 0" fill="#ff9478"/><path d="m349.113281 109.480469-61.367187-61.371094h-178.265625l-61.371094 61.371094v310.664062c0 46.585938 37.769531 84.355469 84.355469 84.355469 12.152344 0 22.003906-9.851562 22.003906-22.003906v-5.03125c0-8.550782-4.953125-16.324219-12.695312-19.9375l-2.910157-1.359375c-37.441406-17.476563-61.375-55.058594-61.375-96.378907v-124.890624l24.882813 24.882812v-58.210938c13.636718-13.632812 21.28125-21.277343 34.914062-34.914062h122.652344c13.636719 13.636719 21.28125 21.28125 34.914062 34.914062v58.210938l24.835938-24.835938v124.84375c0 41.320313-23.929688 78.902344-61.375 96.378907l-2.910156 1.359375c-7.742188 3.613281-12.695313 11.386718-12.695313 19.9375v5.03125c0 12.152344 9.851563 22.003906 22.003907 22.003906 46.589843 0 84.355468-37.769531 84.355468-84.359375v-195.574219l.046875-.046875zm0 0" fill="#b77062"/><path d="m198.589844 222.367188-39.394532-39.394532c21.753907-21.753906 57.027344-21.753906 78.785157 0zm0 0" fill="#787680"/><path d="m349.113281 109.480469 40.609375-40.609375c0-12.136719 0-18.941406 0-31.074219l-30.292968-30.296875c-12.136719 0-18.941407 0-31.074219 0l-40.609375 40.609375zm0 0" fill="#b77062"/><path d="m48.109375 109.480469 61.371094-61.371094-40.609375-40.609375c-12.136719 0-18.941406 0-31.074219 0l-30.296875 30.296875v31.074219zm0 0" fill="#b77062"/><path d="m40.925781 66.9375v-10.359375l15.648438-15.652344h10.363281l24.863281 24.859375-26.015625 26.015625zm0 0" fill="#fff5cc"/><path d="m317.746094 48.109375 40.609375-40.609375h-30l-40.609375 40.609375 61.367187 61.371094 15-15zm0 0" fill="#895247"/><path d="m356.25 66.9375v-10.359375l-15.652344-15.652344h-10.359375l-24.863281 24.859375 26.015625 26.015625zm0 0" fill="#fff5cc"/><path d="m161.839844 131.917969c-11.773438 11.773437-30.863282 11.773437-42.636719 0-11.773437-11.773438-11.773437-30.863281 0-42.636719zm0 0" fill="#ff7956"/><path d="m235.335938 131.917969c11.773437 11.773437 30.859374 11.773437 42.636718 0 11.773438-11.773438 11.773438-30.863281 0-42.636719zm0 0" fill="#ff7956"/><path d="m138.253906 302.503906 21.976563 32.042969 21.980469-32.042969zm0 0" fill="#fff"/><path d="m258.921875 302.503906-21.976563 32.042969-21.980468-32.042969zm0 0" fill="#fff"/><path d="m132.371094 267.589844v-66.019532c13.636718-13.632812 21.277344-21.277343 34.914062-34.914062h-30c-13.636718 13.636719-21.28125 21.28125-34.914062 34.914062v66.019532c13.636718 13.632812 21.277344 21.277344 34.914062 34.914062h30c-13.636718-13.636718-21.28125-21.277344-34.914062-34.914062zm0 0" fill="#ffc477"/><path d="m319.6875 272.757812v-37.8125l-24.835938 24.835938v7.808594c-13.632812 13.636718-21.277343 21.28125-34.914062 34.914062h30c11.816406-11.816406 19.132812-19.132812 29.75-29.746094zm0 0" fill="#ff9478"/><path d="m107.488281 359.789062v-87.082031c-1.621093-1.617187-3.316406-3.316406-5.117187-5.117187v-7.808594l-24.882813-24.882812v124.890624c0 2.066407.058594 4.121094.175781 6.164063l73.324219 73.320313h30l-73.324219-73.320313c-.117187-2.042969-.175781-4.097656-.175781-6.164063zm0 0" fill="#ff9478"/><path d="m272.707031 482.496094v-5.03125c0-8.550782 4.953125-16.324219 12.695313-19.9375l2.910156-1.359375c33.941406-15.839844 56.777344-48.199219 60.753906-84.886719v-135.714844l-24.214844 24.214844v-58.210938c-13.632812-13.632812-21.277343-21.277343-34.914062-34.914062h-30c13.636719 13.636719 21.28125 21.28125 34.914062 34.914062v58.210938l24.835938-24.835938v124.84375c0 41.320313-23.929688 78.902344-61.375 96.378907l-2.910156 1.359375c-7.742188 3.613281-12.695313 11.386718-12.695313 19.9375v5.03125c0 12.152344 9.851563 22.003906 22.003907 22.003906 6.894531 0 13.601562-.828125 20.015624-2.390625-7.132812-3.636719-12.019531-11.054687-12.019531-19.613281zm0 0" fill="#895247"/><path d="m78.109375 420.144531v-48.863281c-.410156-3.789062-.621094-7.625-.621094-11.492188v-124.890624l.621094.621093v-126.039062l61.371094-61.371094h-30l-61.371094 61.371094v310.664062c0 46.585938 37.769531 84.355469 84.355469 84.355469 3.59375 0 6.988281-.863281 9.984375-2.390625-36.925781-8.984375-64.339844-42.273437-64.339844-81.964844zm0 0" fill="#895247"/><path d="m189.195312 182.972656c7.027344-7.023437 15.460938-11.777344 24.394532-14.265625-18.734375-5.21875-39.664063-.464843-54.394532 14.265625l39.394532 39.394532 15-15zm0 0" fill="#57565c"/><path d="m37.5 68.871094v-31.074219l30.296875-30.296875h-30l-30.296875 30.296875v31.074219l40.609375 40.609375 15-15zm0 0" fill="#895247"/><path d="m60.925781 66.9375v-10.359375l10.832031-10.835937-4.820312-4.816407h-10.363281l-15.648438 15.652344v10.359375l24.859375 24.863281 10-10zm0 0" fill="#ffc477"/><path d="m325.375 65.785156 20.042969-20.042968-4.816407-4.816407h-10.363281l-24.863281 24.859375 26.015625 26.015625 10-10zm0 0" fill="#ffc477"/><path d="m139.203125 131.917969c-8.15625-8.160157-10.664063-19.832031-7.511719-30.148438l-12.488281-12.488281c-11.773437 11.773438-11.773437 30.863281 0 42.636719 8.472656 8.46875 20.726563 10.847656 31.320313 7.132812-4.132813-1.453125-8.015626-3.828125-11.320313-7.132812zm0 0" fill="#ff3f62"/><path d="m255.335938 131.917969 30.148437-30.148438c-1.394531-4.570312-3.898437-8.875-7.511719-12.488281l-42.636718 42.636719c8.46875 8.46875 20.722656 10.847656 31.316406 7.132812-4.132813-1.453125-8.011719-3.828125-11.316406-7.132812zm0 0" fill="#ff3f62"/><path d="m362.535156 0h-37.289062l-28.660156 28.664062 10.605468 10.605469 24.269532-24.269531h24.859374l25.902344 25.902344v24.863281l-24.269531 24.269531 10.609375 10.605469 28.660156-28.664063v-37.285156zm0 0"/><path d="m363.753906 70.046875v-16.574219l-20.046875-20.046875h-16.574219l-21.734374 21.730469-14.546876-14.546875h-184.480468l-14.570313 14.570313-21.753906-21.753907h-16.578125l-20.042969 20.046875v16.574219l21.753907 21.753906-14.570313 14.570313v313.773437c0 50.648438 41.207031 91.855469 91.855469 91.855469 16.269531 0 29.503906-13.234375 29.503906-29.503906v-5.03125c0-11.414063-6.683594-21.90625-17.023438-26.734375l-2.910156-1.359375c-34.65625-16.175782-57.046875-51.335938-57.046875-89.578125v-106.789063l9.882813 9.882813v7.808593l39.308594 39.308594h.125l25.925781 37.800782 25.929687-37.800782h24.855469l25.929687 37.800782 25.929688-37.800782h.171875l39.308594-39.308594v-7.808593l9.832031-9.835938v106.738281c0 38.242188-22.390625 73.40625-57.042969 89.582032l-2.910156 1.359375c-10.34375 4.824219-17.023437 15.316406-17.023437 26.730469v5.035156c0 16.269531 13.230468 29.5 29.5 29.5 50.648437 0 91.855468-41.207032 91.855468-91.855469v-313.769531l-14.546875-14.59375zm-30.410156-21.621094h4.148438l11.257812 11.257813v4.148437l-17.335938 17.339844-15.410156-15.410156zm-267.558594 32.769531-17.359375-17.363281v-4.148437l11.257813-11.257813h4.148437l17.363281 17.359375zm94.445313 240.089844-7.738281-11.28125h15.480468zm76.714843 0-7.742187-11.28125h15.480469zm50.40625-56.800781-30.519531 30.519531h-116.441406l-30.519531-30.519531v-59.804687l30.519531-30.523438h17.308594c-1.308594 1.113281-2.578125 2.285156-3.804688 3.515625l-5.304687 5.304687 42.5 42.496094v44.554688h15v-44.554688l42.496094-42.496094-5.304688-5.304687c-1.226562-1.230469-2.5-2.402344-3.808594-3.515625h17.359375l30.519531 30.523438zm-88.761718-52.722656-28.378906-28.378907c8.191406-5.992187 18.035156-9.226562 28.378906-9.226562 10.339844 0 20.183594 3.234375 28.375 9.226562zm143.023437-99.175781-.046875 307.558593c0 42.378907-34.476562 76.855469-76.855468 76.855469-7.996094 0-14.503907-6.507812-14.503907-14.503906v-5.03125c0-5.613282 3.285157-10.769532 8.367188-13.144532l2.910156-1.355468c39.914063-18.628906 65.703125-59.128906 65.703125-103.175782v-142.949218l-24.835938 24.832031v-43.207031l-39.304687-39.308594h-128.867187l-39.308594 39.308594v43.210937l-24.882813-24.882812v142.996093c0 44.046876 25.789063 84.546876 65.699219 103.175782l2.910156 1.355468c5.085938 2.375 8.371094 7.53125 8.371094 13.144532v5.03125c0 7.996094-6.507812 14.503906-14.503906 14.503906-42.378906 0-76.855469-34.480469-76.855469-76.855469v-307.558593l56.976563-56.976563h78.5v64.226563h15v-64.226563h78.550781zm0 0"/><path d="m113.902344 83.980469c-14.714844 14.714843-14.714844 38.527343 0 53.242187 14.679687 14.675782 38.5625 14.675782 53.242187 0l5.300781-5.304687-53.242187-53.242188zm36.429687 47.035156c-8.425781 4.039063-18.851562 2.574219-25.824219-4.402344-7.113281-7.113281-8.382812-17.574219-4.410156-25.828125zm0 0"/><path d="m277.972656 78.675781-53.242187 53.242188 5.300781 5.304687c14.683594 14.679688 38.5625 14.675782 53.242188 0 14.679687-14.679687 14.679687-38.5625 0-53.242187zm-5.304687 47.9375c-6.972657 6.976563-17.394531 8.441407-25.824219 4.402344l30.226562-30.226563c4.039063 8.429688 2.570313 18.851563-4.402343 25.824219zm0 0"/><path d="m298.640625 397.476562-10.605469-10.609374-44.90625 44.90625h-89.035156l-44.988281-44.988282-10.605469 10.609375 49.382812 49.378907h101.460938zm0 0"/><path d="m15 40.902344 25.902344-25.902344h24.859375l24.273437 24.269531 10.605469-10.605469-28.664063-28.664062h-37.285156l-34.691406 34.691406v37.285156l28.664062 28.664063 10.605469-10.605469-24.269531-24.269531zm0 0"/><g fill="#fff"><path d="m254.886719 282.808594-10.605469-10.609375 16.953125-16.949219 10.605469 10.605469zm22.46875-30.878906h-15v-15h15zm0-25h-15v-15h15zm0 0"/><path d="m331.617188 204.160156h-15v-34.324218h15zm0-44.324218h-15v-15h15zm0-25h-15v-15h15zm0 0"/><path d="m268.082031 486.914062-.746093-14.976562c8.179687-.410156 16.242187-2.796875 23.316406-6.90625l7.53125 12.972656c-9.132813 5.304688-19.542969 8.386719-30.101563 8.910156zm39.320313-15.351562-9.59375-11.53125c3.367187-2.800781 6.375-6.015625 8.9375-9.558594l12.152344 8.796875c-3.296876 4.554688-7.167969 8.691407-11.496094 12.292969zm17.300781-21.925781-13.449219-6.640625c1.933594-3.914063 3.359375-8.066406 4.242188-12.34375l14.691406 3.039062c-1.140625 5.519532-2.988281 10.882813-5.484375 15.945313zm0 0"/><path d="m278.476562 382.28125-10.605468-10.605469 19.316406-19.3125v-10.25h15v16.460938zm23.710938-50.171875h-15v-15h15zm0-25h-15v-15h15zm0 0"/></g></svg>