<svg height="512pt" viewBox="-26 0 512 512.0015" width="512pt" xmlns="http://www.w3.org/2000/svg"><path d="m439.230469 88.308594h-418.703125l9.097656-40.808594h400.507812zm0 0" fill="#c6c5ca"/><path d="m451.261719 169.039062h-442.765625l5.109375-40.808593h432.546875zm0 0" fill="#c6c5ca"/><path d="m439.230469 423.691406h-418.703125l9.097656 40.808594h400.507812zm0 0" fill="#c6c5ca"/><path d="m451.261719 342.957031h-442.765625l5.109375 40.808594h432.546875zm0 0" fill="#c6c5ca"/><path d="m434.222656 88.308594c2.621094 13.265625 4.929688 26.578125 6.925782 39.921875h-422.535157c1.992188-13.34375 4.300781-26.65625 6.921875-39.921875zm0 335.382812c2.621094-13.265625 4.929688-26.578125 6.925782-39.925781h-422.535157c1.992188 13.347656 4.300781 26.660156 6.921875 39.925781zm-420.722656-80.734375h432.757812c5.84375-57.824219 5.84375-116.09375 0-173.917969h-432.757812c-5.84375 57.824219-5.84375 116.09375 0 173.917969zm21.132812 121.542969c3.324219 13.390625 6.972657 26.726562 10.949219 39.984375l.003907.015625h368.585937l.003906-.015625c3.980469-13.257813 7.625-26.59375 10.953125-39.984375zm390.496094-417c-3.328125-13.398438-6.976562-26.734375-10.957031-40h-368.585937c-3.976563 13.265625-7.625 26.601562-10.953126 40zm0 0" fill="#b77062"/><path d="m29.625 47.5-9.097656 40.808594h30l9.097656-40.808594zm0 0" fill="#898890"/><path d="m13.605469 128.230469-5.109375 40.808593h30l5.109375-40.808593zm0 0" fill="#898890"/><path d="m20.527344 423.691406 9.097656 40.808594h30l-9.097656-40.808594zm0 0" fill="#898890"/><path d="m8.496094 342.957031 5.109375 40.808594h30l-5.109375-40.808594zm0 0" fill="#898890"/><g fill="#895247"><path d="m55.535156 88.308594h-30c-2.621094 13.265625-4.929687 26.578125-6.921875 39.921875h30c1.992188-13.34375 4.300781-26.65625 6.921875-39.921875zm0 0"/><path d="m75.585938 7.5h-30c-3.980469 13.265625-7.625 26.601562-10.953126 40h30c3.328126-13.398438 6.972657-26.734375 10.953126-40zm0 0"/><path d="m64.628906 464.5h-30c3.328125 13.390625 6.976563 26.726562 10.953125 39.984375l.003907.015625h30l-.003907-.015625c-3.976562-13.257813-7.625-26.59375-10.953125-39.984375zm0 0"/><path d="m48.613281 383.765625h-30c1.992188 13.347656 4.300781 26.660156 6.921875 39.925781h30c-2.621094-13.265625-4.929687-26.578125-6.921875-39.925781zm0 0"/><path d="m43.5 169.039062h-30c-5.84375 57.824219-5.84375 116.09375 0 173.917969h30c-5.84375-57.824219-5.84375-116.09375 0-173.917969zm0 0"/></g><path d="m364.957031 176.539062h94.800781l-6.984374-55.808593h-5.1875c-1.304688-8.300781-2.738282-16.636719-4.285157-24.921875h5.285157l-12.441407-55.808594h-85.070312c-1.261719-8.375-2.597657-16.734375-3.996094-25h61.496094c1.40625 4.804688 2.78125 9.65625 4.101562 14.480469l14.46875-3.960938c-3.101562-11.320312-5.4375-19.003906-7.390625-25.519531h-379.75c-1.964844 6.5625-4.296875 14.230469-7.386718 25.519531l14.46875 3.960938c1.320312-4.824219 2.695312-9.675781 4.101562-14.480469h61.476562c-1.410156 8.320312-2.75 16.683594-4.003906 25h-85.046875l-12.441406 55.808594h5.285156c-1.546875 8.28125-2.976562 16.621094-4.285156 24.921875h-5.1875l-6.984375 55.808593h94.773438c-2.839844 52.769532-2.839844 106.152344 0 158.917969h-94.773438l6.984375 55.808594h5.1875c1.304687 8.304687 2.738281 16.640625 4.285156 24.925781h-5.285156l12.441406 55.808594h85.046875c1.253906 8.316406 2.59375 16.679688 4.003906 25h-61.476562c-1.40625-4.796875-2.777344-9.648438-4.101562-14.480469l-14.46875 3.960938c3.222656 11.773437 5.515624 19.296875 7.429687 25.519531 10.828125 0 370.6875.007812 379.875-.011719 2.84375-10.558593 3.277344-11.101562 7.21875-25.507812l-14.46875-3.960938c-1.320313 4.824219-2.691406 9.675781-4.101563 14.480469h-61.496093c1.398437-8.238281 2.734375-16.601562 3.996093-25h85.074219l12.441407-55.808594h-5.285157c1.546875-8.285156 2.976563-16.621094 4.28125-24.921875h5.191407l6.984374-55.808593h-94.800781c2.851563-52.765626 2.851563-106.148438 0-158.921876zm-15.019531 158.917969h-112.566406v-158.917969h112.566406c2.875 52.769532 2.875 106.160157 0 158.917969zm82.460938-214.726562h-71.523438c-.765625-8.261719-1.609375-16.601563-2.527344-24.921875h69.6875c1.574219 8.273437 3.035156 16.613281 4.363282 24.921875zm-210.027344-24.921875v24.921875h-108.449219c.78125-8.320313 1.636719-16.65625 2.5625-24.921875zm15 0h105.882812c.925782 8.316406 1.78125 16.652344 2.554688 24.921875h-108.4375zm98.53125-55.808594h-98.53125v-25h94.488281c1.417969 8.253906 2.769531 16.617188 4.042969 25zm-208.023438-25h94.492188v25h-98.539063c1.269531-8.328125 2.621094-16.691406 4.046875-25zm-92.242187 40h388.484375l5.753906 25.808594h-399.992188zm-3.914063 40.808594h69.667969c-.917969 8.273437-1.765625 16.609375-2.535156 24.921875h-71.492188c1.328125-8.3125 2.785157-16.648438 4.359375-24.921875zm-11.496094 39.921875h419.308594l3.230469 25.808593h-425.769531zm89.570313 40.808593h112.574219v158.917969h-112.574219c-2.871094-52.761719-2.871094-106.152343 0-158.917969zm-82.433594 214.726563h71.496094c.769531 8.316406 1.613281 16.652344 2.53125 24.925781h-69.667969c-1.574218-8.273437-3.03125-16.613281-4.359375-24.925781zm210.007813 24.925781v-24.925781h108.4375c-.773438 8.269531-1.628906 16.609375-2.554688 24.925781zm-15 0h-105.886719c-.925781-8.265625-1.785156-16.605468-2.5625-24.925781h108.449219zm-98.539063 55.808594h98.539063v25h-94.492188c-1.425781-8.3125-2.777344-16.675781-4.046875-25zm208.027344 25h-94.488281v-25h98.53125c-1.277344 8.40625-2.632813 16.773438-4.042969 25zm92.261719-40h-388.484375l-5.753907-25.808594h399.992188zm3.914062-40.808594h-69.6875c.914063-8.320312 1.761719-16.660156 2.527344-24.925781h71.523438c-1.328126 8.3125-2.789063 16.652344-4.363282 24.925781zm11.5-39.925781h-419.308594l-3.230468-25.808594h425.769531zm0 0"/><path d="m44.132812 60.402344h15v15h-15zm0 0"/><path d="m74.132812 60.402344h15v15h-15zm0 0"/><path d="m104.132812 60.402344h15v15h-15zm0 0"/><path d="m134.132812 60.402344h15v15h-15zm0 0"/><path d="m164.132812 60.402344h15v15h-15zm0 0"/><path d="m194.132812 60.402344h15v15h-15zm0 0"/><path d="m224.132812 60.402344h15v15h-15zm0 0"/><path d="m254.132812 60.402344h15v15h-15zm0 0"/><path d="m284.132812 60.402344h15v15h-15zm0 0"/><path d="m314.132812 60.402344h15v15h-15zm0 0"/><path d="m344.132812 60.402344h15v15h-15zm0 0"/><path d="m374.132812 60.402344h15v15h-15zm0 0"/><path d="m404.132812 60.402344h15v15h-15zm0 0"/><path d="m44.132812 141.136719h15v15h-15zm0 0"/><path d="m74.132812 141.136719h15v15h-15zm0 0"/><path d="m104.132812 141.136719h15v15h-15zm0 0"/><path d="m134.132812 141.136719h15v15h-15zm0 0"/><path d="m164.132812 141.136719h15v15h-15zm0 0"/><path d="m194.132812 141.136719h15v15h-15zm0 0"/><path d="m224.132812 141.136719h15v15h-15zm0 0"/><path d="m254.132812 141.136719h15v15h-15zm0 0"/><path d="m284.132812 141.136719h15v15h-15zm0 0"/><path d="m314.132812 141.136719h15v15h-15zm0 0"/><path d="m344.132812 141.136719h15v15h-15zm0 0"/><path d="m374.132812 141.136719h15v15h-15zm0 0"/><path d="m404.132812 141.136719h15v15h-15zm0 0"/><path d="m44.132812 355.863281h15v15h-15zm0 0"/><path d="m74.132812 355.863281h15v15h-15zm0 0"/><path d="m104.132812 355.863281h15v15h-15zm0 0"/><path d="m134.132812 355.863281h15v15h-15zm0 0"/><path d="m164.132812 355.863281h15v15h-15zm0 0"/><path d="m194.132812 355.863281h15v15h-15zm0 0"/><path d="m224.132812 355.863281h15v15h-15zm0 0"/><path d="m254.132812 355.863281h15v15h-15zm0 0"/><path d="m284.132812 355.863281h15v15h-15zm0 0"/><path d="m314.132812 355.863281h15v15h-15zm0 0"/><path d="m344.132812 355.863281h15v15h-15zm0 0"/><path d="m374.132812 355.863281h15v15h-15zm0 0"/><path d="m404.132812 355.863281h15v15h-15zm0 0"/><path d="m44.132812 436.59375h15v15h-15zm0 0"/><path d="m74.132812 436.59375h15v15h-15zm0 0"/><path d="m104.132812 436.59375h15v15h-15zm0 0"/><path d="m134.132812 436.59375h15v15h-15zm0 0"/><path d="m164.132812 436.59375h15v15h-15zm0 0"/><path d="m194.132812 436.59375h15v15h-15zm0 0"/><path d="m224.132812 436.59375h15v15h-15zm0 0"/><path d="m254.132812 436.59375h15v15h-15zm0 0"/><path d="m284.132812 436.59375h15v15h-15zm0 0"/><path d="m314.132812 436.59375h15v15h-15zm0 0"/><path d="m344.132812 436.59375h15v15h-15zm0 0"/><path d="m374.132812 436.59375h15v15h-15zm0 0"/><path d="m404.132812 436.59375h15v15h-15zm0 0"/><path d="m455.523438 323.539062c3.480468-44.816406 3.480468-90.261718 0-135.078124l-14.953126 1.160156c3.417969 44.046875 3.417969 88.710937 0 132.757812zm0 0"/><path d="m4.234375 188.460938c-3.480469 44.816406-3.480469 90.261718 0 135.078124l14.957031-1.160156c-3.421875-44.046875-3.421875-88.710937 0-132.757812zm0 0"/><path d="m430.832031 318.511719-14.960937-1.105469c1.5-20.324219 2.261718-40.984375 2.261718-61.40625 0-3.972656-.027343-7.980469-.085937-11.90625l15-.214844c.054687 4 .085937 8.078125.085937 12.121094 0 20.789062-.773437 41.820312-2.300781 62.511719zm-12.984375-84.328125c-.125-4.921875-.300781-9.921875-.519531-14.855469l14.984375-.660156c.222656 5.023437.398438 10.113281.53125 15.125zm-1.015625-24.757813c-.273437-4.90625-.59375-9.898437-.960937-14.832031l14.960937-1.105469c.371094 5.023438.699219 10.105469.980469 15.105469zm0 0" fill="#fff"/><path d="m340.785156 318.277344-14.988281-.636719c.867187-20.421875 1.308594-41.164063 1.308594-61.640625 0-3.972656-.019531-7.945312-.050781-11.917969l15-.121093c.03125 4.011718.046874 8.023437.050781 12.039062-.003907 20.691406-.445313 41.644531-1.320313 62.277344zm-13.847656-84.144532c-.074219-4.964843-.175781-9.984374-.300781-14.917968l14.996093-.378906c.125 4.984374.230469 10.054687.304688 15.074218zm-.585938-24.863281c-.160156-4.964843-.34375-9.984375-.554687-14.910156l14.984375-.636719c.210938 4.980469.402344 10.046875.5625 15.066406zm0 0" fill="#fff"/></svg>