<svg height="511pt" viewBox="0 0 511.99979 511" width="511pt" xmlns="http://www.w3.org/2000/svg"><path d="m151.097656 282.355469-141.246094 202.1875c-3.609374 5.167969-2.992187 12.183593 1.464844 16.640625 4.457032 4.457031 11.472656 5.074218 16.640625 1.464844l202.1875-141.246094zm0 0" fill="#b77062"/><path d="m351.308594 53.597656c-6.140625 6.136719-13.78125 8.886719-20.484375 5.660156l-21.796875 24.917969c1.371094 1.078125 2.511718 2.066407 3.355468 2.910157 7.5625 7.5625 5.144532 17.40625-2.417968 24.96875s-17.40625 9.980468-24.96875 2.417968c-.394532-.394531-.820313-.851562-1.269532-1.367187l-9.351562 10.6875c-3.902344 4.464843-7.78125 8.945312-11.640625 13.449219l112.523437 112.519531c4.5-3.855469 8.984376-7.734375 13.449219-11.640625l10.6875-9.347656c-.515625-.449219-.976562-.875-1.367187-1.269532-7.5625-7.5625-5.148438-17.40625 2.417968-24.96875 7.5625-7.5625 17.40625-9.980468 24.96875-2.417968.84375.84375 1.832032 1.984374 2.90625 3.355468l24.921876-21.796875c-3.226563-6.707031-.476563-14.347656 5.660156-20.484375 6.136718-6.136718 13.777344-8.886718 20.480468-5.660156 7.355469-13.964844 5.257813-31.746094-6.613281-43.617188l-72.183593-72.183593c-11.875-11.875-29.652344-13.96875-43.617188-6.613281 3.222656 6.703124.476562 14.34375-5.660156 20.480468zm0 0" fill="#b77062"/><path d="m232.394531 173.65625c-5.1875 6.398438-10.324219 12.832031-15.417969 19.304688 1.464844 1.144531 2.679688 2.191406 3.570313 3.078124 7.5625 7.5625 5.144531 17.410157-2.417969 24.972657-7.488281 7.488281-17.214844 9.929687-24.75 2.632812-4.898437 6.523438-9.753906 13.078125-14.5625 19.671875l90.367188 90.367188c6.589844-4.808594 13.148437-9.664063 19.671875-14.5625-7.296875-7.535156-4.855469-17.261719 2.632812-24.75 7.5625-7.5625 17.410157-9.980469 24.972657-2.417969.886718.890625 1.933593 2.105469 3.074218 3.570313 6.472656-5.09375 12.910156-10.234376 19.308594-15.417969zm0 0" fill="#b77062"/><path d="m288.503906 243.996094c-7.5625-7.5625-19.824218-7.5625-27.390625 0-7.5625 7.5625-7.5625 19.824218 0 27.386718 7.566407 7.5625 19.828125 7.5625 27.390625 0s7.5625-19.824218 0-27.386718zm0 0" fill="#895247"/><path d="m388.898438 143.601562c-7.5625-7.5625-19.824219-7.5625-27.390626 0-7.5625 7.5625-7.5625 19.824219 0 27.390626 7.566407 7.5625 19.828126 7.5625 27.390626 0 7.5625-7.566407 7.5625-19.828126 0-27.390626zm0 0" fill="#895247"/><path d="m438.796875 93.703125c-7.5625-7.5625-19.824219-7.5625-27.386719 0s-7.5625 19.824219 0 27.386719 19.824219 7.5625 27.386719 0 7.5625-19.824219 0-27.386719zm0 0" fill="#895247"/><g fill="#c6c5ca"><path d="m341.351562 282.613281-112.320312-112.320312 29.953125-36.800781 120.023437 120.023437zm0 0"/><path d="m240.6875 371.941406-100.132812-100.128906 29.101562-37.65625 108.6875 108.6875zm0 0"/><path d="m268.5 243.996094c-7.5625-7.5625-19.824219-7.5625-27.386719 0-7.566406 7.5625-7.566406 19.824218 0 27.386718 7.5625 7.5625 19.824219 7.5625 27.386719 0s7.5625-19.824218 0-27.386718zm0 0"/><path d="m218.128906 221.011719c-7.5625 7.5625-17.40625 9.976562-24.96875 2.414062-7.566406-7.5625-26.535156-38.796875-18.972656-46.359375s38.796875 11.410156 46.359375 18.972656 5.144531 17.40625-2.417969 24.972657zm0 0"/><path d="m291.488281 294.371094c-7.5625 7.5625-9.980469 17.40625-2.414062 24.96875 7.5625 7.5625 38.792969 26.535156 46.355469 18.972656 7.566406-7.5625-11.40625-38.796875-18.96875-46.359375s-17.410157-5.144531-24.972657 2.417969zm0 0"/><path d="m368.894531 143.601562c-7.5625-7.5625-19.824219-7.5625-27.386719 0-7.566406 7.5625-7.566406 19.824219 0 27.390626 7.5625 7.5625 19.824219 7.5625 27.386719 0 7.5625-7.566407 7.5625-19.828126 0-27.390626zm0 0"/><path d="m309.964844 112.058594c-7.5625 7.5625-17.40625 9.976562-24.96875 2.414062s-26.535156-38.796875-18.972656-46.359375 38.796874 11.410157 46.359374 18.972657 5.144532 17.40625-2.417968 24.972656zm0 0"/><path d="m400.441406 202.535156c-7.5625 7.5625-9.980468 17.40625-2.414062 24.96875 7.5625 7.5625 38.792968 26.535156 46.355468 18.972656 7.566407-7.566406-11.40625-38.796874-18.96875-46.359374s-17.410156-5.144532-24.972656 2.417968zm0 0"/><path d="m418.792969 93.703125c-7.5625-7.5625-19.824219-7.5625-27.386719 0s-7.5625 19.824219 0 27.386719 19.824219 7.5625 27.386719 0 7.5625-19.824219 0-27.386719zm0 0"/><path d="m351.308594 53.597656c-7.566406 7.5625-17.410156 9.980469-24.972656 2.414063-7.5625-7.5625-26.535157-38.792969-18.96875-46.355469 7.5625-7.5625 38.792968 11.40625 46.355468 18.96875s5.148438 17.410156-2.414062 24.972656zm0 0"/><path d="m458.902344 161.191406c-7.566406 7.5625-9.980469 17.410156-2.417969 24.972656s38.796875 26.53125 46.359375 18.96875-11.410156-38.796874-18.972656-46.359374-17.40625-5.144532-24.96875 2.417968zm0 0"/><path d="m452.835938 91.980469c8.921874-8.921875 31.308593-45.777344 22.382812-54.703125-8.921875-8.921875-45.777344 13.464844-54.699219 22.386718zm0 0"/></g><path d="m39.855469 484.542969 128.90625-184.523438-17.664063-17.664062-141.246094 202.1875c-3.609374 5.167969-2.992187 12.183593 1.464844 16.640625 4.457032 4.457031 11.472656 5.074218 16.640625 1.464844l10.070313-7.039063c-1.0625-3.671875-.488282-7.75 1.828125-11.066406zm0 0" fill="#895247"/><path d="m292.742188 137.242188c3.855468-4.5 7.734374-8.984376 11.640624-13.449219l9.347657-10.6875c.449219.515625.875.976562 1.269531 1.367187 7.5625 7.5625 17.40625 5.144532 24.96875-2.417968 7.566406-7.5625 9.980469-17.40625 2.417969-24.96875-.84375-.84375-1.984375-1.832032-3.355469-2.90625l21.796875-24.921876c6.707031 3.226563 14.347656.476563 20.484375-5.660156 6.136719-6.136718 8.886719-13.777344 5.660156-20.480468.765625-.402344 1.542969-.777344 2.332032-1.125-10.351563-4.5625-22.324219-4.148438-32.335938 1.125 3.222656 6.703124.476562 14.34375-5.660156 20.480468-6.140625 6.136719-13.78125 8.886719-20.484375 5.660156l-21.796875 24.921876c1.371094 1.074218 2.511718 2.0625 3.355468 2.90625 7.5625 7.5625 5.144532 17.40625-2.417968 24.96875s-17.40625 9.980468-24.96875 2.417968c-.394532-.394531-.820313-.851562-1.269532-1.367187l-9.351562 10.6875c-3.902344 4.464843-7.78125 8.945312-11.640625 13.449219l112.523437 112.523437c4.5-3.859375 8.984376-7.738281 13.449219-11.640625l2.621094-2.296875zm0 0" fill="#895247"/><path d="m208.820312 243.316406c4.808594-6.59375 9.664063-13.148437 14.5625-19.671875 7.535157 7.296875 17.261719 4.855469 24.75-2.632812 7.5625-7.5625 9.980469-17.410157 2.417969-24.972657-.890625-.886718-2.105469-1.933593-3.570312-3.078124.691406-.878907 1.386719-1.757813 2.082031-2.636719l-16.667969-16.667969c-5.1875 6.398438-10.324219 12.832031-15.417969 19.304688 1.464844 1.144531 2.679688 2.191406 3.570313 3.078124 7.5625 7.5625 5.144531 17.410157-2.417969 24.972657-7.488281 7.488281-17.214844 9.929687-24.75 2.632812-4.898437 6.523438-9.753906 13.078125-14.5625 19.671875l90.367188 90.367188c5.777344-4.214844 11.53125-8.464844 17.253906-12.753906zm0 0" fill="#895247"/><path d="m259.035156 170.292969 16.488282-20.261719-16.539063-16.539062-29.953125 36.800781 112.320312 112.320312 16.925782-13.078125zm0 0" fill="#898890"/><path d="m170.5625 271.8125 16.019531-20.730469-16.925781-16.925781-29.101562 37.65625 100.132812 100.128906 16.925781-13.078125zm0 0" fill="#898890"/><path d="m261.117188 271.382812c-7.5625-7.5625-7.5625-19.824218 0-27.386718 1.136718-1.136719 2.378906-2.101563 3.695312-2.894532-7.449219-4.5-17.269531-3.53125-23.695312 2.894532-7.566407 7.5625-7.566407 19.824218 0 27.386718 6.425781 6.425782 16.246093 7.394532 23.695312 2.894532-1.316406-.792969-2.558594-1.757813-3.695312-2.894532zm0 0" fill="#898890"/><path d="m213.160156 223.425781c-7.054687-7.054687-24.046875-34.722656-20.140625-44.535156-8.132812-3.460937-15.617187-5.035156-18.832031-1.824219-7.5625 7.566406 11.410156 38.796875 18.972656 46.359375 6.292969 6.296875 14.171875 5.675781 20.996094.925781-.335938-.289062-.667969-.597656-.996094-.925781zm0 0" fill="#898890"/><path d="m309.074219 319.339844c-7.5625-7.5625-5.144531-17.40625 2.417969-24.96875 1.265624-1.265625 2.597656-2.390625 3.96875-3.34375-7.414063-6.417969-16.738282-3.890625-23.972657 3.34375-7.5625 7.5625-9.980469 17.40625-2.417969 24.96875 7.566407 7.5625 38.796876 26.535156 46.359376 18.972656.507812-.507812.894531-1.121094 1.171874-1.824219-11-4.675781-23.175781-12.796875-27.527343-17.148437zm0 0" fill="#898890"/><path d="m361.511719 170.988281c-7.5625-7.5625-7.5625-19.824219 0-27.386719 1.136719-1.136718 2.378906-2.101562 3.691406-2.894531-7.445313-4.5-17.265625-3.53125-23.695313 2.894531-7.5625 7.5625-7.5625 19.824219 0 27.386719 6.429688 6.425781 16.25 7.390625 23.695313 2.894531-1.3125-.792968-2.554687-1.757812-3.691406-2.894531zm0 0" fill="#898890"/><path d="m304.996094 114.472656c-7.054688-7.054687-24.046875-34.722656-20.144532-44.535156-8.128906-3.460938-15.617187-5.035156-18.828124-1.824219-7.566407 7.566407 11.40625 38.796875 18.96875 46.359375 6.296874 6.296875 14.175781 5.675782 21 .925782-.335938-.289063-.667969-.597657-.996094-.925782zm0 0" fill="#898890"/><path d="m418.027344 227.503906c-7.5625-7.5625-5.144532-17.40625 2.417968-24.96875 1.265626-1.265625 2.597657-2.390625 3.972657-3.347656-7.417969-6.414062-16.742188-3.890625-23.976563 3.347656-7.5625 7.5625-9.980468 17.40625-2.417968 24.96875 7.566406 7.5625 38.796874 26.535156 46.359374 18.972656.507813-.507812.894532-1.121093 1.171876-1.824218-11-4.675782-23.175782-12.796875-27.527344-17.148438zm0 0" fill="#898890"/><path d="m411.414062 121.089844c-7.5625-7.566406-7.5625-19.824219 0-27.390625 1.136719-1.132813 2.375-2.097657 3.691407-2.894531-7.445313-4.496094-17.269531-3.53125-23.695313 2.894531-7.5625 7.566406-7.5625 19.824219 0 27.390625 6.429688 6.425781 16.25 7.390625 23.695313 2.894531-1.316407-.796875-2.554688-1.761719-3.691407-2.894531zm0 0" fill="#898890"/><path d="m346.339844 56.015625c-7.058594-7.058594-24.046875-34.726563-20.144532-44.539063-8.128906-3.457031-15.617187-5.035156-18.832031-1.820312-7.5625 7.5625 11.410157 38.796875 18.972657 46.359375 6.292968 6.296875 14.171874 5.675781 21 .925781-.335938-.289062-.667969-.597656-.996094-.925781zm0 0" fill="#898890"/><path d="m476.488281 186.164062c-7.5625-7.566406-5.144531-17.410156 2.417969-24.972656 1.265625-1.265625 2.597656-2.390625 3.96875-3.34375-7.414062-6.417968-16.738281-3.890625-23.972656 3.34375-7.5625 7.5625-9.980469 17.410156-2.417969 24.972656s38.796875 26.53125 46.359375 18.96875c.503906-.503906.890625-1.117187 1.171875-1.820312-11-4.679688-23.179687-12.800781-27.527344-17.148438zm0 0" fill="#898890"/><path d="m440.523438 59.664062c5.527343-5.527343 21.777343-16.222656 35.460937-21.441406-.222656-.34375-.476563-.65625-.765625-.945312-8.921875-8.921875-45.777344 13.464844-54.699219 22.386718l32.316407 32.316407c2.269531-2.269531 5.410156-6.347657 8.6875-11.316407zm0 0" fill="#898890"/><path d="m259.230469 179.417969 10.609375-10.605469 10.605468 10.605469-10.609374 10.609375zm0 0"/><path d="m280.441406 200.621094 10.609375-10.609375 10.609375 10.605469-10.605468 10.609374zm0 0"/><path d="m301.660156 221.855469 10.609375-10.609375 10.609375 10.609375-10.609375 10.605469zm0 0"/><path d="m322.878906 243.070312 10.609375-10.609374 10.605469 10.609374-10.605469 10.609376zm0 0"/><path d="m165.308594 273.351562 10.605468-10.609374 10.609376 10.609374-10.609376 10.609376zm0 0"/><path d="m186.523438 294.570312 10.609374-10.609374 10.609376 10.609374-10.609376 10.609376zm0 0"/><path d="m207.742188 315.769531 10.609374-10.605469 10.609376 10.605469-10.609376 10.609375zm0 0"/><path d="m228.957031 337.007812 10.609375-10.609374 10.605469 10.609374-10.605469 10.605469zm0 0"/><path d="m130.585938 272.449219 109.460937 109.464843 49.628906-38.347656-120.742187-120.742187zm136.425781 69.671875-25.691407 19.851562-90.792968-90.796875 19.851562-25.6875zm0 0"/><path d="m273.808594 276.6875c10.496094-10.5 10.5-27.492188 0-37.996094-10.503906-10.5-27.496094-10.5-37.996094 0-10.503906 10.503906-10.503906 27.496094 0 37.996094 10.5 10.5 27.492188 10.5 37.996094 0zm-27.390625-27.386719c4.625-4.625 12.15625-4.628906 16.78125 0 4.625 4.625 4.625 12.152344 0 16.777344-4.625 4.628906-12.152344 4.628906-16.78125 0-4.625-4.625-4.625-12.152344 0-16.777344zm0 0"/><path d="m187.855469 228.730469c9.582031 9.582031 23.835937 9.324219 35.578125-2.417969 11.363281-11.363281 12.335937-25.660156 2.417968-35.578125-4.769531-4.769531-15.601562-11.902344-25.191406-16.589844-15.433594-7.550781-25.832031-8.328125-31.777344-2.382812-5.945312 5.949219-5.167968 16.34375 2.378907 31.78125 4.691406 9.589843 11.824219 20.417969 16.59375 25.1875zm8.566406-39.921875c8.222656 4.289062 16.027344 9.742187 18.820313 12.535156 1.910156 1.910156 2.652343 3.867188 2.335937 6.148438-.746094 5.375-7.585937 12.21875-12.964844 12.96875-2.28125.316406-4.238281-.425782-6.152343-2.339844-2.792969-2.792969-8.242188-10.597656-12.535157-18.820313-4.652343-8.921875-5.859375-14.160156-5.992187-16.484375 2.328125.132813 7.566406 1.339844 16.488281 5.992188zm0 0"/><path d="m286.183594 289.066406c-11.6875 11.691406-11.992188 26.003906-2.417969 35.578125 4.519531 4.515625 29.554687 22.824219 46.402344 22.824219 4.167969 0 7.835937-1.121094 10.566406-3.851562 13.761719-13.761719-13.339844-51.335938-18.972656-56.96875-9.617188-9.621094-23.941407-9.21875-35.578125 2.417968zm43.5 43.496094c-9.089844-.511719-29.578125-12.796875-35.308594-18.527344-1.910156-1.910156-2.652344-3.863281-2.335938-6.148437.78125-5.644531 8.355469-13.035157 13.964844-13.035157 1.863282 0 3.523438.777344 5.148438 2.40625 5.730468 5.726563 18.019531 26.210938 18.53125 35.304688zm0 0"/><path d="m336.207031 138.296875c-10.5 10.5-10.5 27.492187 0 37.996094 10.5 10.5 27.492188 10.5 37.996094 0 10.496094-10.5 10.5-27.496094 0-37.996094-10.503906-10.5-27.496094-10.5-37.996094 0zm27.386719 27.386719c-4.625 4.628906-12.152344 4.628906-16.777344 0-4.628906-4.625-4.628906-12.152344 0-16.777344 4.625-4.628906 12.152344-4.628906 16.777344 0 4.625 4.625 4.625 12.152344 0 16.777344zm0 0"/><path d="m411.894531 188.222656c-5.886719.816406-11.683593 3.933594-16.757812 9.007813s-8.1875 10.867187-9.003907 16.757812c-.683593 4.902344.292969 9.683594 2.769532 13.910157l-13.296875 11.605468-102.53125-102.535156 11.859375-13.179688c10.355468 5.835938 21.925781 1.980469 30.335937-6.425781 11.707031-11.710937 11.976563-26.023437 2.417969-35.582031-5.636719-5.632812-43.207031-32.726562-56.96875-18.96875-11.046875 11.046875 4.238281 37.433594 13.609375 50.332031l-11.878906 13.203125-4.035157-4.039062-39.476562 48.5 121.777344 121.777344 49.625-38.347657-4.101563-4.105469 13.441407-11.730468c9.765624 7.050781 26.878906 17.226562 39.441406 17.226562 4.167968 0 7.835937-1.121094 10.566406-3.851562 13.761719-13.757813-13.335938-51.332032-18.96875-56.964844-5.210938-5.210938-11.894531-7.550781-18.824219-6.589844zm-104.816406-95.832031c1.910156 1.910156 2.652344 3.867187 2.335937 6.148437-.746093 5.378907-7.585937 12.21875-12.964843 12.96875-2.28125.316407-4.238281-.425781-6.152344-2.339843-5.71875-5.714844-18.011719-26.203125-18.523437-35.304688 9.089843.511719 29.582031 12.800781 35.304687 18.527344zm34.910156 180.25-102.867187-102.863281 20.433594-25.105469 108.121093 108.117187zm96.644531-31.914063c-9.089843-.511718-29.582031-12.800781-35.304687-18.527343-1.910156-1.910157-2.652344-3.863281-2.335937-6.148438.78125-5.628906 8.347656-13.035156 13.960937-13.035156 1.867187 0 3.527344.78125 5.152344 2.40625 5.722656 5.714844 18.015625 26.203125 18.527343 35.304687zm0 0"/><path d="m386.105469 88.398438c-10.5 10.5-10.5 27.492187 0 37.996093 10.5 10.496094 27.496093 10.5 37.996093 0 10.5-10.503906 10.5-27.496093 0-37.996093s-27.492187-10.503907-37.996093 0zm27.386719 27.386718c-4.625 4.628906-12.152344 4.628906-16.777344 0-4.625-4.625-4.625-12.152344 0-16.777344 4.625-4.628906 12.152344-4.628906 16.777344 0 4.628906 4.625 4.628906 12.152344 0 16.777344zm0 0"/><path d="m356.609375 58.902344c11.707031-11.707032 11.980469-26.015625 2.417969-35.578125-5.632813-5.632813-43.207032-32.730469-56.96875-18.972657-13.757813 13.761719 13.339844 51.332032 18.972656 56.96875 9.554688 9.550782 23.867188 9.292969 35.578125-2.417968zm-43.496094-43.5c9.085938.511718 29.578125 12.800781 35.304688 18.527344 1.914062 1.914062 2.65625 3.867187 2.339843 6.148437-.746093 5.378906-7.585937 12.222656-12.96875 12.96875-2.28125.316406-4.234374-.425781-6.148437-2.339844-5.726563-5.726562-18.015625-26.207031-18.527344-35.304687zm0 0"/><path d="m489.175781 153.46875c-5.210937-5.207031-11.898437-7.550781-18.820312-6.589844-5.890625.820313-11.683594 3.933594-16.757813 9.007813-5.074218 5.074219-8.191406 10.871093-9.007812 16.757812-.960938 6.925781 1.378906 13.609375 6.589844 18.820313 4.515624 4.515625 29.554687 22.824218 46.402343 22.824218 4.167969 0 7.835938-1.121093 10.566407-3.851562 13.761718-13.757812-13.339844-51.332031-18.972657-56.96875zm-27.386719 27.386719c-1.914062-1.910157-2.65625-3.863281-2.339843-6.148438.785156-5.644531 8.359375-13.035156 13.964843-13.035156 1.867188 0 3.527344.78125 5.152344 2.40625 5.730469 5.730469 18.015625 26.210937 18.527344 35.308594-9.085938-.511719-29.578125-12.800781-35.304688-18.53125zm0 0"/><path d="m467.464844 117.21875c5.09375 5.09375 8.15625 11.847656 8.625 19.015625l14.972656-.980469c-.707031-10.804687-5.320312-20.976562-12.988281-28.644531l-72.1875-72.183594c-7.671875-7.675781-17.855469-12.289062-28.664063-12.992187l-.972656 14.972656c7.175781.464844 13.933594 3.53125 19.027344 8.628906zm0 0"/><path d="m469.765625 42.734375c.40625 2.917969-1.753906 12.882813-11.460937 28.976563l12.847656 7.75c9.757812-16.179688 19.308594-37.550782 9.371094-47.488282s-31.308594-.386718-47.484376 9.375l7.75 12.847656c16.09375-9.710937 26.0625-11.875 28.976563-11.460937zm0 0"/><path d="m23.660156 496.496094c-2.191406 1.53125-5.152344 1.269531-7.039062-.617188-1.890625-1.890625-2.148438-4.851562-.621094-7.039062l129.613281-185.535156-12.296875-8.589844-129.613281 185.53125c-5.703125 8.164062-4.730469 19.199218 2.308594 26.238281 7.042969 7.042969 18.078125 8.011719 26.238281 2.3125l185.535156-129.613281-8.589844-12.296875zm0 0"/><path d="m73.382812 449.5625-8.59375-12.300781 81.289063-56.785157 8.589844 12.300782zm89.484376-62.515625-8.589844-12.296875 12.296875-8.59375 8.59375 12.300781zm20.5-14.320313-8.59375-12.296874 12.300781-8.59375 8.589843 12.300781zm0 0" fill="#fff"/></svg>