<svg height="512pt" viewBox="0 -27 512 512" width="512pt" xmlns="http://www.w3.org/2000/svg"><path d="m163.214844 237.917969 24.273437-24.269531 57.09375 57.09375-24.273437 24.269531zm0 0" fill="#ffb655"/><path d="m10.832031 390.304688 24.269531-24.273438 57.09375 57.09375-24.269531 24.273438zm0 0" fill="#ffb655"/><path d="m35.101562 366.03125 128.113282-128.113281 57.09375 57.09375-128.113282 128.113281zm0 0" fill="#b77062"/><path d="m377.066406 36.546875-183.335937 183.339844 23.003906 23.003906 218.871094-218.871094zm0 0" fill="#787680"/><path d="m499.40625 10.367188-63.800781 13.652343-218.871094 218.871094 21.304687 21.304687c15.453126-15.457031 40.511719-15.457031 55.96875 0l104.042969-104.042968c43.015625-43.019532 77.417969-93.859375 101.355469-149.785156zm0 0" fill="#c6c5ca"/><path d="m419.792969 423.128906 57.09375-57.09375 24.273437 24.269532-57.09375 57.09375zm0 0" fill="#ffb655"/><path d="m291.683594 295.015625 57.09375-57.09375 128.113281 128.113281-57.09375 57.09375zm0 0" fill="#b77062"/><path d="m256 157.613281-121.066406-121.066406-58.539063-12.527344 156.597657 156.601563zm0 0" fill="#787680"/><path d="m187.492188 213.648438 6.238281 6.238281 39.261719-39.265625-156.597657-156.601563-63.800781-13.652343c23.9375 55.925781 58.339844 106.765624 101.355469 149.78125l63.519531 63.519531zm0 0" fill="#c6c5ca"/><path d="m294.007812 264.195312c-3.53125-3.53125-7.566406-6.257812-11.871093-8.171874l-14.722657 14.71875 24.273438 24.273437 57.09375-57.09375-14.25-14.25zm0 0" fill="#ffb655"/><path d="m183.21875 237.921875 14.273438-14.273437-10-10-24.273438 24.273437 57.09375 57.09375 10-10zm0 0" fill="#ff7956"/><path d="m30.835938 390.304688 14.269531-14.269532-10-10-24.269531 24.269532 57.09375 57.09375 10-10zm0 0" fill="#ff7956"/><path d="m65.105469 366.035156 113.113281-113.113281-15-15-128.113281 128.113281 57.09375 57.09375 15-15.003906zm0 0" fill="#895247"/><path d="m218.730469 219.886719 183.335937-183.339844 26.734375-5.71875 6.804688-6.808594-58.539063 12.527344-183.335937 183.339844 23.003906 23.003906 12.5-12.5zm0 0" fill="#57565c"/><path d="m246.734375 242.890625 218.875-218.871094 30.695313-6.570312c1.054687-2.351563 2.085937-4.710938 3.101562-7.082031l-63.800781 13.652343-218.871094 218.871094 21.304687 21.304687c5.515626-5.519531 12.261719-9.066406 19.355469-10.644531zm0 0" fill="#898890"/><path d="m281.023438 255.546875c4.722656 1.929687 9.148437 4.8125 12.984374 8.648437l10.644532-10.644531c-7.84375-1.742187-16.113282-1.078125-23.628906 1.996094zm0 0" fill="#898890"/><path d="m439.800781 423.128906 47.09375-47.09375-10-10-57.09375 57.09375 24.273438 24.269532 10-10zm0 0" fill="#ff7956"/><path d="m321.6875 295.015625 42.09375-42.09375-15-15-57.09375 57.09375 128.113281 128.113281 15-15.003906zm0 0" fill="#895247"/><path d="m108.203125 30.828125-31.808594-6.808594 156.597657 156.601563 12.503906-12.5zm0 0" fill="#57565c"/><path d="m143.949219 160.152344c-41.191407-41.195313-74.484375-89.5625-98.253907-142.703125l-33.101562-7.082031c23.9375 55.925781 58.339844 106.765624 101.355469 149.78125l63.519531 63.519531 10.023438-10.019531 6.238281 6.234374 4.976562-4.976562zm0 0" fill="#898890"/><path d="m314.007812 264.195312 30.523438-30.523437-10-10-32.363281 32.363281c4.292969 1.917969 8.316406 4.636719 11.839843 8.160156zm0 0" fill="#ff7956"/><path d="m287.417969 270.742188 6.566406-6.570313c-3.527344-3.519531-7.550781-6.238281-11.847656-8.152344l-14.722657 14.722657 24.273438 24.273437 10-10zm0 0" fill="#ff7956"/><path d="m.226562 390.304688 67.703126 67.703124 187.261718-187.265624-67.699218-67.699219zm67.703126 46.488281-46.488282-46.488281 13.664063-13.664063 46.488281 46.488281zm24.269531-24.273438-46.488281-46.484375 117.507812-117.507812 46.488281 46.484375zm128.113281-128.113281-46.484375-46.484375 13.664063-13.667969 46.484374 46.488282zm0 0"/><path d="m21.609375 436.625c-4.691406-4.691406-4.691406-12.324219 0-17.011719l-10.605469-10.609375c-10.539062 10.539063-10.539062 27.6875 0 38.226563 10.5625 10.566406 27.660156 10.5625 38.226563 0l-10.609375-10.605469c-4.699219 4.703125-12.308594 4.703125-17.011719 0zm0 0"/><path d="m348.78125 227.3125-67.699219 67.699219 162.992188 162.996093 67.699219-67.703124zm-46.488281 67.703125 46.488281-46.488281 117.507812 117.507812-46.488281 46.484375zm188.265625 95.289063-46.484375 46.488281-13.667969-13.664063 46.488281-46.488281zm0 0"/><path d="m490.390625 419.613281c4.691406 4.6875 4.691406 12.320313 0 17.011719-4.703125 4.703125-12.3125 4.703125-17.011719 0l-10.609375 10.605469c10.566407 10.5625 27.664063 10.5625 38.230469 0 10.535156-10.539063 10.535156-27.6875 0-38.226563zm0 0"/><path d="m5.699219 13.316406c24.421875 57.0625 59.058593 108.25 102.945312 152.136719l49.375 49.378906 10.609375-10.605469-49.378906-49.378906c-39.070312-39.074218-70.578125-84.117187-93.792969-134.058594l47.199219 10.101563 140.890625 140.890625 10.609375-10.605469-124.507812-124.507812 31.546874 6.75 105.359376 105.359375 10.609374-10.609375-108.496093-108.492188-138.667969-29.675781zm0 0"/><path d="m294.007812 274.800781 109.347657-109.34375c43.890625-43.890625 78.523437-95.078125 102.945312-152.140625l5.699219-13.316406-138.667969 29.675781-170.765625 170.761719 10.609375 10.609375 167.628907-167.628906 31.546874-6.75-186.777343 186.777343 10.605469 10.605469 203.164062-203.160156 47.199219-10.101563c-23.214844 49.941407-54.722657 94.984376-93.796875 134.058594l-99.167969 99.171875c-11.273437-8.113281-25.796875-10.949219-39.457031-7.394531l3.78125 14.515625c10.984375-2.859375 22.789062.34375 30.800781 8.359375zm0 0"/><g fill="#fff"><path d="m97.503906 393.074219-10.609375-10.605469 57.402344-57.402344 10.605469 10.609375zm64.472656-64.472657-10.609374-10.605468 10.605468-10.605469 10.609375 10.605469zm17.675782-17.675781-10.605469-10.609375 10.605469-10.605468 10.605468 10.609374zm0 0"/><path d="m295.777344 237.675781-10.605469-10.605469 89.898437-89.898437c10.882813-10.886719 21.28125-22.414063 30.914063-34.269531l11.644531 9.460937c-9.957031 12.25-20.707031 24.167969-31.949218 35.414063zm128.171875-133.277343-11.847657-9.195313c3.011719-3.878906 5.988282-7.851563 8.847657-11.800781l12.148437 8.796875c-2.957031 4.085937-6.035156 8.1875-9.148437 12.199219zm15.019531-20.5-12.34375-8.523438c2.789062-4.035156 5.539062-8.167969 8.179688-12.273438l12.621093 8.105469c-2.730469 4.246094-5.574219 8.515625-8.457031 12.691407zm0 0"/><path d="m414.496094 393.074219-57.398438-57.398438 10.605469-10.609375 57.402344 57.402344zm-64.46875-64.472657-10.609375-10.605468 10.609375-10.605469 10.605468 10.605469zm-17.679688-17.675781-10.605468-10.605469 10.605468-10.609374 10.605469 10.605468zm0 0"/><path d="m173.601562 195.054688-47.277343-47.277344c-11.246094-11.246094-21.996094-23.164063-31.949219-35.414063l11.644531-9.460937c9.628907 11.855468 20.03125 23.382812 30.914063 34.269531l47.273437 47.273437zm-85.550781-90.65625c-3.113281-4.011719-6.191406-8.113282-9.148437-12.199219l12.148437-8.796875c2.859375 3.949218 5.839844 7.921875 8.851563 11.800781zm-15.019531-20.5c-2.882812-4.175782-5.726562-8.445313-8.457031-12.691407l12.621093-8.105469c2.640626 4.105469 5.390626 8.238282 8.179688 12.273438zm0 0"/></g></svg>