<svg height="512pt" viewBox="0 -1 512 512" width="512pt" xmlns="http://www.w3.org/2000/svg"><path d="m336.238281 213.371094-37.609375-37.609375 83.492188-69.386719 23.144531.359375.359375 23.144531zm0 0" fill="#c6c5ca"/><path d="m382.121094 106.375 23.144531.359375.359375 23.144531-.621094.75 51.316406.019532 43.144532-118.113282-118.113282 43.144532.019532 51.316406zm0 0" fill="#c6c5ca"/><path d="m303.570312 180.699219 27.730469 27.730469-291.035156 291.03125-27.730469-27.730469zm0 0" fill="#b77062"/><path d="m175.761719 213.371094 37.609375-37.609375-83.492188-69.386719-23.144531.359375-.359375 23.144531zm0 0" fill="#c6c5ca"/><path d="m129.878906 106.375-23.144531.359375-.359375 23.144531.621094.75-51.316406.019532-43.144532-118.113282 118.113282 43.144532-.019532 51.316406zm0 0" fill="#c6c5ca"/><path d="m228.269531 256-47.570312-47.570312 27.730469-27.730469 47.570312 47.570312zm55.460938 0-27.730469 27.730469 215.734375 215.734375 27.730469-27.730469zm0 0" fill="#b77062"/><path d="m328.519531 175.761719 76.824219-63.851563-.078125-5.175781-23.144531-.359375-83.492188 69.386719 37.609375 37.609375 13.566407-16.324219zm0 0" fill="#898890"/><path d="m435.515625 130.632812-.359375-23.898437-23.148438-.359375-.746093.621094-.019531-51.316406 83.621093-30.546876 4.601563-12.597656-118.113282 43.144532.019532 51.316406.75-.621094 23.144531.359375.359375 23.144531-.621094.75zm0 0" fill="#898890"/><path d="m42.421875 471.734375 276.089844-276.089844-14.941407-14.945312-291.035156 291.035156 27.730469 27.730469 14.945313-14.945313zm0 0" fill="#895247"/><path d="m136.261719 129.878906.28125-17.96875-6.664063-5.535156-23.144531.359375-.359375 23.144531 69.386719 83.492188 16.320312-16.324219zm0 0" fill="#898890"/><path d="m47.027344 25.132812-34.492188-12.597656 43.144532 118.113282 29.886718-.011719zm0 0" fill="#898890"/><path d="m210.589844 208.429688 12.785156-12.785157-14.945312-14.945312-27.730469 27.730469 47.570312 47.570312 14.945313-14.945312zm0 0" fill="#895247"/><path d="m285.890625 283.730469 12.785156-12.785157-14.945312-14.945312-27.730469 27.730469 215.734375 215.734375 14.945313-14.945313zm0 0" fill="#895247"/><path d="m336.75 224.449219 71.757812-86.34375 53.035157.019531 50.457031-138.125-138.125 50.457031.019531 53.035157-86.34375 71.757812zm-1.019531-22.15625-26.023438-26.023438 75.058594-62.378906 13.140625.203125.203125 13.140625zm151.203125-177.226563-35.839844 98.109375-38.097656-.015625-.371094-23.785156-23.785156-.371094-.011719-38.097656zm0 0"/><path d="m103.492188 138.105469 71.757812 86.34375 49.199219-49.199219-86.34375-71.757812.019531-53.039063-138.125-50.453125 50.453125 138.125zm72.777343 64.1875-62.378906-75.0625.203125-13.136719 13.140625-.207031 75.0625 62.382812zm-53.09375-141.386719-.015625 38.097656-23.785156.371094-.371094 23.785156-38.097656.011719-35.839844-98.105469zm0 0"/><path d="m292.539062 275.375 196.359376 196.359375-17.164063 17.164063-196.359375-196.359376-10.570312 10.566407 206.929687 206.929687 38.300781-38.300781-206.929687-206.925781zm0 0"/><path d="m311.925781 217.238281-271.660156 271.660157-17.164063-17.164063 271.660157-271.660156-10.566407-10.566407-282.230468 282.226563 38.300781 38.300781 282.226563-282.230468zm0 0"/><path d="m217.234375 200.074219 10.566406-10.566407 19.390625 19.386719-10.570312 10.566407zm0 0"/><path d="m189.503906 227.804688 10.566406-10.566407 19.390626 19.386719-10.570313 10.566406zm0 0"/><g fill="#fff"><path d="m442.554688 117.515625-14.039063-5.125 8.570313-23.460937 14.039062 5.125zm11.988281-32.820313-14.039063-5.125 5.128906-14.039062 14.039063 5.128906zm8.546875-23.394531-14.039063-5.128906 5.128907-14.035156 14.039062 5.125zm0 0"/><path d="m330.578125 191.988281-10.566406-10.566406 19.988281-19.988281 10.566406 10.566406zm27.035156-27.035156-10.566406-10.566406 10.566406-10.566407 10.566407 10.566407zm17.613281-17.613281-10.566406-10.566406 10.566406-10.566407 10.566407 10.566407zm0 0"/><path d="m215.089844 307.480469-10.570313-10.570313 53.597657-53.597656 10.570312 10.570312zm60.640625-60.644531-10.566407-10.566407 10.566407-10.566406 10.570312 10.566406zm17.613281-17.613282-10.566406-10.566406 10.566406-10.566406 10.566406 10.566406zm0 0"/><path d="m112.386719 83.484375-23.460938-8.570313 5.128907-14.039062 23.460937 8.570312zm-32.816407-11.988281-14.039062-5.128906 5.128906-14.039063 14.035156 5.128906zm-23.398437-8.546875-14.035156-5.128907 5.125-14.039062 14.039062 5.128906zm0 0"/><path d="m181.421875 191.988281-17.28125-17.28125 10.566406-10.566406 17.28125 17.28125zm-24.328125-24.324219-10.566406-10.570312 10.566406-10.566406 10.566406 10.566406zm-17.609375-17.613281-10.570313-10.566406 10.570313-10.570313 10.566406 10.570313zm0 0"/><path d="m380.6875 391.257812-53.597656-53.597656 10.570312-10.566406 53.597656 53.597656zm-60.640625-60.644531-10.566406-10.566406 10.566406-10.566406 10.566406 10.566406zm-17.613281-17.613281-10.566406-10.566406 10.566406-10.566406 10.566406 10.566406zm0 0"/></g></svg>