<svg height="512pt" viewBox="0 0 512 512" width="512pt" xmlns="http://www.w3.org/2000/svg"><path d="m504.5 256c0 137.242188-111.257812 248.5-248.5 248.5s-248.5-111.257812-248.5-248.5 111.257812-248.5 248.5-248.5 248.5 111.257812 248.5 248.5zm0 0" fill="#c6c5ca"/><path d="m484 256c0 109.351562-88.648438 198-198 198s-198-88.648438-198-198 88.648438-198 198-198 198 88.648438 198 198zm0 0" fill="#898890"/><path d="m454 256c0 109.351562-88.648438 198-198 198s-198-88.648438-198-198 88.648438-198 198-198 198 88.648438 198 198zm0 0" fill="#57a4ff"/><path d="m380 256c0 51.914062-42.085938 94-94 94s-94-42.085938-94-94 42.085938-94 94-94 94 42.085938 94 94zm0 0" fill="#006df0"/><path d="m88 256c0-104.304688 80.65625-189.773438 183-197.441406-4.953125-.371094-9.953125-.558594-15-.558594-109.351562 0-198 88.648438-198 198s88.648438 198 198 198c5.046875 0 10.046875-.1875 15-.558594-102.34375-7.667968-183-93.136718-183-197.441406zm0 0" fill="#006df0"/><path d="m170.730469 216.398438h-108.765625c5.9375-29.257813 18.332031-56.175782 35.625-79.199219h316.820312c17.292969 23.023437 29.6875 49.941406 35.625 79.199219h-108.765625c-14.945312-32.125-47.503906-54.398438-85.269531-54.398438s-70.324219 22.273438-85.269531 54.398438zm85.269531 133.601562c-37.765625 0-70.324219-22.273438-85.269531-54.398438h-108.765625c5.9375 29.257813 18.332031 56.175782 35.625 79.199219h316.820312c17.292969-23.023437 29.6875-49.941406 35.625-79.199219h-108.765625c-14.945312 32.125-47.503906 54.398438-85.269531 54.398438zm0 0" fill="#ff7956"/><path d="m350 256c0 51.914062-42.085938 94-94 94s-94-42.085938-94-94 42.085938-94 94-94 94 42.085938 94 94zm0 0" fill="#c6c5ca"/><path d="m333 256c0 25.957031-21.042969 47-47 47s-47-21.042969-47-47 21.042969-47 47-47 47 21.042969 47 47zm0 0" fill="#898890"/><path d="m303 256c0 25.957031-21.042969 47-47 47s-47-21.042969-47-47 21.042969-47 47-47 47 21.042969 47 47zm0 0" fill="#e0e0e2"/><path d="m37.5 256c0-132.207031 103.242188-240.300781 233.5-248.054688-4.960938-.296874-9.964844-.445312-15-.445312-137.242188 0-248.5 111.257812-248.5 248.5s111.257812 248.5 248.5 248.5c5.035156 0 10.039062-.148438 15-.445312-130.257812-7.753907-233.5-115.847657-233.5-248.054688zm0 0" fill="#898890"/><path d="m271 163.191406c31.246094 5.011719 57.34375 25.425782 70.269531 53.207032h30c-14.945312-32.125-47.503906-54.398438-85.269531-54.398438-5.105469 0-10.117188.40625-15 1.191406zm0 0" fill="#ff3f62"/><path d="m271 348.808594c4.882812.785156 9.894531 1.191406 15 1.191406 37.765625 0 70.324219-22.273438 85.269531-54.398438h-30c-12.925781 27.78125-39.023437 48.195313-70.269531 53.207032zm0 0" fill="#ff3f62"/><path d="m61.964844 295.601562c5.9375 29.257813 18.332031 56.175782 35.625 79.199219h30c-17.292969-23.023437-29.6875-49.941406-35.625-79.199219zm0 0" fill="#ff3f62"/><path d="m127.589844 137.199219h-30c-17.292969 23.023437-29.6875 49.941406-35.625 79.199219h30c5.9375-29.257813 18.332031-56.175782 35.625-79.199219zm0 0" fill="#ff3f62"/><path d="m192 256c0-46.808594 34.214844-85.628906 79-92.808594-4.886719-.785156-9.894531-1.191406-15-1.191406-51.914062 0-94 42.085938-94 94s42.085938 94 94 94c5.105469 0 10.113281-.40625 15-1.191406-44.785156-7.179688-79-46-79-92.808594zm0 0" fill="#898890"/><path d="m239 256c0-20.710938 13.398438-38.296875 32-44.554688-4.710938-1.585937-9.753906-2.445312-15-2.445312-25.957031 0-47 21.042969-47 47s21.042969 47 47 47c5.246094 0 10.289062-.859375 15-2.445312-18.601562-6.257813-32-23.84375-32-44.554688zm0 0" fill="#c6c5ca"/><path d="m256 50.5c-113.3125 0-205.5 92.1875-205.5 205.5s92.1875 205.5 205.5 205.5 205.5-92.1875 205.5-205.5-92.1875-205.5-205.5-205.5zm0 396c-105.042969 0-190.5-85.457031-190.5-190.5s85.457031-190.5 190.5-190.5 190.5 85.457031 190.5 190.5-85.457031 190.5-190.5 190.5zm0 0"/><path d="m248.5 24.75h15v15h-15zm0 0"/><path d="m248.5 472.25h15v15h-15zm0 0"/><path d="m403.609375 97.796875 10.609375-10.609375 10.605469 10.609375-10.605469 10.605469zm0 0"/><path d="m87.175781 414.210938 10.605469-10.605469 10.605469 10.605469-10.605469 10.609374zm0 0"/><path d="m472.25 248.5h15v15h-15zm0 0"/><path d="m24.75 248.5h15v15h-15zm0 0"/><path d="m403.601562 414.1875 10.609376-10.605469 10.605468 10.605469-10.605468 10.605469zm0 0"/><path d="m87.175781 97.785156 10.609375-10.605468 10.605469 10.605468-10.605469 10.605469zm0 0"/><path d="m154.5 256c0 55.96875 45.53125 101.5 101.5 101.5s101.5-45.53125 101.5-101.5-45.53125-101.5-101.5-101.5-101.5 45.53125-101.5 101.5zm188 0c0 47.695312-38.804688 86.5-86.5 86.5s-86.5-38.804688-86.5-86.5 38.804688-86.5 86.5-86.5 86.5 38.804688 86.5 86.5zm0 0"/><path d="m362.90625 288.101562h66.652344v15h-66.652344zm0 0"/><path d="m123.554688 367.300781h264.890624v15h-264.890624zm0 0"/><path d="m82.441406 288.101562h66.652344v15h-66.652344zm0 0"/><path d="m82.441406 208.898438h66.652344v15h-66.652344zm0 0"/><path d="m123.554688 129.699219h264.890624v15h-264.890624zm0 0"/><path d="m362.90625 208.898438h66.652344v15h-66.652344zm0 0"/><path d="m226.535156 210.144531 8.117188 12.613281c6.363281-4.09375 13.742187-6.257812 21.347656-6.257812 21.78125 0 39.5 17.71875 39.5 39.5s-17.71875 39.5-39.5 39.5-39.5-17.71875-39.5-39.5c0-7.605469 2.164062-14.984375 6.257812-21.347656l-12.613281-8.117188c-5.65625 8.785156-8.644531 18.976563-8.644531 29.464844 0 30.050781 24.449219 54.5 54.5 54.5s54.5-24.449219 54.5-54.5-24.449219-54.5-54.5-54.5c-10.488281 0-20.679688 2.988281-29.464844 8.644531zm0 0"/><path d="m444.15625 82.410156-11.019531 10.175782c41.179687 44.617187 63.863281 102.652343 63.863281 163.414062 0 132.886719-108.113281 241-241 241s-241-108.113281-241-241 108.113281-241 241-241c60.761719 0 118.796875 22.679688 163.414062 63.867188l10.175782-11.023438c-47.398438-43.75-109.046875-67.84375-173.589844-67.84375-141.492188 0-256 114.496094-256 256 0 141.492188 114.496094 256 256 256 141.492188 0 256-114.496094 256-256 0-64.542969-24.09375-126.191406-67.84375-173.589844zm0 0"/><g fill="#fff"><path d="m435.175781 401.835938-11.617187-9.488282c15.320312-18.75 27.253906-39.707031 35.476562-62.289062l14.09375 5.132812c-8.796875 24.164063-21.566406 46.585938-37.953125 66.644532zm41.269531-76.4375-14.3125-4.488282c1.4375-4.585937 2.734376-9.285156 3.859376-13.964844l14.585937 3.511719c-1.203125 5.007813-2.59375 10.03125-4.132813 14.941407zm6.324219-25.046876-14.726562-2.847656c.914062-4.71875 1.679687-9.535156 2.273437-14.316406l14.886719 1.859375c-.640625 5.109375-1.457031 10.257813-2.433594 15.304687zm0 0"/><path d="m256.003906 436.5s0 0-.003906 0v-15h.003906c18.226563 0 36.140625-2.957031 53.25-8.789062l4.839844 14.199218c-18.667969 6.363282-38.214844 9.589844-58.089844 9.589844zm67.863282-13.242188-5.65625-13.890624c4.40625-1.796876 8.792968-3.808594 13.03125-5.980469l6.84375 13.347656c-4.625 2.371094-9.40625 4.566406-14.21875 6.523437zm23.359374-11.550781-7.605468-12.929687c4.105468-2.414063 8.15625-5.039063 12.042968-7.800782l8.691407 12.226563c-4.238281 3.011719-8.652344 5.871094-13.128907 8.503906zm0 0"/><path d="m256 285.488281c-7.886719 0-15.296875-3.0625-20.859375-8.628906l10.605469-10.605469c3.015625 3.015625 7.160156 4.539063 11.46875 4.1875l1.230468 14.949219c-.808593.066406-1.632812.097656-2.445312.097656zm15.117188-4.152343-7.6875-12.882813c1.019531-.609375 1.972656-1.347656 2.824218-2.199219 1.503906-1.507812 2.632813-3.273437 3.355469-5.257812l14.09375 5.140625c-1.480469 4.050781-3.78125 7.660156-6.84375 10.722656-1.726563 1.726563-3.65625 3.230469-5.742187 4.476563zm-.707032-26.839844c-.34375-3.347656-1.78125-6.375-4.15625-8.75l10.605469-10.605469c4.773437 4.769531 7.78125 11.097656 8.472656 17.816406zm0 0"/><path d="m310.09375 310.09375-10.605469-10.605469c11.59375-11.59375 17.980469-27.039062 17.980469-43.488281 0-1.238281-.039062-2.496094-.113281-3.730469l14.972656-.902343c.09375 1.535156.140625 3.09375.140625 4.632812 0 20.453125-7.949219 39.664062-22.375 54.09375zm6.085938-66.664062c-.902344-4.367188-2.28125-8.632813-4.101563-12.6875l13.683594-6.144532c2.265625 5.046875 3.984375 10.363282 5.109375 15.792969zm-8.328126-20.515626c-2.386718-3.738281-5.203124-7.238281-8.363281-10.402343l10.605469-10.605469c3.929688 3.929688 7.429688 8.28125 10.398438 12.9375zm0 0"/><path d="m405.25 357.300781h-33v-15h33zm-43 0h-15v-15h15zm-25 0h-15v-15h15zm0 0"/></g></svg>