<svg height="511pt" viewBox="0 0 511 511.99898" width="511pt" xmlns="http://www.w3.org/2000/svg"><path d="m452.21875 136.703125c1.179688 0 2.625.09375 4.273438.273437-2.734376-13.054687-7.898438-25.214843-14.996094-35.988281-1.015625 1.261719-1.953125 2.324219-2.769532 3.140625-8.542968 8.542969-19.667968 5.8125-28.214843-2.730468-8.542969-8.542969-11.273438-19.667969-2.730469-28.214844.789062-.785156 1.804688-1.683594 3.007812-2.660156-10.746093-6.953126-22.839843-11.996094-35.808593-14.644532.148437 1.457032.226562 2.746094.226562 3.8125 0 12.085938-9.796875 18.019532-21.878906 18.019532-12.085937 0-21.882813-5.933594-21.882813-18.019532 0-1.007812.070313-2.210937.203126-3.570312-12.785157 2.761718-24.699219 7.855468-35.28125 14.816406.984374.816406 1.828124 1.570312 2.503906 2.25 8.546875 8.542969 5.816406 19.667969-2.730469 28.210938-8.542969 8.542968-19.667969 11.277343-28.210937 2.730468-.648438-.644531-1.367188-1.441406-2.140626-2.371094-6.820312 10.550782-11.796874 22.40625-14.472656 35.105469 1.175782-.105469 2.222656-.160156 3.121094-.160156 12.082031 0 18.015625 9.796875 18.015625 21.882813 0 12.082031-5.933594 21.878906-18.015625 21.878906-.898438 0-1.945312-.054688-3.121094-.160156 2.675782 12.703124 7.652344 24.554687 14.472656 35.105468.773438-.925781 1.496094-1.726562 2.140626-2.371094 8.542968-8.542968 19.667968-5.8125 28.210937 2.730469s11.277344 19.667969 2.730469 28.214844c-.675782.675781-1.519532 1.429687-2.503906 2.25 10.582031 6.957031 22.496093 12.050781 35.28125 14.8125-.132813-1.359375-.203126-2.5625-.203126-3.570313 0-12.085937 9.796876-18.019531 21.882813-18.019531 12.082031 0 21.878906 5.933594 21.878906 18.019531 0 1.066407-.078125 2.355469-.226562 3.8125 12.96875-2.648437 25.0625-7.691406 35.808593-14.644531-1.203124-.976562-2.21875-1.875-3.007812-2.660156-8.542969-8.546875-5.8125-19.667969 2.730469-28.214844 8.546875-8.542969 19.667969-11.273437 28.214843-2.730469.816407.816407 1.753907 1.878907 2.769532 3.140626 7.097656-10.773438 12.257812-22.933594 14.996094-35.988282-1.648438.179688-3.09375.273438-4.273438.273438-12.082031 0-18.019531-9.796875-18.019531-21.882813 0-12.082031 5.9375-21.878906 18.019531-21.878906zm0 0" fill="#787680"/><path d="m395.773438 158.585938c0 12.082031-9.796876 21.878906-21.878907 21.878906-12.085937 0-21.882812-9.796875-21.882812-21.878906 0-12.085938 9.796875-21.882813 21.882812-21.882813 12.082031 0 21.878907 9.796875 21.878907 21.882813zm0 0" fill="#57565c"/><path d="m375.773438 158.585938c0 12.082031-9.796876 21.878906-21.878907 21.878906-12.085937 0-21.882812-9.796875-21.882812-21.878906 0-12.085938 9.796875-21.882813 21.882812-21.882813 12.082031 0 21.878907 9.796875 21.878907 21.882813zm0 0" fill="#787680"/><path d="m129.121094 340.78125 42.59375 42.59375-102.332032 102.332031-42.59375-42.59375zm0 0" fill="#b77062"/><path d="m50.910156 502.554688-40.964844-40.964844c0-2.285156 0-3.566406 0-5.847656l14.734376-14.734376 46.8125 46.8125-14.734376 14.734376c-2.285156 0-3.5625 0-5.847656 0zm0 0" fill="#c6c5ca"/><path d="m14.558594 497.941406c8.765625 8.761719 22.972656 8.761719 31.738281 0l-31.738281-31.738281c-8.761719 8.765625-8.761719 22.972656 0 31.738281zm0 0" fill="#787680"/><path d="m246.496094 265.417969c-7.507813-7.507813 8.121094-35.65625 17.824218-48.175781l-1.25-1.25-129.371093 129.371093 32.613281 32.617188 129.375-129.375-1.015625-1.015625c-12.523437 9.703125-40.671875 25.335937-48.175781 17.828125zm0 0" fill="#c6c5ca"/><g fill="#787680"><path d="m272.453125 158.585938c0 12.082031-5.933594 21.878906-18.015625 21.878906-12.085938 0-52.195312-9.796875-52.195312-21.878906 0-12.085938 40.109374-21.882813 52.195312-21.882813 12.082031 0 18.015625 9.796875 18.015625 21.882813zm0 0"/><path d="m434.199219 158.585938c0 12.082031 5.9375 21.878906 18.019531 21.878906 12.085938 0 52.195312-9.796875 52.195312-21.878906 0-12.085938-40.109374-21.882813-52.195312-21.882813-12.082031 0-18.019531 9.796875-18.019531 21.882813zm0 0"/><path d="m296.140625 215.769531c8.546875 8.546875 11.277344 19.667969 2.734375 28.214844-8.546875 8.542969-43.835938 29.976563-52.378906 21.433594-8.542969-8.542969 12.890625-43.832031 21.433594-52.378907 8.542968-8.542968 19.667968-5.8125 28.210937 2.730469zm0 0"/><path d="m410.515625 101.398438c8.542969 8.542968 19.667969 11.277343 28.210937 2.730468 8.546876-8.542968 29.980469-43.832031 21.433594-52.375-8.542968-8.546875-43.832031 12.886719-52.378906 21.433594-8.542969 8.542969-5.8125 19.667969 2.734375 28.210938zm0 0"/><path d="m353.328125 239.457031c12.082031 0 21.878906 5.933594 21.878906 18.019531 0 12.082032-9.796875 52.191407-21.878906 52.191407s-21.878906-40.109375-21.878906-52.191407c0-12.085937 9.796875-18.019531 21.878906-18.019531zm0 0"/><path d="m353.328125 77.710938c12.082031 0 21.878906-5.933594 21.878906-18.019532 0-12.082031-9.796875-52.191406-21.878906-52.191406-12.085937 0-21.878906 40.109375-21.878906 52.195312 0 12.082032 9.796875 18.015626 21.878906 18.015626zm0 0"/><path d="m410.515625 215.769531c8.542969-8.542969 19.667969-11.273437 28.210937-2.730469 8.542969 8.546876 29.980469 43.832032 21.433594 52.378907-8.542968 8.542969-43.832031-12.890625-52.375-21.433594-8.546875-8.546875-5.816406-19.667969 2.730469-28.214844zm0 0"/><path d="m296.140625 101.398438c8.546875-8.542969 11.277344-19.667969 2.734375-28.210938-8.546875-8.546875-43.835938-29.980469-52.378906-21.4375-8.542969 8.546875 12.890625 43.835938 21.433594 52.378906 8.546874 8.542969 19.667968 5.8125 28.210937-2.730468zm0 0"/></g><path d="m352.011719 158.585938c0-8.480469 4.828125-15.835938 11.882812-19.46875-3-1.542969-6.398437-2.414063-10-2.414063-12.085937 0-21.882812 9.796875-21.882812 21.882813 0 12.082031 9.796875 21.878906 21.882812 21.878906 3.601563 0 7-.871094 10-2.414063-7.054687-3.632812-11.882812-10.984375-11.882812-19.464843zm0 0" fill="#57565c"/><path d="m56.789062 443.117188 87.332032-87.332032-15-15-102.332032 102.332032 42.59375 42.59375 15-15zm0 0" fill="#895247"/><path d="m24.945312 461.589844v-5.847656l7.234376-7.234376-7.5-7.5-14.734376 14.734376v5.847656l40.964844 40.964844h5.847656l4.578126-4.574219zm0 0" fill="#898890"/><path d="m29.558594 497.941406c-6.050782-6.050781-7.921875-14.699218-5.617188-22.355468l-9.382812-9.382813c-8.765625 8.765625-8.765625 22.972656 0 31.738281 6.320312 6.320313 15.46875 8.082032 23.367187 5.289063-3.054687-1.082031-5.921875-2.84375-8.367187-5.289063zm0 0" fill="#57565c"/><path d="m332.878906 250.183594c-2.21875-1.238282-4.390625-2.558594-6.511718-3.949219.988281-.816406 1.832031-1.574219 2.507812-2.25 8.542969-8.546875 5.8125-19.667969-2.730469-28.214844-8.546875-8.542969-19.667969-11.273437-28.214843-2.730469-.644532.644532-1.363282 1.445313-2.136719 2.371094-6.820313-10.550781-11.796875-22.402344-14.472657-35.105468 1.171876.105468 2.222657.160156 3.117188.160156 12.085938 0 18.019531-9.796875 18.019531-21.882813 0-12.082031-5.933593-21.878906-18.019531-21.878906-.894531 0-1.941406.054687-3.117188.160156 2.675782-12.703125 7.652344-24.554687 14.472657-35.105469.773437.925782 1.492187 1.726563 2.136719 2.371094 8.542968 8.542969 19.667968 5.8125 28.214843-2.730468 8.542969-8.546876 11.273438-19.667969 2.730469-28.214844-.675781-.675782-1.519531-1.429688-2.507812-2.25 2.121093-1.390625 4.292968-2.710938 6.511718-3.949219-.925781-2.117187-1.429687-4.542969-1.429687-7.292969 0-1.007812.066406-2.210937.199219-3.570312-12.785157 2.761718-24.699219 7.855468-35.28125 14.8125.984374.820312 1.828124 1.574218 2.507812 2.25 8.542969 8.546875 5.8125 19.667968-2.734375 28.214844-8.542969 8.542968-19.667969 11.273437-28.210937 2.730468-.644532-.644531-1.367188-1.445312-2.140626-2.371094-6.816406 10.550782-11.792968 22.402344-14.46875 35.105469 1.171876-.105469 2.222657-.160156 3.117188-.160156 12.082031 0 18.019531 9.796875 18.019531 21.878906 0 12.085938-5.9375 21.882813-18.019531 21.882813-.894531 0-1.945312-.054688-3.117188-.160156 2.675782 12.703124 7.652344 24.554687 14.46875 35.105468.773438-.925781 1.496094-1.726562 2.140626-2.371094 8.542968-8.542968 19.667968-5.8125 28.210937 2.730469 8.546875 8.546875 11.277344 19.667969 2.734375 28.214844-.679688.675781-1.523438 1.429687-2.507812 2.25 10.582031 6.957031 22.496093 12.050781 35.28125 14.8125-.132813-1.359375-.199219-2.5625-.199219-3.570313 0-2.75.503906-5.179687 1.429687-7.292968zm0 0" fill="#57565c"/><path d="m443.390625 103.976562c-.617187-1.007812-1.246094-2.003906-1.894531-2.988281-.214844.261719-.421875.515625-.625.761719.820312.796875 1.660156 1.539062 2.519531 2.226562zm0 0" fill="#57565c"/><path d="m368.328125 73.578125c3.917969 2.761719 9.195313 4.132813 15 4.132813 9.550781 0 17.675781-3.707032 20.660156-11.230469-8.957031-4.882813-18.707031-8.496094-29.003906-10.601563.148437 1.457032.222656 2.746094.222656 3.8125 0 6.28125-2.644531 10.898438-6.878906 13.886719zm0 0" fill="#57565c"/><path d="m440.871094 215.417969c.203125.246093.410156.5.625.761719.648437-.984376 1.277344-1.980469 1.894531-2.984376-.859375.683594-1.699219 1.425782-2.519531 2.222657zm0 0" fill="#57565c"/><path d="m403.988281 250.691406c-2.984375-7.523437-11.105469-11.234375-20.660156-11.234375-5.804687 0-11.082031 1.371094-15 4.132813 4.234375 2.988281 6.878906 7.609375 6.878906 13.886718 0 1.066407-.078125 2.355469-.222656 3.8125 10.296875-2.101562 20.046875-5.71875 29.003906-10.597656zm0 0" fill="#57565c"/><path d="m276.496094 265.417969c.398437.398437.859375.734375 1.371094 1.007812l17.820312-17.820312-1.015625-1.015625c-4.992187 3.867187-12.472656 8.679687-20.132813 12.589844.109376 2.199218.71875 4 1.957032 5.238281zm0 0" fill="#898890"/><path d="m163.699219 345.363281 81.632812-81.628906c-4.367187-9.359375 9.90625-34.769531 18.988281-46.492187l-1.25-1.25-129.371093 129.371093 32.613281 32.617188 15-15zm0 0" fill="#898890"/><path d="m232.246094 158.585938c0-7.921876 17.226562-14.859376 32.5-18.699219-2.710938-2.019531-6.144532-3.183594-10.308594-3.183594-12.085938 0-52.195312 9.796875-52.195312 21.882813 0 12.082031 40.109374 21.878906 52.195312 21.878906 4.164062 0 7.597656-1.164063 10.308594-3.183594-15.273438-3.839844-32.5-10.777344-32.5-18.695312zm0 0" fill="#57565c"/><path d="m454.203125 158.585938c0-9.21875 3.449219-17.101563 10.449219-20.324219-5.117188-1.007813-9.566406-1.558594-12.433594-1.558594-12.082031 0-18.019531 9.796875-18.019531 21.878906 0 12.085938 5.9375 21.882813 18.019531 21.882813 2.871094 0 7.316406-.554688 12.433594-1.558594-7-3.222656-10.449219-11.105469-10.449219-20.320312zm0 0" fill="#57565c"/><path d="m287.929688 213.039062c.746093-.746093 1.511718-1.402343 2.292968-1.980468-7.367187-4.488282-15.617187-4.695313-22.292968 1.980468-8.542969 8.546876-29.980469 43.832032-21.433594 52.378907 3.339844 3.34375 10.777344 2.097656 19.105468-1.171875-5.929687-10.195313 14.132813-43.007813 22.328126-51.207032zm0 0" fill="#57565c"/><path d="m430.515625 101.398438c-8.546875-8.542969-11.277344-19.667969-2.730469-28.210938 5.199219-5.203125 20.3125-15.183594 33.269532-20.265625-.25-.429687-.546876-.824219-.894532-1.171875-8.542968-8.542969-43.832031 12.890625-52.378906 21.4375-8.542969 8.542969-5.8125 19.667969 2.734375 28.210938 7.796875 7.800781 17.746094 10.753906 25.917969 4.714843-2.058594-1.257812-4.050782-2.847656-5.917969-4.714843zm0 0" fill="#57565c"/><path d="m351.449219 257.476562c0-8.480468 4.824219-13.933593 11.878906-16.429687-2.996094-1.0625-6.398437-1.589844-10-1.589844-12.085937 0-21.878906 5.933594-21.878906 18.019531 0 12.082032 9.796875 52.191407 21.878906 52.191407 3.601563 0 7.003906-3.566407 10-8.890625-7.054687-12.535156-11.878906-34.820313-11.878906-43.300782zm0 0" fill="#57565c"/><path d="m351.449219 59.695312c0-8.484374 4.824219-30.765624 11.878906-43.304687-2.996094-5.324219-6.398437-8.890625-10-8.890625-12.085937 0-21.878906 40.109375-21.878906 52.195312 0 12.082032 9.796875 18.015626 21.878906 18.015626 3.601563 0 7.003906-.527344 10-1.585938-7.054687-2.5-11.878906-7.949219-11.878906-16.429688zm0 0" fill="#57565c"/><path d="m427.785156 243.984375c-8.546875-8.546875-5.816406-19.667969 2.730469-28.214844 1.867187-1.867187 3.859375-3.457031 5.917969-4.710937-8.175782-6.042969-18.121094-3.089844-25.917969 4.710937-8.546875 8.542969-11.277344 19.667969-2.734375 28.214844 8.546875 8.542969 43.835938 29.976563 52.378906 21.433594.347656-.347657.644532-.738281.894532-1.171875-12.957032-5.082032-28.070313-15.0625-33.269532-20.261719zm0 0" fill="#57565c"/><path d="m287.929688 104.128906c-8.199219-8.199218-28.257813-41.011718-22.328126-51.207031-8.328124-3.265625-15.765624-4.511719-19.105468-1.171875-8.546875 8.546875 12.886718 43.835938 21.433594 52.378906 6.675781 6.675782 14.925781 6.46875 22.292968 1.984375-.78125-.578125-1.546875-1.238281-2.292968-1.984375zm0 0" fill="#57565c"/><path d="m353.894531 129.203125c-16.203125 0-29.382812 13.183594-29.382812 29.382813 0 16.199218 13.179687 29.378906 29.382812 29.378906 16.199219 0 29.378907-13.179688 29.378907-29.378906 0-16.199219-13.179688-29.382813-29.378907-29.382813zm0 43.761719c-7.929687 0-14.382812-6.453125-14.382812-14.378906 0-7.929688 6.453125-14.382813 14.382812-14.382813 7.925781 0 14.378907 6.453125 14.378907 14.382813 0 7.925781-6.453126 14.378906-14.378907 14.378906zm0 0"/><path d="m485.28125 136.019531c-7.203125-2.472656-15.582031-4.558593-22.660156-5.746093-2.632813-10.164063-6.667969-19.84375-12.035156-28.886719 4.179687-5.859375 8.648437-13.285157 12.003906-20.152344 8.324218-17.019531 9.261718-28.398437 2.875-34.785156-6.390625-6.386719-17.769532-5.445313-34.785156 2.875-6.9375 3.390625-14.445313 7.917969-20.328126 12.128906-8.984374-5.234375-18.578124-9.164063-28.636718-11.722656-1.175782-7.171875-3.296875-15.746094-5.820313-23.097657-6.152343-17.921874-13.53125-26.632812-22.566406-26.632812s-16.417969 8.710938-22.566406 26.628906c-2.558594 7.460938-4.703125 16.175782-5.871094 23.410156-9.863281 2.625-19.269531 6.570313-28.078125 11.78125-5.953125-4.316406-13.695312-9.007812-20.832031-12.496093-17.019531-8.324219-28.398438-9.265625-34.789063-2.875-6.386718 6.386719-5.445312 17.765625 2.875 34.785156 3.523438 7.210937 8.273438 15.039063 12.625 21.015625-5.078125 8.742188-8.925781 18.066406-11.476562 27.832031-7.3125 1.148438-16.230469 3.328125-23.839844 5.9375-17.917969 6.148438-26.628906 13.53125-26.628906 22.566407 0 9.03125 8.710937 16.414062 26.628906 22.5625 7.609375 2.613281 16.527344 4.792968 23.839844 5.941406 2.550781 9.761718 6.394531 19.085937 11.476562 27.828125-4.351562 5.980469-9.101562 13.804687-12.625 21.015625-8.320312 17.019531-9.261718 28.398437-2.875 34.785156 2.78125 2.78125 6.503906 4.171875 11.230469 4.171875 6.132813 0 13.945313-2.34375 23.558594-7.046875 7.136719-3.488281 14.878906-8.179688 20.835937-12.496094 8.804688 5.210938 18.210938 9.15625 28.078125 11.785156 1.164063 7.230469 3.308594 15.945313 5.867188 23.40625 6.152343 17.917969 13.53125 26.628907 22.566406 26.628907s16.417969-8.710938 22.566406-26.628907c2.523438-7.355468 4.644531-15.929687 5.820313-23.101562 10.054687-2.558594 19.652344-6.488281 28.632812-11.722656 5.886719 4.214844 13.394532 8.738281 20.332032 12.128906 9.613281 4.703125 17.425781 7.046875 23.558593 7.046875 4.722657 0 8.445313-1.390625 11.226563-4.171875 6.386718-6.386719 5.449218-17.765625-2.875-34.785156-3.355469-6.867188-7.824219-14.292969-12.003906-20.152344 5.367187-9.042969 9.402343-18.722656 12.035156-28.886719 7.078125-1.1875 15.457031-3.273437 22.660156-5.746093 17.921875-6.148438 26.632812-13.53125 26.632812-22.566407 0-9.035156-8.710937-16.414062-26.632812-22.5625zm-38.40625 51.429688c-1.804688 5.828125-4.152344 11.457031-7.027344 16.84375-10.398437-6.90625-23.738281-4.722657-34.636718 6.171875v.003906c-10.828126 10.828125-13.054688 24.066406-6.304688 34.4375-5.378906 2.8125-10.988281 5.105469-16.789062 6.855469-2.59375-12.054688-13.511719-19.804688-28.789063-19.804688-15.140625 0-26 7.613281-28.714844 19.480469-5.734375-1.804688-11.273437-4.136719-16.578125-6.980469 6.398438-10.296875 4.085938-23.3125-6.589844-33.988281-10.605468-10.605469-23.523437-12.960938-33.789062-6.710938-2.785156-5.300781-5.0625-10.828124-6.816406-16.542968 11.660156-2.855469 19.113281-13.644532 19.113281-28.628906 0-14.984376-7.453125-25.773438-19.113281-28.628907 1.753906-5.714843 4.03125-11.242187 6.816406-16.542969 3.757812 2.285157 7.867188 3.421876 12.089844 3.421876 7.320312 0 14.976562-3.410157 21.699218-10.132813 5.582032-5.582031 9.007813-11.9375 9.898438-18.378906.769531-5.515625-.398438-10.894531-3.316406-15.605469 5.308594-2.847656 10.847656-5.179688 16.585937-6.984375 2.71875 11.867187 13.578125 19.476563 28.714844 19.476563 15.277344 0 26.195313-7.75 28.789063-19.800782 5.804687 1.75 11.417968 4.042969 16.796874 6.859375-3.125 4.816407-4.390624 10.363281-3.601562 16.054688.894531 6.441406 4.316406 12.796875 9.898438 18.378906 6.722656 6.726563 14.378906 10.132813 21.699218 10.132813 4.542969 0 8.953125-1.3125 12.9375-3.957032 2.875 5.386719 5.222656 11.015625 7.027344 16.84375-12.265625 2.445313-20.171875 13.429688-20.171875 28.863282-.003906 15.433593 7.90625 26.417968 20.171875 28.863281zm-11.804688-123.546875c10.617188-5.480469 16.695313-6.636719 19.160157-6.636719.148437 0 .28125.003906.402343.011719.136719 2.160156-.820312 8.3125-6.621093 19.5625-4.933594 9.566406-11.292969 18.691406-14.589844 21.984375-6.710937 6.714843-14.546875.328125-17.605469-2.730469-3.207031-3.207031-5.210937-6.699219-5.648437-9.832031-.398438-2.867188.558593-5.410157 2.917969-7.773438 3.296874-3.296875 12.421874-9.652343 21.984374-14.585937zm-90.890624-30.070313c3.847656-12.054687 7.523437-17.082031 9.148437-18.515625 1.621094 1.433594 5.296875 6.460938 9.148437 18.515625 3.273438 10.25 5.230469 21.199219 5.230469 25.859375 0 9.496094-10.054687 10.519532-14.378906 10.519532s-14.382813-1.023438-14.382813-10.519532c.003907-4.660156 1.957032-15.609375 5.234376-25.859375zm-92.15625 23.445313c2.15625-.125 8.316406.824218 19.5625 6.625 9.5625 4.933594 18.6875 11.289062 21.984374 14.585937 2.359376 2.363281 3.316407 4.902344 2.917969 7.773438-.4375 3.132812-2.441406 6.625-5.648437 9.832031-3.058594 3.058594-10.894532 9.445312-17.605469 2.734375-3.296875-3.296875-9.65625-12.421875-14.589844-21.988281-5.800781-11.246094-6.757812-17.398438-6.621093-19.5625zm-41.964844 101.308594c1.433594-1.625 6.460937-5.300782 18.515625-9.148438 10.253906-3.277344 21.199219-5.230469 25.863281-5.230469 9.492188 0 10.515625 10.054688 10.515625 14.378907 0 4.324218-1.023437 14.378906-10.515625 14.378906-4.664062 0-15.609375-1.957032-25.863281-5.230469-12.054688-3.851563-17.082031-7.527344-18.515625-9.148437zm61.523437 94.683593c-11.246093 5.800781-17.402343 6.765625-19.5625 6.621094-.132812-2.160156.820313-8.3125 6.625-19.5625 4.933594-9.5625 11.292969-18.6875 14.585938-21.984375 6.710937-6.710938 14.550781-.328125 17.605469 2.730469 3.058593 3.058593 9.445312 10.894531 2.730468 17.605469-3.292968 3.296874-12.417968 9.652343-21.984375 14.589843zm90.894531 30.066407c-3.851562 12.058593-7.527343 17.085937-9.148437 18.519531-1.625-1.433594-5.300781-6.460938-9.148437-18.519531-3.277344-10.25-5.230469-21.199219-5.230469-25.859376 0-9.492187 10.054687-10.519531 14.378906-10.519531s14.378906 1.023438 14.378906 10.519531c0 4.660157-1.957031 15.609376-5.230469 25.859376zm92.15625-23.445313c-2.15625.136719-8.3125-.820313-19.5625-6.621094-9.5625-4.9375-18.6875-11.292969-21.984374-14.589843-6.710938-6.710938-.324219-14.546876 2.730468-17.605469 3.058594-3.058594 10.890625-9.441407 17.605469-2.730469 3.296875 3.296875 9.652344 12.421875 14.585937 21.984375 5.804688 11.246094 6.761719 17.402344 6.625 19.5625zm23.449219-92.15625c-10.253906 3.273437-21.199219 5.230469-25.863281 5.230469-9.492188 0-10.519531-10.058594-10.519531-14.382813 0-4.320312 1.027343-14.378906 10.519531-14.378906 4.664062 0 15.609375 1.957031 25.859375 5.230469 12.058594 3.851562 17.085937 7.527344 18.519531 9.148437-1.433594 1.625-6.460937 5.300781-18.515625 9.152344zm0 0"/><path d="m251.90625 281.78125-85.589844 85.589844-22.011718-22.007813 85.847656-85.84375-10.605469-10.609375-85.847656 85.847656-4.578125-4.578124-102.332032 102.332031-2.113281-2.113281-22.230469 22.234374v12.0625l2.179688 2.179688c-6.757812 11.476562-5.214844 26.523438 4.628906 36.367188s24.890625 11.390624 36.371094 4.632812l2.175781 2.179688h12.066407l22.230468-22.234376-2.109375-2.109374 102.332031-102.332032-5.398437-5.398437 85.589844-85.589844zm-232.042969 210.855469c-3.90625-3.90625-5.199219-9.414063-3.882812-14.402344l18.277343 18.277344c-4.976562 1.308593-10.503906.019531-14.394531-3.875zm33.972657 2.234375-18.105469-18.101563-18.105469-18.105469 7.054688-7.050781 18.101562 18.105469 18.105469 18.101562zm-.449219-35.761719-15.992188-15.992187 91.726563-91.722657 31.984375 31.984375-9.859375 9.859375-23.148438-23.148437-10.605468 10.609375 23.148437 23.148437-9.859375 9.859375-23.148438-23.148437-10.605468 10.605468 23.148437 23.148438-9.859375 9.859375-23.148437-23.148437-10.605469 10.605468 23.148438 23.148438-9.859376 9.859375-23.148437-23.148438-10.609375 10.609375 23.148438 23.148438-9.855469 9.859375zm0 0"/><path d="m170.109375 352.175781-10.605469-10.609375 26.371094-26.367187 10.605469 10.605469zm33.441406-33.441406-10.605469-10.609375 10.605469-10.605469 10.609375 10.609375zm17.679688-17.679687-10.605469-10.605469 10.605469-10.609375 10.605469 10.609375zm0 0" fill="#fff"/><path d="m357.71875 221.1875-.90625-14.972656c4.328125-.261719 8.589844-1.109375 12.675781-2.519532l4.890625 14.183594c-5.371094 1.851563-10.976562 2.964844-16.660156 3.308594zm-11.328125-.332031c-14.070313-1.683594-26.8125-7.882813-36.847656-17.921875l10.605469-10.605469c7.636718 7.640625 17.328124 12.355469 28.027343 13.636719zm38.335937-7.636719-7.378906-13.058594c3.75-2.121094 7.210938-4.753906 10.289063-7.832031l10.605469 10.605469c-4.035157 4.039062-8.582032 7.5-13.515626 10.285156zm0 0" fill="#fff"/></svg>