<svg height="512pt" viewBox="-42 0 511 512" width="512pt" xmlns="http://www.w3.org/2000/svg"><path d="m419.011719 280.871094v-68.222656h-171.394531v-205.152344h-68.226563v205.152344h-171.394531v68.222656zm0 0" fill="#787680"/><path d="m247.617188 38.8125c81.5 15.902344 143.015624 87.679688 143.015624 173.835938h-143.015624zm-68.226563 0c-81.5 15.902344-143.015625 87.679688-143.015625 173.835938h143.015625zm0 0" fill="#c6c5ca"/><path d="m179.363281 365.988281h-56.992187c-47.011719 0-85.121094-38.109375-85.121094-85.117187h95.421875c25.785156 0 46.691406 20.90625 46.691406 46.691406zm0 0" fill="#e0e0e2"/><path d="m324.320312 280.871094h-29.984374c-25.785157 0-46.6875 20.902344-46.6875 46.691406v38.425781h29.980468v-38.425781c0-25.789062 20.90625-46.691406 46.691406-46.691406zm0 0" fill="#c6c5ca"/><path d="m179.363281 330.972656h-56.992187c-27.671875 0-50.101563-22.433594-50.101563-50.101562h60.402344c25.785156 0 46.691406 20.90625 46.691406 46.691406zm0 0" fill="#787680"/><path d="m247.648438 365.988281h56.992187c47.007813 0 85.117187-38.109375 85.117187-85.117187h-95.421874c-25.785157 0-46.6875 20.90625-46.6875 46.691406zm0 0" fill="#e0e0e2"/><path d="m247.648438 330.972656h56.992187c27.667969 0 50.097656-22.433594 50.097656-50.101562h-60.402343c-25.785157 0-46.6875 20.90625-46.6875 46.691406zm0 0" fill="#787680"/><g fill="#c6c5ca"><path d="m179.390625 327.5625v77.957031l34.113281 34.113281 34.113282-34.113281v-77.957031c0-25.789062 20.902343-46.691406 46.6875-46.691406h-161.601563c25.785156 0 46.6875 20.902344 46.6875 46.691406zm0 0"/><path d="m101.488281 470.253906-13.023437-6.078125c-31.242188-14.585937-51.210938-45.945312-51.210938-80.421875v-102.882812h-24.519531v153.242187c0 38.875 31.515625 70.390625 70.394531 70.390625h18.359375zm0 0"/><path d="m325.523438 470.253906 13.019531-6.078125c31.246093-14.585937 51.214843-45.945312 51.214843-80.421875v-102.882812h24.515626v153.242187c0 38.875-31.515626 70.390625-70.394532 70.390625h-18.359375v-34.25zm0 0"/></g><path d="m179.390625 7.496094h29.984375v205.152344h-29.984375zm0 0" fill="#57565c"/><path d="m7.996094 212.648438h29.984375v68.222656h-29.984375zm0 0" fill="#57565c"/><path d="m179.390625 47.484375v-8.671875c-81.5 15.902344-143.015625 87.679688-143.015625 173.835938h29.984375c0-75.222657 46.890625-139.480469 113.03125-165.164063zm0 0" fill="#898890"/><path d="m247.617188 38.8125v173.835938h29.980468v-165.164063c-9.613281-3.734375-19.636718-6.652344-29.980468-8.671875zm0 0" fill="#898890"/><path d="m67.234375 280.871094h-29.984375c0 47.007812 38.109375 85.117187 85.121094 85.117187h29.980468c-47.007812 0-85.117187-38.109375-85.117187-85.117187zm0 0" fill="#c6c5ca"/><path d="m102.253906 280.871094h-29.984375c0 27.671875 22.429688 50.101562 50.101563 50.101562h29.980468c-27.667968 0-50.097656-22.433594-50.097656-50.101562zm0 0" fill="#57565c"/><path d="m324.320312 280.871094h-29.984374c-25.785157 0-46.6875 20.902344-46.6875 46.691406v3.410156h29.980468v-3.410156c0-25.789062 20.90625-46.691406 46.691406-46.691406zm0 0" fill="#57565c"/><path d="m209.375 405.519531v-77.957031c0-25.789062-20.902344-46.691406-46.691406-46.691406h-29.980469c25.785156 0 46.6875 20.902344 46.6875 46.691406v77.957031l34.113281 34.113281 14.992188-14.992187zm0 0" fill="#898890"/><path d="m42.71875 434.113281v-19.6875c-3.558594-9.65625-5.46875-20.015625-5.46875-30.671875v-102.882812h-24.515625v153.242187c0 38.875 31.515625 70.390625 70.394531 70.390625h18.359375v-.957031c-33.347656-5.539063-58.769531-34.515625-58.769531-69.433594zm0 0" fill="#898890"/><path d="m355.503906 470.253906 13.023438-6.078125c21.585937-10.078125 37.789062-28.160156 45.746094-49.75v-133.554687h-24.515626v102.882812c0 34.476563-19.96875 65.835938-51.210937 80.421875l-13.023437 6.078125v34.25h18.359374c3.960938 0 7.84375-.328125 11.625-.957031v-33.292969zm0 0" fill="#898890"/><path d="m304.640625 338.46875c29.21875 0 53.425781-21.871094 57.109375-50.101562h64.761719v-83.214844h-171.398438v-205.152344h-83.214843v205.152344h-171.398438v83.214844h64.761719c3.683593 28.230468 27.890625 50.101562 57.109375 50.101562h49.527344v20.027344h-49.527344c-36.023438 0-67.054688-24.425782-75.46875-59.390625l-17.144532 1.753906v82.894531c0 37.230469 21.800782 71.464844 55.535157 87.210938l8.699219 4.0625v21.980468h-10.863282c-34.683594 0-62.898437-28.210937-62.898437-62.894531v-133.253906h-14.988281v133.253906c0 42.945313 34.9375 77.886719 77.886718 77.886719h25.851563v-46.523438l-17.34375-8.09375c-28.484375-13.296874-46.890625-42.199218-46.890625-73.632812v-52.214844c16.691406 25.660156 45.496094 41.949219 77.625 41.949219h49.527344v35.140625l41.605468 41.609375 41.609375-41.609375v-35.140625h49.527344c32.128906 0 60.933594-16.289063 77.621094-41.949219v52.214844c0 31.433594-18.402344 60.335938-46.886719 73.632812l-17.347656 8.09375v46.523438h25.855468c42.945313 0 77.886719-34.941406 77.886719-77.886719v-133.253906h-14.992187v133.253906c0 34.679688-28.214844 62.894531-62.894532 62.894531h-10.863281v-21.980468l8.695313-4.0625c33.738281-15.746094 55.539062-49.980469 55.539062-87.214844v-82.890625l-17.144531-1.753906c-8.414063 34.964843-39.449219 59.386719-75.46875 59.386719h-49.527344v-20.023438zm0-14.992188h-49.316406c2.046875-19.699218 18.75-35.109374 38.984375-35.109374h52.273437c-3.550781 19.929687-21.007812 35.109374-41.941406 35.109374zm-289.148437-50.101562v-53.234375h171.398437v-205.148437h53.230469v205.152343h171.398437v53.230469zm106.878906 50.101562c-20.9375 0-38.394532-15.179687-41.945313-35.109374h52.277344c20.230469 0 36.933594 15.410156 38.980469 35.109374zm117.75 4.085938v74.851562l-26.617188 26.617188-26.613281-26.617188v-74.851562c0-15.402344-6.457031-29.320312-16.808594-39.195312h86.847657c-10.351563 9.875-16.808594 23.792968-16.808594 39.195312zm0 0"/><path d="m206.007812 61.832031h14.992188v14.992188h-14.992188zm0 0"/><path d="m206.007812 90.824219h14.992188v14.992187h-14.992188zm0 0"/><path d="m206.007812 120.808594h14.992188v14.988281h-14.992188zm0 0"/><path d="m206.007812 150.789062h14.992188v14.992188h-14.992188zm0 0"/><path d="m206.007812 180.773438h14.992188v14.992187h-14.992188zm0 0"/><path d="m206.007812 210.757812h14.992188v14.988282h-14.992188zm0 0"/><path d="m86.078125 240.730469h14.992187v14.992187h-14.992187zm0 0"/><path d="m56.09375 240.730469h14.992188v14.992187h-14.992188zm0 0"/><path d="m26.113281 240.730469h14.988281v14.992187h-14.988281zm0 0"/><path d="m116.058594 240.730469h14.992187v14.992187h-14.992187zm0 0"/><path d="m146.042969 240.730469h14.992187v14.992187h-14.992187zm0 0"/><path d="m176.027344 240.730469h14.992187v14.992187h-14.992187zm0 0"/><path d="m235.992188 240.730469h14.992187v14.992187h-14.992187zm0 0"/><path d="m265.976562 240.730469h14.988282v14.992187h-14.988282zm0 0"/><path d="m295.957031 240.730469h14.992188v14.992187h-14.992188zm0 0"/><path d="m325.941406 240.730469h14.992188v14.992187h-14.992188zm0 0"/><path d="m355.925781 240.730469h14.988281v14.992187h-14.988281zm0 0"/><path d="m385.90625 240.730469h14.992188v14.992187h-14.992188zm0 0"/><path d="m206.007812 240.738281h14.992188v14.992188h-14.992188zm0 0"/><path d="m382.066406 193.492188 14.898438-1.671876c-8.089844-72.023437-57.96875-132.871093-127.074219-155.011718l-4.574219 14.273437c63.492188 20.347657 109.320313 76.246094 116.75 142.410157zm0 0"/><path d="m161.691406 51.085938-4.574218-14.277344c-69.105469 22.140625-118.984376 82.988281-127.074219 155.011718l14.898437 1.675782c7.429688-66.167969 53.257813-122.066406 116.75-142.410156zm0 0"/><path d="m347.382812 490.90625-.914062-14.964844c18.5625-1.132812 34.328125-14.613281 38.339844-32.78125l14.636718 3.230469c-5.445312 24.667969-26.855468 42.976563-52.0625 44.515625zm0 0" fill="#fff"/><path d="m356.191406 188.894531c-5.398437-32.386719-21.925781-62.324219-46.539062-84.296875l9.980468-11.183594c27.15625 24.238282 45.390626 57.273438 51.34375 93.015626zm-53.832031-90.386719c-3.730469-2.914062-7.648437-5.675781-11.644531-8.207031l8.019531-12.667969c4.414063 2.796876 8.738281 5.847657 12.855469 9.0625zm-19.832031-13.019531c-4.164063-2.265625-8.484375-4.34375-12.835938-6.179687l5.820313-13.8125c4.808593 2.023437 9.578125 4.320312 14.179687 6.824218zm0 0" fill="#fff"/><path d="m230.125 395.171875h-14.988281v-39.6875h14.988281zm0-49.683594h-14.988281v-14.992187h14.988281zm.308594-24.242187-14.917969-1.464844c.539063-5.5 1.660156-10.949219 3.332031-16.199219l14.28125 4.550781c-1.351562 4.246094-2.257812 8.660157-2.695312 13.113282zm0 0" fill="#fff"/></svg>