<svg height="512pt" viewBox="0 0 512.00044 512" width="512pt" xmlns="http://www.w3.org/2000/svg"><path d="m155.695312 356.304688c-64.777343-64.777344-24.113281-210.460938 90.828126-325.402344-42.871094 42.867187-25.101563 130.121094 39.675781 194.898437 64.773437 64.777344 152.027343 82.542969 194.898437 39.671875-114.945312 114.945313-260.628906 155.609375-325.402344 90.832032zm0 0" fill="#b77062"/><path d="m441.410156 70.585938c-64.777344-64.777344-152.035156-82.542969-194.894531-39.679688-42.863281 42.863281-25.097656 130.117188 39.679687 194.894531 64.773438 64.777344 152.03125 82.539063 194.894532 39.679688 42.859375-42.863281 25.09375-130.121094-39.679688-194.894531zm0 0" fill="#fff5cc"/><path d="m451.789062 90.203125c-52.101562-52.101563-120.300781-68.375-152.328124-36.347656-32.027344 32.023437-15.753907 100.226562 36.347656 152.328125 52.101562 52.101562 120.304687 68.375 152.332031 36.347656 32.023437-32.027344 15.75-100.226562-36.351563-152.328125zm0 0" fill="#ffc477"/><path d="m421.792969 90.203125c-52.101563-52.101563-120.304688-68.375-152.332031-36.351563-32.027344 32.027344-15.753907 100.230469 36.351562 152.332032 52.101562 52.101562 120.300781 68.375 152.328125 36.347656s15.753906-100.226562-36.347656-152.328125zm0 0" fill="#ff7956"/><path d="m410.941406 131.050781c-15.402344-15.402343-35.5625-20.210937-45.03125-10.746093-9.464844 9.46875-4.65625 29.628906 10.746094 45.03125 15.402344 15.402343 35.5625 20.210937 45.03125 10.746093 9.464844-9.46875 4.65625-29.628906-10.746094-45.03125zm0 0" fill="#ff3f62"/><path d="m380.945312 131.050781c-15.402343-15.402343-35.5625-20.210937-45.03125-10.746093-9.46875 9.46875-4.65625 29.628906 10.746094 45.03125 15.402344 15.402343 35.5625 20.210937 45.027344 10.746093 9.46875-9.46875 4.65625-29.628906-10.742188-45.03125zm0 0" fill="#fff5cc"/><path d="m155.695312 356.304688c-7.382812-7.382813-13.382812-15.828126-18.070312-25.144532l-79.40625 79.402344h-50.71875v49.167969h44.765625v44.765625h49.167969v-50.71875l79.402344-79.40625c-9.316407-4.6875-17.761719-10.683594-25.140626-18.066406zm0 0" fill="#fff5cc"/><path d="m456.4375 288.601562c8.347656-7.335937 16.578125-15.046874 24.660156-23.128906-12.59375 12.59375-29.011718 19.953125-47.566406 22.429688 7.859375.945312 15.527344 1.183594 22.90625.699218zm0 0" fill="#895247"/><path d="m185.691406 356.304688c-53.4375-53.4375-35.117187-161.933594 37.460938-262.808594-.085938-24.695313 7.476562-46.695313 23.371094-62.59375-114.941407 114.941406-155.605469 260.625-90.828126 325.402344 23.976563 23.976562 59.039063 33.507812 99.523438 30.171874-27.75-2.507812-51.703125-12.347656-69.527344-30.171874zm0 0" fill="#895247"/><path d="m316.195312 225.800781c-64.777343-64.777343-82.542968-152.035156-39.679687-194.898437 12.585937-12.585938 29.003906-19.945313 47.558594-22.417969-30.707031-3.699219-58.515625 3.375-77.554688 22.417969-42.863281 42.863281-25.097656 130.121094 39.675781 194.898437 45.753907 45.753907 102.722657 68.050781 147.339844 62.101563-38.40625-4.625-81.34375-26.105469-117.339844-62.101563zm0 0" fill="#ffc477"/><path d="m335.8125 206.183594c-52.105469-52.101563-68.378906-120.304688-36.351562-152.332032 7.972656-7.972656 18.1875-12.953124 29.835937-15.132812-24.050781-3.832031-45.542969.839844-59.832031 15.132812-32.027344 32.027344-15.753906 100.230469 36.347656 152.332032 39.132812 39.132812 87.351562 58.054687 122.496094 51.480468-29.851563-4.757812-63.640625-22.625-92.496094-51.480468zm0 0" fill="#ff3f62"/><g fill="#ffc477"><path d="m376.660156 165.335938c-15.402344-15.402344-20.210937-35.566407-10.746094-45.03125.070313-.070313.140626-.136719.210938-.207032-11.777344-6.054687-23.597656-6.402344-30.207031.207032-9.46875 9.464843-4.65625 29.628906 10.746093 45.03125 15.289063 15.289062 35.265626 20.140624 44.820313 10.949218-5.09375-2.617187-10.175781-6.300781-14.824219-10.949218zm0 0"/><path d="m149.414062 349.367188c-4.585937-5.597657-8.507812-11.6875-11.789062-18.207032l-79.40625 79.402344h30zm0 0"/><path d="m37.496094 459.730469v-49.167969h-29.996094v49.167969h44.765625v44.765625h29.996094v-44.765625zm0 0"/></g><path d="m446.71875 65.28125c-66.496094-66.496094-158.582031-86.601562-205.503906-39.679688-46.953125 46.953126-26.78125 139.042969 39.679687 205.503907 66.957031 66.957031 158.824219 86.355469 205.503907 39.679687 46.941406-46.945312 26.792968-139.03125-39.679688-205.503906zm29.070312 194.898438c-18.890624 18.890624-48.164062 25.453124-82.429687 18.476562-35.386719-7.203125-71.558594-27.859375-101.859375-58.160156-30.300781-30.296875-50.953125-66.472656-58.160156-101.859375-14.425782-70.851563 30.007812-115.339844 100.910156-100.910157 35.386719 7.207032 71.558594 27.859376 101.859375 58.160157s50.953125 66.472656 58.160156 101.859375c6.976563 34.265625.414063 63.539062-18.480469 82.433594zm0 0"/><path d="m427.101562 84.898438c-26.167968-26.164063-57.15625-44.53125-87.257812-51.714844-31.402344-7.496094-58.28125-2.035156-75.683594 15.367187-36.769531 36.769531-16.46875 110.113281 36.351563 162.9375 54.289062 54.289063 127.054687 72.230469 162.9375 36.347657 36.03125-36.03125 17.660156-108.925782-36.347657-162.9375zm25.742188 152.332031c-28.980469 28.980469-93.175781 12.203125-141.726562-36.351563-48.589844-48.589844-65.308594-112.761718-36.347657-141.722656 29.160157-29.164062 93.457031-11.917969 141.722657 36.347656 48.621093 48.617188 65.296874 112.777344 36.351562 141.726563zm0 0"/><path d="m386.25 125.746094c-18.609375-18.609375-43.046875-23.332032-55.636719-10.746094-12.585937 12.585938-7.867187 37.027344 10.746094 55.636719 18.613281 18.613281 43.050781 23.332031 55.636719 10.746093 13.066406-13.066406 7.160156-37.730468-10.746094-55.636718zm.140625 45.03125c-5.597656 5.597656-21.117187 2.5625-34.425781-10.746094s-16.34375-28.824219-10.746094-34.425781c5.601562-5.597657 21.117188-2.5625 34.425781 10.746093 12.789063 12.789063 16.554688 28.617188 10.746094 34.425782zm0 0"/><path d="m93.933594 450.671875v46.328125h-34.167969v-44.765625h-44.765625v-34.171875h46.324219l66.859375-66.859375-10.605469-10.605469-62.464844 62.46875h-55.113281v64.164063h44.765625v44.765625h64.167969v-55.113282l62.464844-62.464843-10.605469-10.605469zm0 0"/><path d="m274.632812 376.347656c-48.238281 8.699219-88.597656-.304687-113.636718-25.347656-25.03125-25.03125-34.035156-65.371094-25.355469-113.589844 8.789063-48.8125 35.097656-103.34375 74.074219-153.542968l-11.847656-9.195313c-40.4375 52.074219-67.777344 108.925781-76.988282 160.078125-9.578125 53.199219.902344 98.25 29.511719 126.859375 32.5 32.5 81.375 37.707031 126.902344 29.5 51.175781-9.222656 108.046875-36.589844 160.136719-77.054687l-9.203126-11.847657c-50.210937 39.007813-104.757812 65.339844-153.59375 74.140625zm0 0"/><path d="m239.878906 369.625v-15c29.769532 0 64.34375-9.101562 99.980469-26.320312l6.527344 13.503906c-37.660157 18.199218-74.492188 27.816406-106.507813 27.816406zm115.632813-32.382812-6.894531-13.316407c4.296874-2.226562 8.644531-4.585937 12.925781-7.019531l7.410156 13.042969c-4.449219 2.527343-8.96875 4.980469-13.441406 7.292969zm22.230469-12.433594-7.726563-12.855469c4.15625-2.5 8.359375-5.132813 12.484375-7.816406l8.183594 12.570312c-4.277344 2.78125-8.628906 5.507813-12.941406 8.101563zm0 0" fill="#fff"/><path d="m413.90625 241.449219c-3.933594 0-8.050781-.320313-12.238281-.949219l2.234375-14.832031c4.6875.707031 9.28125.933593 13.363281.679687l.941406 14.96875c-1.390625.085938-2.839843.132813-4.300781.132813zm15.753906-2.046875-4.160156-14.410156c3.941406-1.136719 7.195312-2.96875 9.664062-5.4375l10.609376 10.605468c-4.285157 4.285156-9.707032 7.394532-16.113282 9.242188zm-38.5625-1.097656c-24.476562-6.417969-51.054687-22.636719-72.910156-44.496094l10.605469-10.605469c20.03125 20.035156 44.128906 34.828125 66.109375 40.597656zm0 0" fill="#fff"/><path d="m82.566406 447.898438-10.605468-10.605469 29.421874-29.421875 10.609376 10.601562zm36.496094-36.496094-10.609375-10.605469 10.605469-10.605469 10.605468 10.605469zm17.675781-17.675782-10.605469-10.605468 10.601563-10.605469 10.609375 10.605469zm0 0" fill="#fff"/></svg>