<svg height="512pt" viewBox="-67 0 512 512" width="512pt" xmlns="http://www.w3.org/2000/svg"><path d="m320.113281 504.5h-262.742187c-19.394532-19.394531-30.476563-30.476562-49.871094-49.871094v-397.257812c19.394531-19.394532 30.476562-30.476563 49.871094-49.871094h262.742187c19.394531 19.394531 30.476563 30.476562 49.871094 49.871094v397.257812c-19.394531 19.394532-30.476563 30.476563-49.871094 49.871094zm0 0" fill="#57a4ff"/><path d="m312.808594 454h-188.132813c-14.363281-14.363281-22.570312-22.570312-36.933593-36.933594v-322.132812c14.363281-14.363282 22.570312-22.570313 36.933593-36.933594h188.132813c14.363281 14.363281 22.570312 22.570312 36.933594 36.933594v322.132812c-14.363282 14.363282-22.570313 22.570313-36.933594 36.933594zm0 0" fill="#006df0"/><path d="m282.808594 454h-188.132813c-14.363281-14.363281-22.570312-22.570312-36.933593-36.933594v-322.132812c14.363281-14.363282 22.570312-22.570313 36.933593-36.933594h188.132813c14.363281 14.363281 22.570312 22.570312 36.933594 36.933594v322.132812c-14.363282 14.363282-22.570313 22.570313-36.933594 36.933594zm0 0" fill="#bddbff"/><path d="m279.742188 256c0 33.6875-27.3125 61-61 61-33.691407 0-61-27.3125-61-61s27.308593-61 61-61c33.6875 0 61 27.3125 61 61zm0 0" fill="#57a4ff"/><path d="m249.742188 256c0 33.6875-27.3125 61-61 61-33.691407 0-61-27.3125-61-61s27.308593-61 61-61c33.6875 0 61 27.3125 61 61zm0 0" fill="#ffb655"/><path d="m37.5 454.628906v-397.257812l49.871094-49.871094h-30l-49.871094 49.871094v397.257812c19.394531 19.394532 30.476562 30.476563 49.871094 49.871094h30c-19.394532-19.394531-30.476563-30.476562-49.871094-49.871094zm0 0" fill="#006df0"/><path d="m87.742188 417.066406v-322.132812l36.933593-36.933594h-30l-36.933593 36.933594v322.132812c14.363281 14.363282 22.570312 22.570313 36.933593 36.933594h30c-14.363281-14.363281-22.570312-22.570312-36.933593-36.933594zm0 0" fill="#57a4ff"/><path d="m157.742188 256c0-28.511719 19.5625-52.457031 46-59.140625-4.800782-1.214844-9.824219-1.859375-15-1.859375-33.6875 0-61 27.3125-61 61s27.3125 61 61 61c5.175781 0 10.199218-.644531 15-1.859375-26.4375-6.683594-46-30.628906-46-59.140625zm0 0" fill="#ff7956"/><path d="m377.484375 350.0625v-295.796875l-54.265625-54.265625h-268.953125l-54.265625 54.265625v403.46875l54.265625 54.265625h268.953125l54.265625-54.265625v-87.671875h-15v81.460938l-45.476563 45.476562h-256.53125l-45.476562-45.476562v-391.046876l45.476562-45.476562h256.53125l45.476563 45.476562v289.585938zm0 0"/><path d="m354.476562 78.332031-8.984374-12.015625-25.039063 18.722656-27.777344-27.777343 18.695313-25.304688-12.066406-8.914062-20.28125 27.457031h-180.5625l-20.28125-27.457031-12.066407 8.914062 18.695313 25.304688-27.777344 27.777343-25.039062-18.722656-8.984376 12.015625 27.234376 20.359375v59.777344h15v-60.429688l32.539062-32.539062h181.917969l32.542969 32.539062v315.917969l-32.542969 32.542969h-181.917969l-32.539062-32.542969v-235.488281h-15v234.839844l-27.234376 20.359375 8.984376 12.015625 25.039062-18.722656 27.777344 27.777343-18.695313 25.304688 12.066407 8.914062 20.28125-27.457031h180.5625l20.28125 27.457031 12.066406-8.914062-18.695313-25.304688 27.777344-27.777343 25.039063 18.722656 8.984374-12.015625-27.234374-20.359375v-314.617188zm0 0"/><path d="m94.675781 248.5v15h25.972657c1.453124 13.273438 6.714843 25.421875 14.664062 35.320312l-18.390625 18.390626 10.609375 10.605468 18.386719-18.386718c9.898437 7.949218 22.046875 13.210937 35.320312 14.664062v25.972656h15v-25.972656c13.277344-1.453125 25.421875-6.714844 35.324219-14.664062l18.386719 18.386718 10.609375-10.605468-18.390625-18.390626c7.949219-9.898437 13.210937-22.046874 14.664062-35.320312h25.972657v-15h-25.972657c-1.453125-13.273438-6.714843-25.421875-14.664062-35.320312l18.386719-18.390626-10.605469-10.605468-18.386719 18.386718c-9.902344-7.949218-22.046875-13.210937-35.324219-14.664062v-25.972656h-15v25.972656c-13.273437 1.453125-25.421875 6.714844-35.320312 14.664062l-18.390625-18.386718-10.605469 10.605468 18.386719 18.390626c-7.949219 9.898437-13.210938 22.042968-14.660156 35.320312zm94.066407-46c29.5 0 53.5 24 53.5 53.5s-24 53.5-53.5 53.5-53.5-24-53.5-53.5 24-53.5 53.5-53.5zm0 0"/><g fill="#fff"><path d="m352.484375 273h-15v-112h15zm0-122h-15v-15h15zm0-25h-15v-15h15zm0 0"/><path d="m277.753906 434.304688-10.605468-10.609376 20.09375-20.09375v-56.601562h15v62.816406zm24.488282-97.304688h-15v-15h15zm0-25h-15v-15h15zm0 0"/><path d="m188.742188 299.484375c-11.628907 0-22.554688-4.519531-30.757813-12.726563l10.605469-10.605468c5.371094 5.371094 12.527344 8.332031 20.152344 8.332031 7.621093 0 14.777343-2.960937 20.152343-8.332031 1.226563-1.226563 2.339844-2.5625 3.316407-3.976563l12.34375 8.519531c-1.488282 2.15625-3.1875 4.195313-5.054688 6.0625-8.203125 8.207032-19.128906 12.726563-30.757812 12.726563zm41.210937-29.570313-14.21875-4.78125c.988281-2.941406 1.488281-6.015624 1.488281-9.132812 0-.863281-.039062-1.734375-.117187-2.589844l14.941406-1.355468c.117187 1.304687.175781 2.628906.175781 3.945312 0 4.746094-.761718 9.429688-2.269531 13.914062zm-14.632813-24.199218c-1.429687-3.710938-3.589843-7.03125-6.425781-9.867188l10.605469-10.605468c4.328125 4.328124 7.632812 9.402343 9.820312 15.089843zm0 0"/></g></svg>