<svg height="512pt" viewBox="0 -52 512 512" width="512pt" xmlns="http://www.w3.org/2000/svg"><path d="m116.757812 305.4375c104.84375 104.84375 276.144532 100.394531 375.402344-9.746094l9.742188-10.808594-9.742188-10.808593c-99.257812-110.140625-270.558594-114.589844-375.402344-9.75l-102.382812-81.21875c20.59375 66.289062 20.59375 137.269531-.003906 203.558593zm0 0" fill="#b77062"/><path d="m348.167969 193.042969-47.800781-47.796875h-155.300782l60.8125 60.8125c45.511719-17.691406 94.941406-21.964844 142.289063-13.015625zm0 0" fill="#ff7956"/><path d="m171.71875 347.421875-53.574219 53.574219h87.109375l28.3125-28.3125c-21.375-5.632813-42.179687-14.046875-61.847656-25.261719zm0 0" fill="#ff7956"/><path d="m492.160156 274.074219c-32.394531-35.949219-72.46875-60.628907-115.398437-73.933594-16.398438 24.167969-25.984375 53.335937-25.984375 84.742187s9.585937 60.574219 25.984375 84.742188c42.929687-13.304688 83.003906-37.984375 115.398437-73.933594l9.742188-10.808594zm0 0" fill="#ffb655"/><path d="m52.234375 356.625c10.117187-47.289062 10.117187-96.191406 0-143.484375l-37.859375-30.035156c20.59375 66.289062 20.59375 137.269531-.003906 203.558593zm0 0" fill="#895247"/><g fill="#ff3f62"><path d="m175.066406 145.246094h-30l60.8125 60.8125c7.386719-2.871094 14.878906-5.390625 22.449219-7.554688zm0 0"/><path d="m314.746094 188.941406c11.203125.644532 22.367187 2.011719 33.421875 4.101563l-4.144531-4.144531c-9.746094-.53125-19.523438-.519532-29.277344.042968zm0 0"/><path d="m171.71875 347.421875-53.574219 53.574219h30l43.390625-43.390625c-6.714844-3.089844-13.328125-6.484375-19.816406-10.183594zm0 0"/></g><path d="m380.78125 284.882812c0-27.632812 7.417969-53.53125 20.371094-75.816406-8.003906-3.394531-16.144532-6.371094-24.390625-8.925781-16.398438 24.167969-25.984375 53.335937-25.984375 84.742187s9.585937 60.574219 25.984375 84.742188c8.246093-2.554688 16.386719-5.53125 24.390625-8.925781-12.953125-22.285157-20.371094-48.183594-20.371094-75.816407zm0 0" fill="#ff7956"/><path d="m46.6875 264.300781 4.257812-14.382812 42.539063 12.589843-4.257813 14.382813zm0 0"/><path d="m46.703125 305.476562 42.539063-12.59375 4.257812 14.386719-42.539062 12.59375zm0 0"/><path d="m373.128906 221.214844-13.441406-6.660156c-10.886719 21.976562-16.40625 45.636718-16.40625 70.328124 0 24.691407 5.519531 48.355469 16.40625 70.328126l13.441406-6.660157c-9.851562-19.886719-14.847656-41.308593-14.847656-63.667969 0-22.359374 4.992188-43.78125 14.847656-63.667968zm0 0"/><path d="m282.402344 250.671875-23.601563 23.601563-18.296875-18.296876 35.273438-35.273437-10.609375-10.605469-35.269531 35.273438-17.886719-17.890625-10.609375 10.609375 17.886718 17.886718-18.300781 18.296876-23.597656-23.601563-10.609375 10.609375 23.601562 23.601562-23.601562 23.601563 10.609375 10.605469 23.597656-23.601563 18.300781 18.300781-17.886718 17.886719 10.609375 10.605469 17.886719-17.886719 35.269531 35.273438 10.609375-10.609375-35.273438-35.273438 18.296875-18.296875 23.601563 23.601563 10.609375-10.605469-23.601563-23.601563 23.601563-23.601562zm-52.507813 52.507813-18.296875-18.296876 18.296875-18.300781 18.300781 18.300781zm0 0"/><path d="m416.503906 242.09375-14.878906 14.882812-14.878906-14.882812-10.609375 10.609375 14.878906 14.878906-14.878906 14.878907 10.609375 10.609374 14.878906-14.878906 14.878906 14.878906 10.609375-10.609374-14.878906-14.878907 14.878906-14.878906zm0 0"/><path d="m333.523438 130.476562 10.609374-10.605468-9.398437-9.398438c-4.691406-4.6875-4.691406-12.316406 0-17l45.855469-45.859375c10.535156-10.535156 10.535156-27.679687 0-38.214843l-9.398438-9.398438-10.605468 10.605469 9.398437 9.398437c4.6875 4.6875 4.6875 12.316406 0 17l-45.859375 45.859375c-10.535156 10.535157-10.535156 27.679688 0 38.214844zm0 0"/><path d="m405.96875 72.988281-45.859375 45.855469c-10.535156 10.535156-10.535156 27.679688 0 38.214844l9.398437 9.398437 10.609376-10.605469-9.398438-9.398437c-4.6875-4.6875-4.6875-12.3125 0-17l45.855469-45.859375c10.535156-10.535156 10.535156-27.679688 0-38.214844l-9.398438-9.398437-10.605469 10.609375 9.398438 9.398437c4.6875 4.6875 4.6875 12.3125 0 17zm0 0"/><path d="m195.78125 185.351562-32.609375-32.605468h134.089844l22.140625 22.140625 10.609375-10.609375-26.535157-26.535156h-176.519531l58.214844 58.21875zm0 0"/><path d="m497.734375 269.050781c-50.460937-55.992187-119.625-86.113281-190.988281-87.96875-4.65625-.121093-9.300782-.121093-13.925782-.003906l-21.140624-21.140625-10.609376 10.605469 11.785157 11.78125c-8.417969.84375-16.773438 2.089843-25.046875 3.730469l-26.117188-26.117188-10.609375 10.605469 19.523438 19.523437c-42.59375 11.445313-81.675781 33.148438-114.359375 64.277344l-116.24218775-92.210938 7.20703175 23.199219c20.234374 65.128907 20.234374 133.976563 0 199.105469l-7.210938 23.199219 116.246094-92.21875c13.386718 12.75 27.863281 23.953125 43.324218 33.542969l-59.535156 59.535156h108.324219l27.457031-27.457032c23.078125 5.703126 46.820313 8.265626 70.929688 7.640626 71.335937-1.851563 140.507812-31.957032 190.984375-87.96875l14.269531-15.832032zm-295.585937 124.445313h-65.898438l36.746094-36.746094c14.988281 8.113281 30.566406 14.648438 46.269531 19.628906zm284.441406-102.824219c-46.617188 51.722656-110.621094 81.203125-180.230469 83.011719-69.601563 1.808594-135.058594-24.3125-184.296875-73.550782l-4.726562-4.726562-89.644532 71.113281c12.933594-53.804687 12.933594-109.46875 0-163.273437l89.644532 71.109375 4.726562-4.726563c49.238281-49.238281 114.695312-75.363281 184.296875-73.550781 69.609375 1.808594 133.613281 31.289063 180.230469 83.015625l5.214844 5.785156zm0 0"/><path d="m392.011719 343.089844-5.78125-13.84375c12.484375-5.214844 24.578125-11.617188 35.941406-19.035156l8.199219 12.566406c-12.125 7.914062-25.03125 14.746094-38.359375 20.3125zm46.882812-26.140625-8.730469-12.195313c3.917969-2.808594 7.792969-5.777344 11.519532-8.828125l9.503906 11.609375c-3.976562 3.253906-8.113281 6.421875-12.292969 9.414063zm20.136719-16.125-9.992188-11.1875c3.597657-3.210938 7.132813-6.582031 10.507813-10.015625l10.695313 10.523437c-3.601563 3.660157-7.375 7.253907-11.210938 10.679688zm0 0" fill="#fff"/><path d="m331.53125 359.335938c-10.296875-23.523438-15.519531-48.570313-15.519531-74.453126 0-8.152343.535156-16.367187 1.589843-24.410156l14.875 1.953125c-.972656 7.398438-1.464843 14.953125-1.464843 22.457031 0 23.796876 4.796875 46.824219 14.261719 68.4375zm2.457031-106.367188-14.738281-2.785156c.964844-5.105469 2.15625-10.226563 3.546875-15.222656l14.453125 4.019531c-1.277344 4.59375-2.375 9.296875-3.261719 13.988281zm6.085938-23.136719-14.199219-4.832031c1.671875-4.914062 3.574219-9.816406 5.65625-14.570312l13.742188 6.015624c-1.914063 4.367188-3.660157 8.871094-5.199219 13.386719zm0 0" fill="#fff"/></svg>