<svg height="511pt" viewBox="0 1 511 511.99988" width="511pt" xmlns="http://www.w3.org/2000/svg"><path d="m205.992188 335.554688-28.917969-28.917969 22.058593-22.363281 28.921876 28.921874zm0 0" fill="#ffb655"/><path d="m118.335938 423.214844-28.921876-28.921875 22.0625-22.363281 28.921876 28.921874zm0 0" fill="#ffb655"/><path d="m24.300781 504.492188-16.246093-16.25c-.019532-4.925782-.027344-7.703126-.042969-12.628907l15.808593-16.027343 28.921876 28.921874-15.726563 15.9375c-4.972656.019532-7.742187.027344-12.714844.046876zm0 0" fill="#c6c5ca"/><path d="m393.046875 82.5 36.777344 36.773438-100.035157 100.039062-36.777343-36.777344zm0 0" fill="#c6c5ca"/><path d="m421.660156 111.109375-20.445312-20.441406 15.328125-32.910157 47.835937-9.808593-9.808594 47.835937zm0 0" fill="#e0e0e2"/><path d="m288.835938 178.359375 45.128906 45.128906-23.464844 23.464844-45.128906-45.128906zm0 0" fill="#e0e0e2"/><g fill="#b77062"><path d="m177.074219 306.636719-65.445313 65.441406 28.921875 28.921875 65.347657-65.542969zm0 0"/><path d="m89.414062 394.292969-65.445312 65.445312 28.921875 28.921875 65.347656-65.542968zm0 0"/><path d="m228.054688 313.195312 74.339843-74.34375-28.917969-28.921874-74.300781 74.382812zm0 0"/></g><path d="m339.941406 104.875c-8.488281-8.488281-8.488281-22.25 0-30.738281 5.34375-5.34375 12.777344-7.324219 19.667969-5.9375l5.523437-13.539063-21.820312-12.6875c-25.128906-15.261718-58.785156-12.359375-80.984375 9.84375-21.996094 21.996094-25.222656 55.761719-9.679687 81.214844l12.710937 21.867188 13.464844-5.261719c-1.601563-7.039063.339843-14.726563 5.824219-20.207031 8.488281-8.488282 22.25-8.488282 30.738281 0 7.609375 7.605468 8.394531 19.453124 2.363281 27.9375l.359375.074218 48.851563-48.851562-.128907-.648438c-8.390625 5.253906-19.589843 4.234375-26.890625-3.066406zm0 0" fill="#c6c5ca"/><path d="m262.328125 51.816406c22.175781-22.175781 55.835937-25.117187 80.984375-9.84375l21.820312 12.6875 8.371094-20.519531c-35.582031-35.582031-93.269531-35.582031-128.851562 0-35.582032 35.582031-35.582032 93.273437 0 128.851563l20.710937-8.09375-12.714843-21.867188c-15.542969-25.453125-12.316407-59.21875 9.679687-81.214844zm0 0" fill="#787680"/><path d="m407.453125 172.386719c8.488281 8.488281 22.25 8.488281 30.738281 0 5.34375-5.34375 7.324219-12.777344 5.9375-19.667969l13.539063-5.523438 12.6875 21.820313c15.261719 25.128906 12.359375 58.785156-9.84375 80.984375-21.996094 21.996094-55.761719 25.222656-81.214844 9.679688l-21.871094-12.710938 5.265625-13.46875c7.039063 1.605469 14.726563-.335938 20.207032-5.820312 8.488281-8.488282 8.488281-22.25 0-30.738282-7.605469-7.609375-19.453126-8.394531-27.941407-2.363281l-.070312-.363281 48.851562-48.851563.648438.128907c-5.253907 8.394531-4.234375 19.59375 3.066406 26.894531zm0 0" fill="#c6c5ca"/><path d="m460.511719 250c22.175781-22.175781 25.117187-55.835938 9.84375-80.984375l-12.6875-21.820313 20.519531-8.371093c35.582031 35.582031 35.582031 93.269531 0 128.851562s-93.273438 35.582031-128.851562 0l8.089843-20.710937 21.871094 12.714844c25.453125 15.542968 59.21875 12.316406 81.214844-9.679688zm0 0" fill="#787680"/><path d="m197.070312 306.636719 12.132813-12.296875-10.070313-10.066406-22.058593 22.363281 28.917969 28.917969 9.933593-10.066407zm0 0" fill="#ff7956"/><path d="m109.414062 394.292969 12.128907-12.296875-10.066407-10.066406-22.0625 22.363281 28.921876 28.921875 9.933593-10.070313zm0 0" fill="#ff7956"/><path d="m28.050781 488.242188c-.015625-4.925782-.023437-7.703126-.042969-12.628907l5.878907-5.960937-10.066407-10.066406-15.808593 16.027343c.015625 4.925781.023437 7.703125.042969 12.628907l16.246093 16.246093c4.972657-.015625 7.742188-.023437 12.714844-.042969l3.59375-3.644531zm0 0" fill="#898890"/><path d="m323.011719 182.539062 85.039062-85.039062-15-15-100.039062 100.039062 36.777343 36.777344 15-15zm0 0" fill="#898890"/><path d="m421.214844 90.667969 15.324218-32.910157 26.960938-5.527343.878906-4.28125-47.835937 9.808593-15.328125 32.910157 20.445312 20.441406 13.644532-6.351563zm0 0" fill="#c6c5ca"/><path d="m285.371094 201.828125 13.464844-13.46875-10-9.996094-23.464844 23.464844 45.128906 45.128906 10-10zm0 0" fill="#c6c5ca"/><path d="m141.625 372.078125 50.445312-50.445313-14.996093-14.996093-65.445313 65.441406 28.921875 28.921875 14.972657-15.019531zm0 0" fill="#895247"/><path d="m53.96875 459.738281 50.445312-50.449219-15-14.996093-65.445312 65.445312 28.921875 28.921875 14.976563-15.023437zm0 0" fill="#895247"/><path d="m229.171875 284.3125 59.308594-59.375-15.003907-15.007812-74.300781 74.382812 28.878907 28.882812 15-15zm0 0" fill="#895247"/><path d="m282.21875 132.320312c-15.054688-25.367187-11.683594-58.714843 10.105469-80.503906 9.117187-9.117187 20.160156-14.976562 31.753906-17.664062-21.347656-4.945313-44.863281.777344-61.75 17.664062-21.996094 21.996094-25.222656 55.761719-9.679687 81.214844l12.710937 21.867188 13.464844-5.261719c-1.335938-5.875-.203125-12.199219 3.394531-17.316407zm0 0" fill="#898890"/><path d="m345.382812 129.429688c-8.363281-8.367188-21.851562-8.488282-30.367187-.363282.125.121094.25.238282.371094.363282 7.609375 7.605468 8.394531 19.453124 2.363281 27.9375l.359375.074218 27.640625-27.640625c-.121094-.125-.242188-.25-.367188-.371093zm0 0" fill="#898890"/><path d="m258.496094 55.984375c4.15625-7.855469 9.539062-15.230469 16.152344-21.847656 13.960937-13.960938 31.328124-22.445313 49.429687-25.449219-28.023437-4.652344-57.804687 3.832031-79.425781 25.449219-35.582032 35.585937-35.582032 93.273437 0 128.855469l20.710937-8.09375-12.714843-21.867188c-14.589844-23.894531-12.640626-55.113281 5.847656-77.046875zm0 0" fill="#57565c"/><path d="m409.296875 259.679688-21.871094-12.710938 5.261719-13.46875c7.042969 1.605469 14.726562-.335938 20.210938-5.820312 8.488281-8.488282 8.488281-22.25 0-30.738282-7.609376-7.609375-19.457032-8.394531-27.941407-2.363281l-.074219-.363281 22.207032-22.203125c-6.96875-7.304688-7.871094-18.269531-2.699219-26.519531l-.652344-.128907-48.851562 48.851563.074219.359375c8.484374-6.03125 20.332031-5.242188 27.941406 2.367187 8.488281 8.488282 8.488281 22.25 0 30.738282-5.484375 5.480468-13.167969 7.421874-20.210938 5.820312l-5.261718 13.464844 21.871093 12.714844c14.96875 9.144531 32.820313 11.789062 49.460938 7.941406-6.78125-1.566406-13.363281-4.214844-19.464844-7.941406zm0 0" fill="#898890"/><path d="m379.332031 267.675781 2.542969-6.503906c-.867188-.476563-1.726562-.972656-2.578125-1.492187l-21.871094-12.714844-8.089843 20.710937c21.617187 21.621094 51.398437 30.105469 79.425781 25.449219-18.101563-3.003906-35.46875-11.484375-49.429688-25.449219zm0 0" fill="#57565c"/><path d="m460.511719 250c-9.054688 9.054688-20.105469 14.929688-31.75 17.621094 21.5 4.972656 45.027343-.898438 61.75-17.621094 1.34375-1.347656 2.621093-2.734375 3.824219-4.160156 18.207031-34.417969 12.824218-78.046875-16.148438-107.015625l-20.519531 8.371093 12.6875 21.820313c15.273437 25.148437 12.332031 58.808594-9.84375 80.984375zm0 0" fill="#57565c"/><path d="m483.492188 133.519531-3.523438-3.523437-44.414062 18.117187 1.222656 6.078125c.941406 4.695313-.511719 9.515625-3.886719 12.894532-5.550781 5.550781-14.582031 5.550781-20.132813 0-4.722656-4.722657-5.550781-11.964844-2.011718-17.609376 1.222656-1.953124-2.347656 1.832032 29.6875-30.199218l-5.894532-5.890625 26.617188-12.398438 12.851562-62.667969-62.671874 12.851563-12.394532 26.613281-5.890625-5.890625c-31.992187 31.996094-28.25 28.46875-30.199219 29.6875-5.644531 3.539063-12.886718 2.710938-17.609374-2.011719-5.5625-5.5625-5.5625-14.566406 0-20.132812 3.378906-3.375 8.199218-4.832031 12.890624-3.886719l6.082032 1.222657 18.117187-44.414063-3.523437-3.523437c-38.449219-38.449219-101.007813-38.449219-139.460938 0-38.449218 38.449218-38.449218 101.011718 0 139.460937l3.46875 3.464844 44.757813-17.488281-1.433594-6.296876c-1.09375-4.8125.332031-9.765624 3.8125-13.246093 5.5625-5.5625 14.566406-5.5625 20.128906 0 4.933594 4.929687 5.585938 12.625 1.558594 18.292969-.957031 1.347656 1.296875-1.011719-18.625 18.910156l-4.179687-4.179688-34.070313 34.074219 55.734375 55.734375 34.074219-34.070312-4.179688-4.175782c19.921875-19.921875 17.558594-17.667968 18.910157-18.625 5.667968-4.03125 13.363281-3.378906 18.292968 1.554688 5.5625 5.5625 5.5625 14.566406 0 20.128906-3.480468 3.484375-8.433594 4.910156-13.242187 3.8125l-6.300781-1.429688-17.488282 44.753907 3.464844 3.46875c19.226562 19.226562 44.476562 28.839843 69.730469 28.835937 25.25 0 50.507812-9.613281 69.730469-28.835937 38.539062-38.539063 38.542968-100.917969 0-139.460938zm-64.675782-62.878906 11.433594 11.433594 10.609375-10.605469-9.164063-9.160156 23.050782-4.726563-6.769532 33-24.726562 11.515625-13.019531-13.023437zm-98.128906 53.484375c-11.425781-11.425781-29.914062-11.429688-41.339844 0-5.566406 5.5625-8.574218 12.953125-8.574218 20.609375l-24.144532 9.433594c-29.238281-32.792969-28.128906-83.273438 3.324219-114.726563 31.4375-31.433594 81.875-32.558594 114.667969-3.378906l-9.875 24.210938c-7.484375.140624-14.695313 3.148437-20.109375 8.5625-5.519531 5.519531-8.5625 12.863281-8.5625 20.671874 0 7.808594 3.039062 15.148438 8.5625 20.671876 3.636719 3.636718 8 6.144531 12.648437 7.480468l-19.125 19.125c-1.328125-4.648437-3.832031-9.023437-7.472656-12.660156zm-44.710938 77.703125 12.859376-12.859375 34.523437 34.523438-12.859375 12.859374zm27.640626-19.289063 89.433593-89.429687 26.167969 26.167969-89.429688 89.433594zm169.265624 79.835938c-31.453124 31.453125-81.929687 32.5625-114.722656 3.324219l9.433594-24.144531c7.65625 0 15.046875-3.007813 20.609375-8.570313 11.425781-11.429687 11.425781-29.917969 0-41.34375-3.636719-3.640625-8.011719-6.140625-12.660156-7.472656l19.128906-19.128907c1.332031 4.648438 3.84375 9.015626 7.480469 12.652344 11.398437 11.398438 29.941406 11.398438 41.34375 0 5.414062-5.414062 8.421875-12.625 8.558594-20.105468l24.210937-9.878907c29.191406 32.757813 28.203125 83.085938-3.382813 114.667969zm0 0"/><path d="m476.765625 165.121094-12.820313 7.789062c14.027344 23.09375 10.4375 52.613282-8.738281 71.785156-19.207031 19.210938-48.816406 22.742188-72 8.585938l-7.816406 12.800781c11.929687 7.285157 25.214844 10.839844 38.398437 10.839844 18.996094 0 37.785157-7.378906 52.027344-21.621094 24.074219-24.074219 28.574219-61.15625 10.949219-90.179687zm0 0"/><path d="m347.207031 35.5625c-29.023437-17.625-66.105469-13.125-90.183593 10.949219-24.125 24.125-28.558594 61.3125-10.777344 90.425781l12.800781-7.816406c-14.15625-23.183594-10.625-52.789063 8.585937-72.003906 19.171876-19.167969 48.6875-22.761719 71.785157-8.734376zm0 0"/><path d="m293.558594 258.296875-10.605469-10.605469-54.898437 54.894532-18.300782-18.300782 54.890625-54.902344-10.605469-10.605468-230.1875 230.238281-.066406-.070313-23.285156 23.601563.0625 18.8125 20.640625 20.640625 18.960937-.0625 17.878907-18.125zm-163.765625 142.554687-11.605469 11.605469-18.289062-18.292969 11.601562-11.605468zm-7.6875-28.898437 54.835937-54.847656 18.296875 18.300781-54.839843 54.839844zm95.34375-58.761719-11.605469 11.609375-18.300781-18.300781 11.605469-11.605469zm-128.15625 91.582032 18.285156 18.289062-54.835937 54.839844-18.285157-18.285156zm-55.421875 92.183593-6.476563.023438-11.851562-11.855469-.023438-6.445312 8.335938-8.453126 18.316406 18.316407zm0 0"/><path d="m327.820312 195.113281-10.605468-10.605469 38.855468-38.855468 10.605469 10.605468zm45.925782-45.925781-10.605469-10.605469 10.605469-10.605469 10.605468 10.605469zm17.675781-17.675781-10.605469-10.605469 10.605469-10.605469 10.605469 10.605469zm0 0" fill="#fff"/><path d="m230.847656 292.085938-10.605468-10.605469 16.886718-16.886719 10.605469 10.605469zm23.957032-23.957032-10.605469-10.605468 10.605469-10.605469 10.605468 10.605469zm17.675781-17.675781-10.605469-10.605469 10.605469-10.605468 10.605469 10.605468zm0 0" fill="#fff"/><path d="m413.761719 251.835938c-4.351563 0-8.675781-.578126-12.851563-1.710938l3.933594-14.476562c2.894531.789062 5.894531 1.1875 8.917969 1.1875 4.042969 0 7.984375-.695313 11.707031-2.070313l5.1875 14.074219c-5.390625 1.988281-11.074219 2.996094-16.894531 2.996094zm27.394531-8.414063-8.460938-12.382813c1.722657-1.179687 3.347657-2.527343 4.835938-4.019531 1.417969-1.417969 2.714844-2.957031 3.847656-4.582031l12.296875 8.589844c-1.636719 2.339844-3.5 4.5625-5.535156 6.597656-2.144531 2.144531-4.496094 4.097656-6.984375 5.796875zm18.050781-22.832031-14.019531-5.339844c1.453125-3.816406 2.191406-7.851562 2.191406-12h15c0 5.980469-1.070312 11.816406-3.171875 17.339844zm0 0" fill="#fff"/></svg>