<svg height="512pt" viewBox="-58 0 512 512.002" width="512pt" xmlns="http://www.w3.org/2000/svg"><path d="m330.949219 200.40625h-110.367188v-134.859375h-44.847656v134.859375h-110.367187v44.847656h110.367187v33.597656l22.421875 27.410157 22.425781-27.410157v-33.597656h110.367188zm0 0" fill="#ffe477"/><path d="m220.582031 86.132812c53.574219 10.453126 94.011719 57.636719 94.011719 114.273438h-94.011719zm-44.847656 0c-53.578125 10.453126-94.015625 57.636719-94.015625 114.273438h94.015625zm0 0" fill="#ffb655"/><path d="m220.582031 86.132812c53.574219 10.453126 94.011719 57.636719 94.011719 114.273438h-94.011719zm-44.847656 0c-53.578125 10.453126-94.015625 57.636719-94.015625 114.273438h94.015625zm0 0" fill="#c6c5ca"/><path d="m387 7.5c-10.417969 0-19.417969 7.4375-21.21875 17.699219-3.492188 19.914062-12.929688 38.988281-28.3125 54.371093-18.566406 18.566407-42.523438 28.472657-66.835938 29.710938 16.945313 13.492188 30.039063 31.613281 37.378907 52.449219 13.664062-6.859375 26.480469-15.992188 37.886719-27.394531 34.539062-34.539063 48.238281-82.027344 41.101562-126.835938zm0 0" fill="#c6c5ca"/><path d="m9.3125 7.5c10.421875 0 19.421875 7.4375 21.222656 17.699219 3.492188 19.914062 12.929688 38.988281 28.3125 54.371093 18.566406 18.566407 42.523438 28.472657 66.835938 29.710938-16.945313 13.492188-30.039063 31.613281-37.378906 52.449219-13.664063-6.859375-26.480469-15.992188-37.886719-27.394531-34.539063-34.539063-48.238281-82.027344-41.105469-126.835938zm0 0" fill="#c6c5ca"/><path d="m111.71875 373.710938c0 14.070312-11.402344 25.472656-25.46875 25.472656s-25.472656-11.402344-25.472656-25.472656c0-14.066407 11.40625-25.46875 25.472656-25.46875s25.46875 11.402343 25.46875 25.46875zm0 0" fill="#ff7956"/><path d="m112.914062 453.136719c0 14.726562-26.664062 47.074219-26.664062 47.074219s-26.667969-32.347657-26.667969-47.074219c0-14.726563 11.941407-26.667969 26.667969-26.667969s26.664062 11.941406 26.664062 26.667969zm0 0" fill="#ff7956"/><path d="m59.582031 399.183594h53.332031v27.285156h-53.332031zm0 0" fill="#787680"/><path d="m269.285156 273.789062c-18.84375 0-35.976562-7.328124-48.703125-19.292968v24.355468l-22.425781 27.410157-22.421875-27.410157v-24.355468c-12.726563 11.964844-29.859375 19.292968-48.703125 19.292968-15.171875 0-29.234375-4.75-40.78125-12.847656v76.707032c27.445312 27.445312 42.832031 42.832031 70.273438 70.277343h83.265624c27.445313-27.445312 42.832032-42.832031 70.277344-70.277343v-76.707032c-11.546875 8.09375-25.609375 12.847656-40.78125 12.847656zm0 0" fill="#ffdaaa"/><g fill="#ff7956"><path d="m220.582031 245.253906v9.242188c12.726563 11.964844 29.859375 19.292968 48.703125 19.292968 23.308594 0 43.996094-11.210937 56.96875-28.535156zm0 0"/><path d="m175.734375 245.253906h-105.671875c12.972656 17.324219 33.660156 28.535156 56.96875 28.535156 18.84375 0 35.976562-7.328124 48.703125-19.292968zm0 0"/><path d="m86.25 337.648438v-40.351563c-14.070312 0-25.472656 11.40625-25.472656 25.472656 0 14.066407 11.402344 25.472657 25.472656 25.472657 3.15625 0 6.179688-.578126 8.96875-1.625-2.855469-2.855469-5.835938-5.835938-8.96875-8.96875zm0 0"/><path d="m73.660156 249.679688c-7.695312 4.382812-12.882812 12.65625-12.882812 22.144531 0 14.070312 11.402344 25.472656 25.472656 25.472656v-36.355469c.027344.019532.054688.039063.082031.054688-4.664062-3.257813-8.917969-7.0625-12.671875-11.316406zm0 0"/><path d="m335.539062 373.710938c0 14.070312-11.40625 25.472656-25.472656 25.472656s-25.472656-11.402344-25.472656-25.472656c0-14.066407 11.40625-25.46875 25.472656-25.46875s25.472656 11.402343 25.472656 25.46875zm0 0"/><path d="m283.402344 453.136719c0 14.726562 26.664062 47.074219 26.664062 47.074219s26.667969-32.347657 26.667969-47.074219c0-14.726563-11.941406-26.667969-26.667969-26.667969-14.726562 0-26.664062 11.941406-26.664062 26.667969zm0 0"/></g><path d="m336.730469 426.46875h-53.328125v-27.285156h53.328125zm0 0" fill="#787680"/><path d="m310.066406 337.648438v-40.351563c14.066406 0 25.472656 11.40625 25.472656 25.472656 0 14.066407-11.40625 25.472657-25.472656 25.472657-3.15625 0-6.179687-.578126-8.96875-1.625 2.855469-2.855469 5.832032-5.835938 8.96875-8.96875zm0 0" fill="#ff7956"/><path d="m322.65625 249.679688c7.691406 4.382812 12.882812 12.65625 12.882812 22.144531 0 14.070312-11.40625 25.472656-25.472656 25.472656v-36.355469c-.027344.019532-.054687.039063-.082031.054688 4.664063-3.257813 8.917969-7.0625 12.671875-11.316406zm0 0" fill="#ff7956"/><path d="m175.734375 65.546875h30v134.859375h-30zm0 0" fill="#ffb655"/><path d="m205.734375 278.851562v-33.597656h-30v33.597656l22.421875 27.410157 15-18.335938zm0 0" fill="#ffb655"/><path d="m65.367188 200.40625h30v44.847656h-30zm0 0" fill="#ffb655"/><path d="m175.734375 96.417969v-10.285157c-53.578125 10.453126-94.015625 57.636719-94.015625 114.269532h30c0-45.445313 26.042969-84.808594 64.015625-103.984375zm0 0" fill="#898890"/><path d="m220.582031 86.132812v114.273438h30v-103.988281c-9.347656-4.722657-19.417969-8.21875-30-10.285157zm0 0" fill="#898890"/><path d="m300.628906 109.28125c24.316406-1.238281 48.269532-11.144531 66.839844-29.714844 8.402344-8.398437 15.027344-17.898437 19.882812-28.039062 2.085938-14.601563 1.96875-29.457032-.351562-44.027344-10.417969 0-19.417969 7.433594-21.21875 17.699219-3.492188 19.914062-12.929688 38.988281-28.3125 54.367187-18.566406 18.570313-42.523438 28.476563-66.835938 29.714844 16.945313 13.492188 30.039063 31.609375 37.378907 52.449219 8.207031-4.121094 16.109375-9.0625 23.582031-14.824219-7.582031-14.628906-18.175781-27.445312-30.964844-37.625zm0 0" fill="#898890"/><path d="m80.417969 134.332031c-23.308594-23.304687-37.125-52.507812-41.453125-82.804687-4.035156-8.425782-6.847656-17.292969-8.433594-26.328125-1.800781-10.265625-10.796875-17.699219-21.21875-17.699219-7.132812 44.804688 6.566406 92.292969 41.105469 126.832031 11.402343 11.40625 24.222656 20.535157 37.886719 27.394531 1.800781-5.113281 3.949218-10.0625 6.414062-14.820312-4.96875-3.828125-9.746094-8.019531-14.300781-12.574219zm0 0" fill="#898890"/><path d="m90.777344 373.710938c0-8.457032 4.125-15.953126 10.472656-20.585938-4.210938-3.070312-9.394531-4.882812-15-4.882812-14.070312 0-25.472656 11.402343-25.472656 25.46875 0 14.070312 11.402344 25.472656 25.472656 25.472656 5.605469 0 10.789062-1.8125 15-4.882813-6.347656-4.632812-10.472656-12.128906-10.472656-20.589843zm0 0" fill="#ff3f62"/><path d="m89.582031 453.136719c0-9.164063 4.625-17.25 11.667969-22.050781-4.273438-2.914063-9.4375-4.617188-15-4.617188-14.726562 0-26.667969 11.941406-26.667969 26.667969 0 14.726562 26.667969 47.074219 26.667969 47.074219s7.828125-9.496094 15-20.539063c-6.066406-9.339844-11.667969-19.789063-11.667969-26.535156zm0 0" fill="#ff3f62"/><path d="m59.582031 399.183594h30v27.285156h-30zm0 0" fill="#57565c"/><path d="m228.15625 306.261719 22.425781-27.410157v-7.550781c-11.390625-3.09375-21.644531-8.949219-30-16.804687v24.355468l-7.425781 9.074219zm0 0" fill="#ff9478"/><path d="m299.285156 273.789062c3.664063 0 7.265625-.28125 10.78125-.816406v-12.03125c-7.632812 5.351563-16.363281 9.238282-25.785156 11.261719 4.835938 1.039063 9.855469 1.585937 15.003906 1.585937zm0 0" fill="#ff9478"/><path d="m157.03125 273.789062c6.472656 0 12.742188-.867187 18.703125-2.488281v-16.804687c-9.25 8.695312-20.832031 14.941406-33.703125 17.707031 4.835938 1.039063 9.855469 1.585937 15 1.585937zm0 0" fill="#ff9478"/><path d="m116.25 337.648438v-64.675782c-11.039062-1.675781-21.246094-5.890625-30-12.03125v76.707032c27.441406 27.445312 42.828125 42.832031 70.273438 70.273437h30c-27.441407-27.441406-42.832032-42.828125-70.273438-70.273437zm0 0" fill="#ff9478"/><path d="m250.582031 254.496094v-9.242188h-30v9.242188c12.726563 11.964844 29.859375 19.292968 48.703125 19.292968 5.144532 0 10.164063-.546874 14.996094-1.585937-12.871094-2.761719-24.449219-9.011719-33.699219-17.707031zm0 0" fill="#ff3f62"/><path d="m100.0625 245.253906h-30c12.972656 17.324219 33.660156 28.535156 56.96875 28.535156 5.144531 0 10.164062-.546874 15-1.585937-17.066406-3.664063-31.863281-13.453125-41.96875-26.949219zm0 0" fill="#ff3f62"/><path d="m314.59375 373.710938c0-8.457032 4.125-15.953126 10.472656-20.585938-4.207031-3.070312-9.394531-4.882812-15-4.882812-14.066406 0-25.472656 11.402343-25.472656 25.46875 0 14.070312 11.40625 25.472656 25.472656 25.472656 5.605469 0 10.792969-1.8125 15-4.882813-6.347656-4.632812-10.472656-12.128906-10.472656-20.589843zm0 0" fill="#ff3f62"/><path d="m313.398438 453.136719c0-9.164063 4.625-17.25 11.667968-22.050781-4.273437-2.914063-9.4375-4.617188-15-4.617188-14.726562 0-26.664062 11.941406-26.664062 26.667969 0 14.726562 26.664062 47.074219 26.664062 47.074219s7.828125-9.496094 15-20.539063c-6.066406-9.339844-11.667968-19.789063-11.667968-26.535156zm0 0" fill="#ff3f62"/><path d="m283.402344 399.183594h29.996094v27.285156h-29.996094zm0 0" fill="#57565c"/><path d="m101.359375 215.992188h15v15h-15zm0 0"/><path d="m131.359375 215.992188h15v15h-15zm0 0"/><path d="m161.355469 215.992188h15v15h-15zm0 0"/><path d="m191.355469 215.992188h15v15h-15zm0 0"/><path d="m191.355469 245.992188h15v15h-15zm0 0"/><path d="m191.355469 185.996094h15v15h-15zm0 0"/><path d="m191.355469 155.996094h15v15h-15zm0 0"/><path d="m191.355469 125.996094h15v15h-15zm0 0"/><path d="m191.355469 95.996094h15v15h-15zm0 0"/><path d="m221.355469 215.992188h15v15h-15zm0 0"/><path d="m251.355469 215.992188h15v15h-15zm0 0"/><path d="m281.355469 215.992188h14.996093v15h-14.996093zm0 0"/><path d="m343.039062 373.710938c0-10.246094-4.699218-19.417969-12.058593-25.46875 7.359375-6.054688 12.058593-15.222657 12.058593-25.472657s-4.699218-19.417969-12.058593-25.472656c7.359375-6.050781 12.058593-15.222656 12.058593-25.472656 0-6.933594-2.199218-13.582031-6.09375-19.074219h1.503907v-59.84375h-110.367188v-134.859375h-59.847656v134.859375h-110.367187v59.847656h1.5c-3.890626 5.488282-6.089844 12.136719-6.089844 19.074219 0 10.246094 4.699218 19.417969 12.058594 25.46875-7.359376 6.054687-12.058594 15.222656-12.058594 25.472656s4.699218 19.421875 12.058594 25.472657c-7.359376 6.050781-12.058594 15.222656-12.058594 25.472656 0 6.625 1.964844 12.796875 5.339844 17.972656h-6.535157v42.285156h5.898438c-3.722657 5.46875-5.898438 12.066406-5.898438 19.164063 0 16.582031 23.640625 46.097656 28.378907 51.84375l5.789062 7.023437 5.785156-7.023437c4.738282-5.746094 28.378906-35.261719 28.378906-51.84375 0-7.097657-2.175781-13.695313-5.894531-19.164063h5.894531v-42.285156h-6.535156c2.1875-3.351562 3.78125-7.125 4.632813-11.167969l34.90625 34.90625h89.476562l34.90625-34.90625c.851563 4.042969 2.445313 7.816407 4.632813 11.167969h-6.535156v42.285156h5.894531c-3.71875 5.46875-5.894531 12.066406-5.894531 19.164063 0 16.582031 23.640624 46.097656 28.378906 51.84375l5.789062 7.023437 5.785156-7.023437c4.738282-5.746094 28.378907-35.261719 28.378907-51.84375 0-7.097657-2.175781-13.695313-5.894531-19.164063h5.894531v-42.285156h-6.535157c3.378907-5.175781 5.34375-11.351562 5.34375-17.976562zm-73.753906-107.421876c-14.34375 0-28.078125-4.773437-39.242187-13.535156h78.539062c-11.0625 8.726563-24.75 13.535156-39.296875 13.535156zm54.09375-6.53125c2.949219 3.265626 4.660156 7.554688 4.660156 12.070313 0 7.230469-4.296874 13.480469-10.472656 16.328125v-23.375c2.007813-1.574219 3.949219-3.246094 5.8125-5.023438zm-5.8125 46.679688c6.175782 2.847656 10.472656 9.097656 10.472656 16.332031s-4.296874 13.484375-10.472656 16.332031zm-244.699218-98.53125h110.367187v-134.859375h29.847656v134.859375h110.367188v29.847656h-110.367188v38.421875l-14.925781 18.242188-14.921875-18.242188v-38.421875h-110.367187zm-4.589844 114.863281c0-7.234375 4.296875-13.484375 10.472656-16.332031v32.660156c-6.175781-2.847656-10.472656-9.09375-10.472656-16.328125zm10.472656-34.613281c-6.175781-2.847656-10.472656-9.097656-10.472656-16.328125 0-4.515625 1.710937-8.804687 4.660156-12.070313 1.863281 1.777344 3.804688 3.449219 5.8125 5.023438zm8.984375-35.402344h78.539063c-11.167969 8.765625-24.898438 13.535156-39.242188 13.535156-14.546875 0-28.238281-4.808593-39.296875-13.535156zm17.679687 153.929688v12.285156h-38.332031v-12.285156zm0 46.453125c0 6.820312-9.890624 22.558593-19.167968 34.925781-9.273438-12.359375-19.164063-28.09375-19.164063-34.925781 0-10.570313 8.597657-19.167969 19.167969-19.167969 10.566406 0 19.164062 8.597656 19.164062 19.167969zm-37.136718-79.425781c0-9.90625 8.0625-17.96875 17.972656-17.96875 9.90625 0 17.96875 8.0625 17.96875 17.96875 0 9.910156-8.0625 17.972656-17.96875 17.972656-9.910156 0-17.972656-8.0625-17.972656-17.972656zm168.40625 26.714843h-77.050782l-65.882812-65.882812v-60.5625c10.230469 4.769531 21.53125 7.308593 33.28125 7.308593 14.714844 0 28.910156-4.066406 41.203125-11.644531v11.882813l29.921875 36.578125 29.925781-36.578125v-11.882813c12.289063 7.578125 26.488281 11.644531 41.199219 11.644531 11.753906 0 23.050781-2.539062 33.285156-7.308593v60.5625zm55.410156-26.714843c0-9.90625 8.0625-17.96875 17.972656-17.96875s17.972656 8.0625 17.972656 17.96875c0 9.910156-8.0625 17.972656-17.972656 17.972656s-17.972656-8.0625-17.972656-17.972656zm37.140625 32.972656v12.285156h-38.332031v-12.285156zm0 46.453125c0 6.820312-9.890625 22.558593-19.167969 34.925781-9.277344-12.359375-19.164062-28.09375-19.164062-34.925781 0-10.570313 8.597656-19.167969 19.164062-19.167969s19.167969 8.597656 19.167969 19.167969zm0 0"/><path d="m305.492188 181.683594 14.78125-2.558594c-7.335938-42.375-36.824219-78.457031-76.957032-94.164062l-5.46875 13.96875c35.28125 13.808593 61.199219 45.515624 67.644532 82.753906zm0 0"/><path d="m90.820312 181.683594c6.449219-37.238282 32.367188-68.945313 67.648438-82.753906l-5.46875-13.96875c-40.132812 15.707031-69.621094 51.789062-76.957031 94.164062zm0 0"/><path d="m75.101562 145.207031c-42.789062-29.574219-64.375-79.523437-59.398437-128.699219 3.828125 1.929688 6.664063 5.554688 7.441406 9.988282 7.351563 41.890625 37.832031 73.976562 75.476563 85.566406l4.414062-14.335938c-32.464844-9.992187-58.777344-37.695312-65.117187-73.824218-2.429688-13.851563-14.457031-23.902344-28.605469-23.902344h-6.398438l-1.003906 6.320312c-9.132812 57.34375 14.863282 116.804688 64.664063 151.226563zm0 0"/><path d="m394.410156 6.320312-1.007812-6.320312h-6.402344c-14.144531 0-26.175781 10.050781-28.605469 23.902344-6.335937 36.113281-32.636719 63.828125-65.113281 73.824218l4.414062 14.335938c37.632813-11.585938 68.121094-43.664062 75.472657-85.566406.777343-4.4375 3.617187-8.058594 7.445312-9.988282 4.976563 49.1875-16.621093 99.132813-59.398437 128.699219l8.527344 12.339844c49.804687-34.421875 73.796874-93.890625 64.667968-151.226563zm0 0"/><path d="m278.898438 177.460938c-1.542969-5.417969-3.648438-10.703126-6.253907-15.71875l13.308594-6.921876c3.070313 5.910157 5.550781 12.144532 7.371094 18.53125zm-10.925782-23.617188c-2.542968-3.8125-5.417968-7.441406-8.542968-10.789062l10.960937-10.238282c3.679687 3.941406 7.066406 8.214844 10.058594 12.699219zm-15.164062-17.144531c-3.476563-2.992188-7.222656-5.714844-11.125-8.089844l7.796875-12.816406c4.601562 2.804687 9.015625 6.011719 13.109375 9.535156zm0 0" fill="#fff"/><path d="m321.59375 137.550781-8.957031-12.03125c4.605469-3.429687 9.015625-7.242187 13.109375-11.335937 5.894531-5.898438 11.179687-12.453125 15.703125-19.488282l12.617187 8.113282c-5.101562 7.933594-11.0625 15.328125-17.714844 21.980468-4.605468 4.605469-9.570312 8.898438-14.757812 12.761719zm0 0" fill="#fff"/><path d="m234.738281 388.226562-10.605469-10.605468 41.34375-41.34375 10.605469 10.605468zm48.414063-48.414062-10.605469-10.605469 5.019531-5.019531v-1.6875h1.6875l.511719-.511719.507813.511719h12.292968v7.898438zm9.414062-27.3125h-15v-15h15zm0 0" fill="#fff"/></svg>