<svg height="512pt" viewBox="0 0 512 512" width="512pt" xmlns="http://www.w3.org/2000/svg"><path d="m504.5 256c0 137.242188-111.257812 248.5-248.5 248.5s-248.5-111.257812-248.5-248.5 111.257812-248.5 248.5-248.5 248.5 111.257812 248.5 248.5zm0 0" fill="#bec7c7"/><path d="m92.117188 207.261719c16.515624-55.625 60.582031-99.398438 116.378906-115.507813v115.507813zm213.855468 0h113.910156c-16.273437-54.800781-59.285156-98.101563-113.910156-114.773438zm0 97.476562v114.773438c54.625-16.671875 97.636719-59.972657 113.910156-114.773438zm-97.476562 0h-116.378906c16.515624 55.625 60.582031 99.398438 116.378906 115.507813zm67.148437-30.332031h150.308594c.644531-6.046875.980469-12.1875.980469-18.40625s-.335938-12.359375-.980469-18.40625h-150.308594v-151.410156c-6.445312-.738282-13-1.117188-19.644531-1.117188-5.796875 0-11.523438.289063-17.175781.855469v151.671875h-152.777344c-.648437 6.046875-.980469 12.1875-.980469 18.40625s.335938 12.359375.980469 18.40625h152.777344v151.671875c5.648437.5625 11.378906.855469 17.175781.855469 6.644531 0 13.195312-.378906 19.644531-1.117188zm0 0" fill="#c6c7be"/><path d="m37.5 256c0-132.207031 103.242188-240.300781 233.5-248.054688-4.960938-.296874-9.964844-.445312-15-.445312-137.242188 0-248.5 111.257812-248.5 248.5s111.257812 248.5 248.5 248.5c5.035156 0 10.039062-.148438 15-.445312-130.257812-7.753907-233.5-115.847657-233.5-248.054688zm0 0" fill="#cccaac"/><g fill="#d0c792"><path d="m335.972656 104.890625c-9.503906-5.039063-19.539062-9.207031-30-12.402344v114.777344h30zm0 0"/><path d="m208.496094 103.609375v-11.851563c-55.796875 16.105469-99.863282 59.882813-116.378906 115.507813h30c13.425781-45.214844 45.046874-82.59375 86.378906-103.65625zm0 0"/><path d="m335.972656 304.738281h-30v114.773438c10.460938-3.191407 20.496094-7.363281 30-12.402344zm0 0"/><path d="m122.117188 304.738281h-30c16.515624 55.625 60.582031 99.398438 116.378906 115.507813v-11.851563c-41.332032-21.066406-72.953125-58.445312-86.378906-103.65625zm0 0"/><path d="m115.066406 256c0-6.21875.335938-12.359375.980469-18.40625h-30c-.648437 6.046875-.980469 12.1875-.980469 18.40625s.335938 12.359375.980469 18.40625h30c-.644531-6.046875-.980469-12.1875-.980469-18.40625zm0 0"/></g><path d="m248.5 446.835938h15v37.761718h-15zm0 0"/><path d="m248.5 27.402344h15v37.761718h-15zm0 0"/><path d="m298.164062 442.304688 14.488282-3.882813 9.800781 36.546875-14.488281 3.886719zm0 0"/><path d="m189.566406 37.03125 14.488282-3.882812 9.800781 36.546874-14.488281 3.886719zm0 0"/><path d="m344.90625 424.957031 12.988281-7.503906 18.957031 32.816406-12.988281 7.503907zm0 0"/><path d="m135.15625 61.691406 12.988281-7.5 18.953125 32.8125-12.984375 7.503906zm0 0"/><path d="m89.054688 99.664062 10.605468-10.605468 26.765625 26.765625-10.605469 10.605469zm0 0"/><path d="m54.195312 148.148438 7.5-12.988282 32.816407 18.945313-7.5 12.988281zm0 0"/><path d="m33.167969 204.050781 3.886719-14.488281 36.539062 9.800781-3.886719 14.488281zm0 0"/><path d="m27.402344 248.5h37.761718v15h-37.761718zm0 0"/><path d="m438.417969 199.359375 36.550781-9.800781 3.882812 14.488281-36.546874 9.800781zm0 0"/><path d="m33.148438 307.960938 36.539062-9.796876 3.886719 14.488282-36.539063 9.796875zm0 0"/><path d="m417.5 154.117188 32.824219-18.957032 7.503906 12.992188-32.828125 18.957031zm0 0"/><path d="m54.195312 363.847656 32.816407-18.949218 7.5 12.992187-32.816407 18.945313zm0 0"/><path d="m385.566406 115.816406 26.765625-26.765625 10.605469 10.605469-26.765625 26.765625zm0 0"/><path d="m89.0625 412.320312 26.765625-26.765624 10.605469 10.605468-26.765625 26.765625zm0 0"/><path d="m344.90625 87.023438 18.957031-32.816407 12.984375 7.503907-18.953125 32.8125zm0 0"/><path d="m135.152344 450.304688 18.957031-32.8125 12.984375 7.5-18.953125 32.816406zm0 0"/><path d="m298.15625 69.695312 9.800781-36.550781 14.488281 3.886719-9.800781 36.546875zm0 0"/><path d="m189.574219 474.96875 9.800781-36.546875 14.488281 3.882813-9.800781 36.550781zm0 0"/><path d="m444.15625 82.410156-11.019531 10.175782c41.179687 44.617187 63.863281 102.652343 63.863281 163.414062 0 132.886719-108.113281 241-241 241s-241-108.113281-241-241 108.113281-241 241-241c60.761719 0 118.796875 22.683594 163.414062 63.863281l10.175782-11.019531c-47.398438-43.75-109.046875-67.84375-173.589844-67.84375-141.492188 0-256 114.496094-256 256 0 141.492188 114.496094 256 256 256 141.492188 0 256-114.496094 256-256 0-64.542969-24.09375-126.191406-67.84375-173.589844zm0 0"/><path d="m298.472656 82.355469v132.40625h131.460938l-2.859375-9.632813c-16.949219-57.085937-61.816407-102.386718-118.914063-119.8125zm15 20.59375c44.6875 16.734375 79.667969 51.992187 96.035156 96.8125h-96.035156zm0 0"/><path d="m432.691406 230.09375h-149.550781v-150.601562c-20.109375-2.296876-28.023437-2.734376-51.816406-.359376v150.960938h-152.015625c-2.496094 23.304688-2.207032 31.214844 0 51.8125h152.015625v150.238281c20.113281 2.296875 28.023437 2.734375 51.816406.363281v-150.601562h149.550781c2.175782-20.324219 2.53125-28.171875 0-51.8125zm-13.617187 36.8125h-150.929688v152.082031c-7.246093.527344-14.546875.585938-21.816406.160157v-152.242188h-153.402344c-.460937-7.050781-.492187-14.304688 0-21.8125h153.398438v-152.242188c7.273437-.421874 14.570312-.367187 21.816406.160157v152.082031h150.933594c.464843 7.117188.488281 14.386719 0 21.8125zm0 0"/><path d="m84.925781 205.128906-2.859375 9.636719h133.929688v-132.980469l-9.578125 2.765625c-58.371094 16.851563-104.296875 62.675781-121.492188 120.578125zm116.070313-103.066406v97.703125h-98.488282c16.621094-45.164063 53.195313-81.453125 98.488282-97.703125zm0 0"/><path d="m215.996094 297.234375h-133.929688c4.175782 14.074219 12.269532 45.835937 41.207032 78.023437l11.15625-10.03125c-13.871094-15.425781-24.789063-33.582031-31.921876-52.988281h98.492188v97.703125c-19.351562-6.9375-37.503906-17.628906-52.976562-31.257812l-9.914063 11.257812c19.652344 17.3125 43.273437 30.28125 68.308594 37.507813l9.582031 2.769531v-132.984375zm0 0"/><path d="m427.070312 306.871094 2.863282-9.636719h-131.460938v132.40625l9.6875-2.957031c56.832032-17.34375 101.886719-62.464844 118.910156-119.8125zm-113.597656 102.179687v-96.8125h96.035156c-16.367187 44.820313-51.347656 80.078125-96.035156 96.8125zm0 0"/><path d="m334.695312 387.871094-7.699218-12.875c6.421875-3.839844 12.574218-8.226563 18.292968-13.046875l9.667969 11.46875c-6.332031 5.339843-13.148437 10.199219-20.261719 14.453125zm28.066407-21.503906-10.433594-10.773438c.675781-.652344 1.34375-1.3125 2.007813-1.980469 2.664062-2.6875 5.253906-5.523437 7.695312-8.425781l11.480469 9.65625c-2.707031 3.21875-5.574219 6.359375-8.53125 9.335938-.734375.738281-1.472657 1.464843-2.21875 2.1875zm17.234375-19.789063-12.105469-8.855469c2.789063-3.8125 5.414063-7.816406 7.800781-11.898437l12.945313 7.574219c-2.644531 4.519531-5.546875 8.953124-8.640625 13.179687zm0 0" fill="#fff"/><path d="m375.6875 186.175781c-3.777344-6.460937-8.109375-12.660156-12.867188-18.421875l11.5625-9.554687c5.273438 6.382812 10.066407 13.246093 14.253907 20.402343zm-19.15625-25.523437c-.722656-.765625-1.457031-1.519532-2.199219-2.265625-2.585937-2.605469-5.3125-5.140625-8.105469-7.539063l9.769532-11.382812c3.09375 2.65625 6.117187 5.464844 8.984375 8.355468.820312.828126 1.632812 1.664063 2.4375 2.511719zm-17.710938-15.730469c-3.789062-2.828125-7.769531-5.492187-11.824218-7.917969l7.703125-12.871094c4.488281 2.6875 8.894531 5.636719 13.089843 8.765626zm0 0" fill="#fff"/><path d="m419.429688 419.429688-10.605469-10.605469c29.019531-29.019531 49.074219-65.28125 57.996093-104.863281l14.632813 3.296874c-9.546875 42.355469-30.992187 81.140626-62.023437 112.171876zm64.066406-122.304688-14.765625-2.640625c.84375-4.726563 1.539062-9.554687 2.070312-14.347656l14.910157 1.644531c-.566407 5.125-1.3125 10.289062-2.214844 15.34375zm3.121094-25.636719-14.96875-.984375c.316406-4.800781.476562-9.683594.476562-14.503906h15c0 5.148438-.171875 10.359375-.507812 15.488281zm0 0" fill="#fff"/></svg>
