<svg height="512pt" viewBox="0 -10 512.001 512" width="512pt" xmlns="http://www.w3.org/2000/svg"><path d="m41.011719 340.808594-30.40625-30.40625 271.261719-271.257813-.011719-10.101562h-17.617188l-8.007812-8.007813v-13.535156h88.542969l11.382812 11.382812v15.203126h28.1875v48.71875h-85.601562zm0 0" fill="#ffb655"/><g fill="#ffdaaa"><path d="m108.347656 373.355469c0 12.519531-10.144531 22.667969-22.664062 22.667969-12.519532 0-22.667969-10.148438-22.667969-22.667969 0-12.515625 10.148437-22.664063 22.667969-22.664063 12.519531 0 22.664062 10.148438 22.664062 22.664063zm0 0"/><path d="m108.347656 328.023438c0 12.519531-10.144531 22.667968-22.664062 22.667968-12.519532 0-22.667969-10.148437-22.667969-22.667968 0-12.515626 10.148437-22.664063 22.667969-22.664063 12.519531 0 22.664062 10.148437 22.664062 22.664063zm0 0"/><path d="m108.347656 418.6875c0 12.519531-10.144531 22.664062-22.664062 22.664062-12.519532 0-22.667969-10.144531-22.667969-22.664062s10.148437-22.667969 22.667969-22.667969c12.519531 0 22.664062 10.148438 22.664062 22.667969zm0 0"/><path d="m448.984375 373.355469c0 12.519531-10.148437 22.667969-22.667969 22.667969-12.519531 0-22.664062-10.148438-22.664062-22.667969 0-12.515625 10.144531-22.664063 22.664062-22.664063 12.519532 0 22.667969 10.148438 22.667969 22.664063zm0 0"/><path d="m448.984375 328.023438c0 12.519531-10.148437 22.667968-22.667969 22.667968-12.519531 0-22.664062-10.148437-22.664062-22.667968 0-12.515626 10.144531-22.664063 22.664062-22.664063 12.519532 0 22.667969 10.148437 22.667969 22.664063zm0 0"/><path d="m448.984375 418.6875c0 12.519531-10.148437 22.664062-22.667969 22.664062-12.519531 0-22.664062-10.144531-22.664062-22.664062s10.144531-22.667969 22.664062-22.667969c12.519532 0 22.667969 10.148438 22.667969 22.667969zm0 0"/></g><path d="m108.347656 328.023438c0 12.519531-10.144531 22.667968-22.664062 22.667968 12.515625 0 22.664062 10.144532 22.664062 22.664063s-10.144531 22.667969-22.664062 22.667969c12.515625 0 22.664062 10.144531 22.664062 22.664062 0 12.515625-10.140625 22.660156-22.652344 22.667969h340.613282c-12.515625-.007813-22.65625-10.152344-22.65625-22.667969s10.148437-22.664062 22.664062-22.664062c-12.515625 0-22.664062-10.148438-22.664062-22.667969s10.148437-22.664063 22.664062-22.664063c-12.515625 0-22.664062-10.148437-22.664062-22.667968 0-12.515626 10.148437-22.664063 22.664062-22.664063v-9.464844l-170.316406-170.316406-170.316406 170.316406v9.464844c12.519531 0 22.664062 10.148437 22.664062 22.664063zm0 0" fill="#b77062"/><path d="m49.007812 441.351562h417.984376v42.820313h-417.984376zm0 0" fill="#c6c5ca"/><path d="m213.257812 82.804688h-85.601562v-48.71875h28.1875v-15.203126l11.382812-11.382812h88.542969v13.535156l-8.007812 8.007813h-17.617188l-.007812 10.101562 25.863281 25.863281-30.273438 30.277344zm73.015626 12.480468-30.273438 30.308594 214.988281 215.214844 30.40625-30.40625zm0 0" fill="#ffb655"/><path d="m294.253906 236.242188c0 21.128906-17.125 38.257812-38.253906 38.257812-21.125 0-38.253906-17.128906-38.253906-38.257812 0-21.125 17.128906-38.253907 38.253906-38.253907 21.128906 0 38.253906 17.128907 38.253906 38.253907zm0 0" fill="#895247"/><path d="m209.269531 304.71875h93.460938v136.632812h-93.460938zm0 0" fill="#895247"/><path d="m40.605469 310.402344 271.257812-271.257813-.007812-10.101562h-17.617188l-8.007812-8.007813v-13.535156h-30v13.535156l8.007812 8.007813h17.617188l.011719 10.101562-271.261719 271.257813 30.40625 30.40625 14.992187-15.007813zm0 0" fill="#ff7956"/><path d="m83.015625 373.355469c0-8.929688 5.164063-16.652344 12.667969-20.34375-3.015625-1.488281-6.410156-2.320313-10-2.320313-12.519532 0-22.667969 10.144532-22.667969 22.664063s10.148437 22.667969 22.667969 22.667969c3.589844 0 6.984375-.835938 10-2.320313-7.503906-3.695313-12.667969-11.417969-12.667969-20.347656zm0 0" fill="#ff9478"/><path d="m83.015625 328.023438c0-8.929688 5.164063-16.652344 12.667969-20.34375-3.015625-1.488282-6.410156-2.320313-10-2.320313-12.519532 0-22.667969 10.144531-22.667969 22.664063 0 12.519531 10.148437 22.667968 22.667969 22.667968 3.589844 0 6.984375-.835937 10-2.320312-7.503906-3.695313-12.667969-11.417969-12.667969-20.347656zm0 0" fill="#ff9478"/><path d="m83.015625 418.6875c0-8.929688 5.164063-16.652344 12.667969-20.347656-3.015625-1.484375-6.410156-2.320313-10-2.320313-12.519532 0-22.667969 10.148438-22.667969 22.667969s10.148437 22.664062 22.667969 22.664062c3.589844 0 6.984375-.832031 10-2.316406-7.503906-3.695312-12.667969-11.417968-12.667969-20.347656zm0 0" fill="#ff9478"/><path d="m423.652344 373.355469c0-8.929688 5.160156-16.652344 12.664062-20.34375-3.015625-1.488281-6.410156-2.320313-10-2.320313-12.515625 0-22.664062 10.144532-22.664062 22.664063s10.148437 22.667969 22.664062 22.667969c3.589844 0 6.984375-.835938 10-2.320313-7.503906-3.695313-12.664062-11.417969-12.664062-20.347656zm0 0" fill="#ff9478"/><path d="m423.652344 328.023438c0-8.929688 5.160156-16.652344 12.664062-20.34375-3.015625-1.488282-6.410156-2.320313-10-2.320313-12.515625 0-22.664062 10.144531-22.664062 22.664063 0 12.519531 10.148437 22.667968 22.664062 22.667968 3.589844 0 6.984375-.835937 10-2.320312-7.503906-3.695313-12.664062-11.417969-12.664062-20.347656zm0 0" fill="#ff9478"/><path d="m423.652344 418.6875c0-8.929688 5.160156-16.652344 12.664062-20.347656-3.015625-1.484375-6.410156-2.320313-10-2.320313-12.515625 0-22.664062 10.148438-22.664062 22.667969s10.148437 22.664062 22.664062 22.664062c3.589844 0 6.984375-.832031 10-2.316406-7.503906-3.695312-12.664062-11.417968-12.664062-20.347656zm0 0" fill="#ff9478"/><path d="m138.347656 418.6875c0-12.519531-10.148437-22.667969-22.664062-22.667969 12.515625 0 22.664062-10.144531 22.664062-22.664062s-10.148437-22.667969-22.664062-22.667969c12.515625 0 22.664062-10.144531 22.664062-22.664062 0-12.519532-10.148437-22.667969-22.664062-22.667969v-9.464844l155.316406-155.316406-15-15-170.316406 170.320312v9.464844c12.515625 0 22.664062 10.144531 22.664062 22.664063 0 12.519531-10.144531 22.667968-22.664062 22.667968 12.515625 0 22.664062 10.144532 22.664062 22.664063s-10.144531 22.667969-22.664062 22.667969c12.515625 0 22.664062 10.144531 22.664062 22.664062 0 12.515625-10.140625 22.660156-22.652344 22.667969h29.996094c12.515625-.007813 22.65625-10.152344 22.65625-22.667969zm0 0" fill="#895247"/><path d="m49.007812 441.351562h30v42.820313h-30zm0 0" fill="#898890"/><path d="m185.84375 34.085938v-15.203126l11.382812-11.382812h-30l-11.382812 11.382812v15.203126h-28.1875v48.71875h30v-48.71875zm0 0" fill="#ff7956"/><path d="m286 125.59375 15.28125-15.300781-15.007812-15.007813-30.273438 30.308594 214.988281 215.214844 15.007813-15.007813zm0 0" fill="#ff7956"/><path d="m247.746094 236.242188c0-15.800782 9.582031-29.367188 23.253906-35.199219-4.605469-1.964844-9.675781-3.054688-15-3.054688-21.125 0-38.253906 17.128907-38.253906 38.253907 0 21.128906 17.128906 38.257812 38.253906 38.257812 5.324219 0 10.394531-1.089844 15-3.054688-13.671875-5.832031-23.253906-19.398437-23.253906-35.203124zm0 0" fill="#673e35"/><path d="m209.269531 304.71875h29.996094v136.632812h-29.996094zm0 0" fill="#673e35"/><path d="m456.480469 418.6875c0-9.023438-3.980469-17.132812-10.28125-22.667969 6.300781-5.53125 10.28125-13.640625 10.28125-22.664062 0-9.015625-3.976563-17.121094-10.265625-22.652344 1.332031-1.171875 2.570312-2.472656 3.699218-3.890625l-11.726562-9.347656c-2.902344 3.636718-7.226562 5.722656-11.871094 5.722656-8.363281 0-15.167968-6.800781-15.167968-15.164062 0-4.648438 2.09375-8.980469 5.738281-11.878907l-9.335938-11.738281c-7.246093 5.761719-11.398437 14.371094-11.398437 23.617188 0 9.023437 3.980468 17.132812 10.28125 22.664062-6.300782 5.535156-10.28125 13.644531-10.28125 22.667969 0 9.023437 3.980468 17.132812 10.28125 22.664062-6.300782 5.535157-10.28125 13.644531-10.28125 22.667969 0 5.523438 1.492187 10.707031 4.097656 15.167969h-288.5c2.605469-4.460938 4.097656-9.640625 4.097656-15.167969 0-9.023438-3.980468-17.132812-10.28125-22.667969 6.300782-5.53125 10.28125-13.640625 10.28125-22.664062 0-9.023438-3.980468-17.132813-10.28125-22.667969 6.300782-5.53125 10.28125-13.640625 10.28125-22.664062 0-9.246094-4.152344-17.855469-11.398437-23.617188l-9.335938 11.738281c3.644531 2.898438 5.738281 7.230469 5.738281 11.878907 0 8.363281-6.804687 15.164062-15.167968 15.164062-4.644532 0-8.96875-2.085938-11.871094-5.722656l-11.726562 9.347656c1.128906 1.417969 2.367187 2.714844 3.699218 3.890625-6.289062 5.53125-10.265625 13.636719-10.265625 22.652344 0 9.023437 3.980469 17.132812 10.28125 22.664062-6.300781 5.535157-10.28125 13.644531-10.28125 22.667969 0 5.523438 1.492188 10.707031 4.097657 15.167969h-18.109376v57.816406h432.984376v-57.816406h-22.105469c2.601562-4.460938 4.09375-9.644531 4.09375-15.167969zm-45.332031-45.332031c0-8.363281 6.804687-15.164063 15.167968-15.164063 8.363282 0 15.167969 6.800782 15.167969 15.164063s-6.804687 15.167969-15.167969 15.167969c-8.363281 0-15.167968-6.804688-15.167968-15.167969zm0 45.332031c0-8.363281 6.804687-15.167969 15.167968-15.167969 8.363282 0 15.167969 6.804688 15.167969 15.167969s-6.804687 15.167969-15.167969 15.167969c-8.363281 0-15.167968-6.804688-15.167968-15.167969zm-340.628907-45.332031c0-8.363281 6.800781-15.164063 15.164063-15.164063 8.363281 0 15.167968 6.800782 15.167968 15.164063s-6.804687 15.167969-15.167968 15.167969c-8.363282 0-15.164063-6.804688-15.164063-15.167969zm0 45.332031c0-8.363281 6.800781-15.167969 15.164063-15.167969 8.363281 0 15.167968 6.804688 15.167968 15.167969s-6.804687 15.167969-15.167968 15.167969c-8.363282 0-15.164063-6.804688-15.164063-15.167969zm388.972657 57.984375h-402.984376v-27.820313h402.984376zm0 0"/><path d="m209.921875 75.304688h-74.765625v-8.25h39.054688v-15h-39.054688v-10.46875h28.1875v-19.597657l6.988281-6.988281h65.898438v-15h-72.109375l-15.777344 15.777344v10.808594h-28.1875v63.71875h89.765625zm0 0"/><path d="m222.644531 29.035156-.011719 13.210938 13.921876 13.925781 10.605468-10.605469-9.523437-9.523437.007812-6.992188zm0 0"/><path d="m301.753906 236.242188c0-25.226563-20.523437-45.753907-45.753906-45.753907-25.226562 0-45.753906 20.527344-45.753906 45.753907 0 25.230468 20.527344 45.753906 45.753906 45.753906 25.230469 0 45.753906-20.523438 45.753906-45.753906zm-76.507812 0c0-16.957032 13.796875-30.753907 30.753906-30.753907s30.753906 13.796875 30.753906 30.753907c0 16.957031-13.796875 30.753906-30.753906 30.753906s-30.753906-13.796875-30.753906-30.753906zm0 0"/><path d="m322.726562 388.523438h67.457032v15h-67.457032zm0 0"/><path d="m121.816406 388.523438h67.453125v15h-67.453125zm0 0"/><path d="m322.726562 342.867188h67.457032v15h-67.457032zm0 0"/><path d="m121.816406 342.867188h67.453125v15h-67.453125zm0 0"/><path d="m322.726562 297.21875h67.457032v15h-67.457032zm0 0"/><path d="m121.816406 297.21875h67.453125v15h-67.453125zm0 0"/><path d="m202.410156 266.570312v-15h-61.65625l30.617188-30.648437h31.027344v-15h-16.042969l30.621093-30.65625h78.042969l30.625 30.65625h-16.046875v15h31.03125l30.613282 30.648437h-61.65625v15h76.640624l84.761719 84.847657 41.011719-41.015625-206.28125-206.277344-10.605469 10.605469 195.675781 195.671875-19.796874 19.796875-195.550782-195.757813-10.613281 10.597656 15.210937 15.226563h-48.074218l69.886718-69.960937h89.992188v-63.71875h-28.1875v-10.808594l-15.773438-15.777344h-99.148437v24.144531l12.398437 12.398438h12.730469l-273.863281 273.859375 41.015625 41.015625 84.757813-84.847657zm-161.402344 63.628907-19.796874-19.796875 268.15625-268.15625-.019532-20.703125h-22.003906l-3.613281-3.613281v-2.929688h77.9375l6.988281 6.988281v19.597657h28.1875v10.46875h-39.054688v15h39.054688v8.25h-81.210938zm0 0"/><path d="m310.230469 421.355469v-124.136719h-108.460938v124.136719h15v-109.136719h78.460938v109.136719zm0 0"/><path d="m465.800781 315.753906-81.085937-81.082031 10.605468-10.605469 81.085938 81.082032zm-88.15625-88.15625-10.605469-10.605468 10.605469-10.605469 10.605469 10.605469zm-17.675781-17.675781-10.605469-10.605469 10.605469-10.605468 10.605469 10.605468zm0 0" fill="#fff"/><path d="m390.34375 335.042969h-23.597656v-15h23.597656zm-33.597656 0h-15v-15h15zm-25 0h-15v-15h15zm0 0" fill="#fff"/><path d="m449.679688 470.261719h-63.59375v-15h63.59375zm-73.59375 0h-15v-15h15zm-25 0h-15v-15h15zm0 0" fill="#fff"/></svg>