<svg height="512pt" viewBox="0 -42 512 512" width="512pt" xmlns="http://www.w3.org/2000/svg"><path d="m300.980469 10.605469 31.164062 31.160156-290.375 290.371094-31.160156-31.160157zm0 0" fill="#b77062"/><path d="m256 117.914062-181.910156 181.90625v120.074219h363.8125v-120.082031zm0 0" fill="#ff7956"/><path d="m348.628906 398.679688-46.410156-46.414063c-13.585938-13.582031-14.710938-21.210937-14.710938-21.210937h82.332032v58.835937c0 16.570313 13.433594 30 30.003906 30-19.210938.003906-37.632812-7.628906-51.214844-21.210937zm0 0" fill="#ff3f62"/><path d="m324.332031 211.128906c0 21.125-17.128906 38.25-38.253906 38.25s-38.253906-17.125-38.253906-38.25c0-21.128906 17.128906-38.253906 38.253906-38.253906s38.253906 17.125 38.253906 38.253906zm0 0" fill="#ff3f62"/><path d="m323.625 398.679688-46.410156-46.414063c-13.582032-13.582031-21.214844-32.003906-21.214844-51.214844 0 16.570313 13.433594 30.003907 30.003906 30.003907h58.835938v58.835937c0 16.570313 13.433594 30 30.003906 30-19.210938.003906-37.636719-7.628906-51.21875-21.210937zm0 0" fill="#fff5cc"/><path d="m323.625 398.679688-46.410156-46.414063c-12.800782-12.800781-20.316406-29.898437-21.136719-47.90625v115.460937h115.570313c-18.050782-.792968-35.195313-8.3125-48.023438-21.140624zm0 0" fill="#787680"/><path d="m294.328125 211.128906c0 21.125-17.125 38.25-38.253906 38.25-21.125 0-38.25-17.125-38.25-38.25 0-21.128906 17.125-38.253906 38.25-38.253906 21.128906 0 38.253906 17.125 38.253906 38.253906zm0 0" fill="#c6c5ca"/><path d="m287.160156 86.75 214.230469 214.230469-31.160156 31.164062-214.230469-214.230469zm-31.160156-31.160156-44.984375-44.984375-31.160156 31.164062 44.984375 44.980469zm0 0" fill="#b77062"/><path d="m40.609375 300.980469 275.375-275.371094-15.003906-15.003906-290.375 290.375 31.164062 31.164062 15-15.003906zm0 0" fill="#895247"/><path d="m271 132.914062-15-15.003906-181.910156 181.910156v120.074219h30.003906v-120.074219zm0 0" fill="#ff3f62"/><path d="m344.839844 389.890625-37.621094-37.621094c-6.195312-6.195312-11.148438-13.394531-14.710938-21.214843h-6.507812c-16.570312 0-30-13.433594-30-30.003907 0 19.210938 7.632812 37.632813 21.214844 51.21875l46.410156 46.410157c13.582031 13.582031 32.003906 21.214843 51.214844 21.214843-16.566406 0-30-13.433593-30-30.003906zm0 0" fill="#ffc477"/><path d="m277.214844 352.265625c-12.800782-12.800781-20.316406-29.898437-21.136719-47.90625v115.460937h30v-58.691406zm0 0" fill="#57565c"/><path d="m247.824219 211.128906c0-15.804687 9.582031-29.367187 23.253906-35.199218-4.609375-1.96875-9.679687-3.054688-15.003906-3.054688-21.125 0-38.25 17.125-38.25 38.253906 0 21.125 17.125 38.25 38.25 38.25 5.324219 0 10.394531-1.085937 15.003906-3.054687-13.671875-5.832031-23.253906-19.394531-23.253906-35.195313zm0 0" fill="#898890"/><path d="m209.859375 41.769531 16.160156-16.160156-15-15.003906-31.164062 31.164062 44.984375 44.980469 15-15zm0 0" fill="#895247"/><path d="m286 117.910156 16.164062-16.160156-15.003906-15-31.160156 31.160156 214.230469 214.234375 15-15.003906zm0 0" fill="#895247"/><path d="m300.980469 0-300.980469 300.980469 41.769531 41.769531 300.980469-300.980469zm-279.765625 300.980469 279.765625-279.765625 20.558593 20.554687-279.769531 279.765625zm0 0"/><path d="m256.078125 256.878906c25.226563 0 45.75-20.523437 45.75-45.75 0-25.230468-20.523437-45.753906-45.75-45.753906-25.230469 0-45.753906 20.523438-45.753906 45.753906 0 25.226563 20.523437 45.75 45.753906 45.75zm0-76.503906c16.957031 0 30.75 13.796875 30.75 30.753906 0 16.957032-13.792969 30.75-30.75 30.75s-30.753906-13.792968-30.753906-30.75c0-16.957031 13.796875-30.753906 30.753906-30.753906zm0 0"/><path d="m216 67.304688-25.539062-25.535157 20.558593-20.554687 25.53125 25.535156 10.609375-10.605469-36.140625-36.144531-41.769531 41.769531 36.140625 36.140625zm0 0"/><path d="m306.609375 95.589844-10.609375 10.609375 194.785156 194.78125-20.554687 20.554687-194.78125-194.785156-10.609375 10.609375 205.390625 205.390625 41.769531-41.769531zm0 0"/><path d="m430.402344 412.394531h-55.5625v-.003906c-12.40625 0-22.5-10.09375-22.5-22.5v-66.339844h-66.339844c-12.40625 0-22.5-10.09375-22.5-22.5v-31.667969h-15l.074219 143.011719h-166.980469v-84.289062h-15v99.289062h250.527344v-15h-53.542969v-64.589843c2.488281 3.441406 5.269531 6.707031 8.332031 9.765624l46.410156 46.410157c15.097657 15.097656 35.171876 23.414062 56.523438 23.414062h70.558594v-99.292969h-15zm-101.472656-19.019531-46.410157-46.410156c-3.195312-3.195313-6.015625-6.664063-8.441406-10.355469 3.746094 1.261719 7.757813 1.945313 11.925781 1.945313h51.335938v51.335937c0 4.164063.683594 8.175781 1.941406 11.921875-3.691406-2.421875-7.15625-5.242188-10.351562-8.4375zm0 0"/><g fill="#fff"><path d="m420.398438 394.890625h-15v-34.71875h15zm0-44.71875h-15v-15h15zm0-25h-15v-15.003906h15zm0 0"/><path d="m256.078125 231.867188c-5.316406.003906-10.628906-2.019532-14.675781-6.066407l10.609375-10.605469c2.238281 2.242188 5.890625 2.242188 8.128906 0 1.085937-1.082031 1.679687-2.527343 1.679687-4.066406 0-1.539062-.597656-2.984375-1.679687-4.066406l10.609375-10.605469c3.914062 3.914063 6.070312 9.125 6.070312 14.671875s-2.15625 10.757813-6.070312 14.675782c-4.042969 4.042968-9.359375 6.0625-14.671875 6.0625zm0 0"/><path d="m460.351562 301.710938-10.605468-10.605469 10.609375-10.609375 10.605469 10.609375zm-17.675781-17.675782-10.609375-10.609375 10.609375-10.605469 10.605469 10.605469zm-17.679687-17.679687-88.175782-88.175781 10.609376-10.609376 88.171874 88.175782zm0 0"/></g></svg>